<svg xmlns="http://www.w3.org/2000/svg" xmlns:xlink="http://www.w3.org/1999/xlink" viewBox="0 0 76 37" fill="#fff" fill-rule="evenodd" stroke="#000" stroke-linecap="round" stroke-linejoin="round"><style><![CDATA[.B{fill-rule:nonzero}.C{stroke-width:.075}]]></style><use xlink:href="#J" x=".5" y=".5"/><defs><linearGradient id="A" x1="50.00%" y1="-0.00%" x2="50.00%" y2="100.00%"><stop offset="0%" stop-color="#c6ba8c"/><stop offset="100%" stop-color="#9f906b"/></linearGradient><linearGradient id="B" x1="50.00%" y1="0.00%" x2="50.00%" y2="100.00%"><stop offset="0%" stop-color="#c6ba8c"/><stop offset="100%" stop-color="#9f906b"/></linearGradient><linearGradient id="C" y2="0.00%" x2="50.00%" y1="100.00%" x1="50.00%"><stop stop-color="#89ac7b" offset=".6%"/><stop stop-color="#c3bd92" offset="100%"/></linearGradient><linearGradient id="D" x1="0.00%" y1="50.00%" x2="100.00%" y2="50.00%"><stop offset="0%" stop-color="#43addc"/><stop offset="90%" stop-color="#009bd7"/></linearGradient><linearGradient id="E" x1="50.00%" y1="0.00%" x2="50.00%" y2="100.00%"><stop offset=".6%" stop-color="#9dccea"/><stop offset="45.5%" stop-color="#43addc"/><stop offset="100%" stop-color="#00a4d9"/></linearGradient><linearGradient id="F" x1="-0.00%" y1="50.00%" x2="100.00%" y2="50.00%"><stop offset=".6%" stop-color="#89ac7b"/><stop offset="100%" stop-color="#c3bd92"/></linearGradient><linearGradient id="G" x1="0.00%" y1="50.00%" x2="100.00%" y2="50.00%"><stop offset=".6%" stop-color="#89ac7b"/><stop offset="100%" stop-color="#c3bd92"/></linearGradient><linearGradient id="H" x1="50.00%" y1="0.00%" x2="50.00%" y2="100.00%"><stop offset="14.6%" stop-color="#00a4d9"/><stop offset="71.9%" stop-color="#008dc5"/></linearGradient><linearGradient id="I" y2="0.00%" x2="50.00%" y1="100.00%" x1="50.00%"><stop stop-color="#967d5f" offset="0%"/><stop stop-color="#d7bd9c" offset="100%"/></linearGradient></defs><symbol id="J" overflow="visible"><g stroke="#58595b"><g fill="url(#A)" class="B C"><path d="M10.58 5.173c.72-.007 1.245-.108 1.804-.357.34-.151.456-.263.813-.366.334-.096.594.008.905-.131.841-.375.848-.778 1.901-.772.563.003 1.599-.226 1.892.361l-2.167 2.98-5.147-1.716z"/><path d="M18.436 4.541c.627-.077 1.25-.598 1.898-.763.807-.205 1.706-.637 2.398-1.083.764-.492 2.659-1.817 3.586-.683l-2.864 4.134-5.018-1.606z"/></g><g fill="url(#B)"><path d="M26.756 3.117c.941-.272 1.747-.598 1.975-.86.533-.612 1.181-.584 1.806-.944.632-.364.995-1.068 1.718-1.243.529-.128 1.523-.087 1.984.183l1.445 3.927c0 0-10.229-.687-8.928-1.062z" class="B C"/><path d="M41.012 4.902c1.806 0 3.492-.078 5.108-.569.487-.148.968-.557 1.444-.73.784-.287 1.555-.393 2.318-.82.738-.412 1.365-.449 2.118-.736.519-.199 1.163-.645 1.681-.893.851-.407 3.757-1.531 4.542-.351l-6.194 4.28-6.105 2.046-4.912-2.227z" class="B C"/><path d="M74.753 4.266c-.913-.241-2.049-.355-3.013-.357-1.165-.002-2.026.439-3.1.542-.704.067-.93.055-1.535.326-.476.214-.86.49-1.44.397l9.088 2.756V4.345c-.081-.031.079-.058 0-.079z" class="B C"/><path d="M8.555 5.513L8.413 1.55c-.511-.605-2.022.098-2.528.418-.784.497-1.619 1.454-2.238 2.129-.781.851-1.56 1.986-2.458 2.701-.378.301-.796.37-1.187.607v1.158l2.903.133 5.651-3.182z" class="B C"/></g><path d="M74.754 5.849c-.929.047-1.873.192-2.771.052-.579-.09-.997-.267-1.631-.277-.775-.012-1.419-.226-2.169-.276-1.247-.083-2.93-.819-4.055-1.46-.303-.173-.435-.476-.794-.598-.337-.115-.785.113-1.109-.012-.439-.169-.753-.65-1.256-.902s-1.098-.437-1.605-.745c-.476-.289-.818-.928-1.278-1.16-.432-.218-1.307-.16-1.722.043-.224.11-.262.477-.467.604-.136.084-.541-.023-.712.031-.53.17-1.126.564-1.54.993-.655.681-.684.851-1.698.863-1.788.022-1.364.861-2.449 2.047-.6.655-1.23.481-2.189.481h-1.502c-1.446 0-1.949-.309-3.177-.88-1.194-.555-2.143-1.195-3.217-1.914-.536-.359-1.213-.509-1.811-.798-.586-.284-1-.654-1.56-1.015-.806-.521-1.715-.967-2.7-.887-.019.703.105 1.562-.111 2.238-.368 1.156-.952 1.089-2.003 1.089-1.039 0-1.897-.012-2.865-.339-.793-.268-1.091-.794-1.799-1.11-2.398-1.074-2.811 1.11-3.635 2.684-.759 1.451-1.171.298-2.219-.069-.58-.203-1.337-.023-1.919-.328-.432-.227-.487-.522-.994-.656-.49-.13-.875.105-1.228.23-.907.322-.957.588-1.386 1.404-.358.681-.651 1.042-1.469.873-.774-.16-1.725-.83-2.234-1.418-.218-.252-.664-.781-.8-1.027-.193-.348-.176-.617-.429-.898-.156-.173-.358-.454-.579-.542-1.123-.447-1.754-1.415-2.286-.251-.524 1.146-1.266 2.472-2.229 3.289-.473.402-1.042.794-1.449 1.269-.266.311-.55.957-.824 1.178-.551.445-1.807.573-2.888.598v23.469h74.753V5.849z" fill="url(#C)" class="B C"/><g fill="url(#D)"><path d="M5.358 7.175c-.173.078.609.161.821.206a.18.18 0 0 1 .047.019c-.205-.156-.457-.272-.695-.302 0 0 0 0-.173.078z" class="B C"/><path d="M6.226 7.399l.082.067c-.027-.029-.054-.052-.082-.067z" class="B C"/></g><path d="M74.754 24.97c-.177-.5-.596-.946-1.083-1.098l-30.762-7.14c-.553-.063-.797-.454-1.174-.542-.235-.055-1.559-.253-1.542-.361.01-.065 2.449-1.832 2.557-1.893.289-.163.803-.369 1.142-.457s1.169-.176 1.844-.196l.651-.019 2.451-.145 1.162-.103 2.432-.324.14-.025 2.407-.487 1.031-.234c.659-.149 1.712-.473 2.341-.719l1.916-.75c.629-.246 1.329-.581 1.555-.744a4.06 4.06 0 0 1 1.073-.48c.364-.1 1.166-.111 1.782-.023s1.417.026 1.781-.137.323-.225-.091-.137-1.175.088-1.69 0-1.214-.119-1.553-.069-.432-.135-.206-.411.915-.554 1.531-.617 1.304-.34 1.53-.617.185-.318-.091-.091-1.016.401-1.645.388-1.348.316-1.599.731-.642.929-.868 1.142-.928.583-1.561.821l-1.95.734-2.335.753-1.009.273c-.652.176-.774.092-.774.092l-1.687.296a15.83 15.83 0 0 1-2.417.369l-.7.04c-.674.039-.876-.083-.45-.271s1.281-.425 1.896-.525 1.602-.45 2.193-.777 1.392-.707 1.782-.845.834-.58.947-.744.676-.235 1.291-.399 1.222-.492 1.348-.731.701-.568 1.279-.731.557-.235-.046-.16-1.23.363-1.394.64-.729.616-1.256.754-.949.118-.937-.046.239-.492.502-.731.223-.269-.091-.069-.664.643-.777.982-.514.74-.891.891-1.166.547-1.753.881l-.195.111c-.587.334-1.458.658-1.936.721s-.745-.009-.594-.16.675-.469 1.165-.708a12.46 12.46 0 0 0 1.576-.937l.982-.708c.163-.113.133-.216-.069-.228s-.407.013-.456.057l-.754.662a8.16 8.16 0 0 1-1.508.994c-.465.226-.997.706-1.562 1.045s-1.307.819-1.97.949l-2.595.282c-.663.13-1.015.026-1.65.256l-1.05.522c-.635.23-2.888 1.894-3.554 1.782l-1.51.155c-.666-.113-1.436-.404-2.077-.329s-1.194-.301-1.445-.452c-.129-.078-.753-.71-.632-.813.114-.097 2.637-.903 2.924-.977l1.782-.389c.389-.063 1.006-.258 1.37-.434s.94-.32 1.279-.32 1.079-.165 1.644-.365a28.34 28.34 0 0 1 2.22-.66l1.316-.325 2.357-.569c.641-.151 2.432-.321 2.696-.434s1.008-.367 1.654-.565l1.534-.469c.646-.198 1.066-.358 1.23-.546.093-.108.29-.554.657-.743.276-.143.702-.034.955-.12.59-.201 1.341-.715 1.667-1.142s.892-.818 1.256-.868.323-.122-.091-.16-1.021.312-1.348.777-.913.969-1.302 1.119-.667.12-.617-.069.307-.507.571-.708.428-.561.366-.8-.249-.817.402-.776c.915.057 1.891-.596 2.042-.96s.048-.436-.228-.16-.749.585-1.051.685-.291-.043.023-.32a2.69 2.69 0 0 0 .731-1.188c.088-.377.057-.613-.069-.525s-.27.386-.32.662-.307.646-.571.822-.459.073-.434-.229l.091-1.005c.025-.251-.016-.303-.091-.114a2.87 2.87 0 0 0-.16.754c-.013.226-.084.504-.16.617s.311.402.311.502-.571.254-.722.48-.202.565-.114.754-.046.486-.297.662-.508.474-.571.662-.227.343-.365.343-.457.288-.708.64-.991.781-1.644.955l-.55.146-2.215.567c-.565.138-.771.087-.457-.114s.931-.785 1.37-1.298l.32-.373c.255-.298.646-.77 1.045-1.07.288-.217.58-.284.828-.411.59-.301 1.115-.908 1.165-1.348s.482-.954.959-1.142.889-.538.914-.777.159-.691.297-1.005.087-.324-.114-.023-.396.713-.434.914-.377.489-.754.64-.562.12-.411-.069.212-.425.137-.525-.137-.244-.137-.32-.072-.096-.16-.046-.098.184-.023.297.034.267-.091.343.004.607-.071.833-.462.455-.5.857-.418.885-.845 1.073-.819.251-.781-.088-.172-.528-.072-.716a5.89 5.89 0 0 1 .693-.84c.063-.038.114-.223.114-.411s-.049-.226-.108-.083l-.114.274c-.003.008-.088.056-.189.106s-.214.215-.251.365-.13.254-.205.229-.137-.087-.137-.137-.092-.174-.205-.274-.165-.101-.114 0 .06.245.023.32.014.301.114.502.183.581.183.845-.072.51-.16.548-.497.507-.909 1.042l-.33.429c-.412.535-1.047 1.138-1.411 1.339s-1.043.458-1.508.571-.547-.164-.183-.617.879-.905 1.142-1.005.593-.357.731-.571.395-.45.571-.525.423-.291.548-.48.198-.569.16-.845-.099-.297-.137-.046-.171.59-.297.754a2.45 2.45 0 0 1-.571.503c-.188.113-.445.37-.571.571s-.423.407-.662.457-.496-.042-.571-.206-.055-.389.046-.503.008-.349-.206-.525-.275-.186-.137-.023.179.338.091.388-.16.184-.16.297.221.445.296.596-.057.417-.233.681a6.66 6.66 0 0 1-.968 1.057c-.327.277-1.091.498-1.631.636l-2.175.543-1.542.377c-.657.16-1.46.312-1.787.337s-.985.22-1.462.434-1.094.357-1.37.32-.698-.192-.937-.343c-.119-.075-.606-.198-.502-.335s.797-.287 1.073-.419c.346-.165.801-.359.836-.519.021-.096-.266-.179-.38-.235-.178-.089-.822-.222-.724-.355.068-.092.813-.185.998-.262.452-.188 1.318-.582 1.757-.896s.621-.928.734-1.129.941-.364 1.218-.376.487.191.927.254.945-.019 1.133-.056.814.003 1.38-.035 1.11-.284 1.211-.548-.023-.274-.274-.023-.806.426-1.233.388-1.087.06-.886-.015.943-.461 1.069-.625-.101-.122-.502.091l-1.051.571c-.176.101-.556.09-.845-.023s-.759-.14-.658-.266.136-.346.412-.358 1.174-.228 1.274-.404.08-.217-.046-.091-.414.228-.639.228-.504.041-.617.091-.206-.022-.206-.16.062-.416.137-.617.014-.201-.137 0-.264.499-.252.662-.039.4-.114.525-.322.249-.548.274-.535.107-.685.183-.325.322-.388.548-.361.576-.662.777-.518.17-.48-.068-.186-.925-.497-1.524l-.148-.287c-.311-.6-.555-1.244-.543-1.433s-.193-.476-.457-.64-.503-.226-.528-.377.018-.664.094-.903.044-.598-.069-.8-.165-.191-.114.023.03.532-.046.708-.322.155-.548-.046-.442-.52-.48-.708-.264-.569-.503-.845-.29-.266-.114.023.34.721.365.959.521.656.823.907.309.554.297.692.193.364.457.503.547.242.572.418.163.781.364 1.158l.685 1.302c.176.339.248.761.16.936s-.18.196-.205.046-.354-.696-.731-1.211-.901-1.039-1.165-1.165l-.891-.411c-.226-.101-.37-.389-.32-.64s.071-.673.046-.936-.077-.325-.114-.137l-.091.548c-.013.113-.29.175-.617.137s-.707-.192-.845-.343-.498-.346-.8-.434-.343-.057-.091.069.549.341.663.48.01.241-.228.228-.763-.126-1.165-.251-1.008-.208-1.348-.183-.329.066.023.091a5.24 5.24 0 0 1 1.279.297c.352.138.938.272 1.302.297l1.256.046c.327 0 .577.179.451.38s-.581.361-.908.374-.656-.029-.731-.091-.25-.114-.388-.114-.2.021-.137.046.186.149.274.274.505.115.744.103.356.039.444-.011.273-.091.411-.091.447.041.685.091a4.75 4.75 0 0 1 .937.343c.276.138.801.683 1.165 1.211s.632 1.114.594 1.302-.346.435-.685.548-.812.206-1.051.206a.76.76 0 0 1-.617-.342c-.1-.189-.337-.353-.526-.365s-.363-.136-.388-.274.098-.395.274-.571-.019-.443-.434-.594-.754-.336-.754-.411-.082-.065-.183.023.136.283.526.434.574.367.411.48a.81.81 0 0 1-.662.069c-.201-.075-.407-.045-.457.069s.684.153.973.216.028.331.078.469.256.272.457.297.365.19.365.366.288.351.64.388a1.36 1.36 0 0 1 .753.289c.226.163.949.197.806.305s-1.283.399-1.773.663-1.003.448-.014.685c.363.087.599.29.548.365s-.629.265-1.286.422l-.672.16c-.657.157-1.38.378-1.606.491s-.565.123-.754.023-.733-.203-1.211-.228-.837-.19-.799-.366-.473-.431-1.134-.568l-.473-.097c-.661-.137-1.203-.351-1.203-.477s-.226-.321-.502-.434-.4-.237-.274-.274.362-.192.526-.343.821-.387 1.462-.525l2.147-.457c.54-.113 1.502-.265 1.125-.277s-1.648.201-1.648.125-.04-.394-.253-.419-.656-.149-.982-.274-.717-.362-.868-.525-.275-.449-.365-.594c-.397-.641.227-.544.617-.845s.708-.682.708-.845.041-.646.091-1.074-.011-.417-.137.023-.229.913-.229 1.051-.277.447-.617.685-.668.331-.731.206-.032-.28.069-.343.203-.433.228-.822-.006-.76-.069-.822-.145-.289-.183-.503-.223-.429-.411-.48-.353-.225-.366-.388a.98.98 0 0 0-.251-.525c-.126-.126-.177-.105-.114.046s.104.326.091.388.018.217.069.343.215.269.366.32a.66.66 0 0 1 .365.388c.05.163.03.307-.046.32s-.24-.08-.365-.206a1.31 1.31 0 0 0-.571-.297c-.188-.038-.476-.161-.639-.274s-.215-.308-.114-.434.244-.496.32-.822.055-.687-.046-.8-.162-.123-.137-.023-.001.635-.051.936-.405.111-.555.036.044.126.195.239.13.308-.046.434-.196.342-.046.48.49.313.754.388.613.24.777.365.42.228.571.228.264.288.251.64-.084.66-.16.685-.168.138-.206.251.044.442.183.731.251.566.251.617-.195.06-.434.023-.434-.233-.434-.434-.062-.509-.137-.685-.199-.649-.274-1.051-.137-.546-.137-.32-.123.36-.274.297.077.069.24.283.102.293.09.394.027.465.127.603.162.375.137.525-.169.243-.32.206-.428-.243-.617-.457-.425-.44-.525-.502-.275-.32-.388-.571-.293-.598-.331-.824-.136-.348-.161-.197.197.537 0 .519c-.103-.009-.657-.158-1.084-.184s-.972-.148-1.211-.274-.352-.156-.251-.069a2.3 2.3 0 0 1 .297.32c.063.088.392.191.731.228l1.028.114c.226.025.467.039.58.114s.242.267.242.342-.062.086-.137.023-.435-.124-.799-.137l-1.302-.091c-.352-.038-.372.024-.046.137a4.61 4.61 0 0 0 1.256.206c.365 0 .765.123.891.274a1.33 1.33 0 0 0 .525.365c.163.05.441.256.617.457s.71.448 1.188.548 1.105.316 1.393.48.793.379 1.119.48.635.234.685.297-.125.176-.388.251-.798.168-1.188.206-1.037-.055-1.439-.206-.978-.449-1.279-.662-.785-.47-1.073-.571l-1.096-.388c-.314-.113-.951-.504-1.416-.868-.265-.207-.741-.221-1.078-.457-.255-.178-.377-.589-.567-.708-.44-.277-.501-.256-.137.046s.385.538.046.525-.791-.156-1.005-.32-.44-.4-.502-.525-.011-.341.114-.48.208-.364.183-.503-.148-.097-.274.091l-.343.571c-.063.126-.268.105-.457-.046a1.09 1.09 0 0 1-.343-.754c0-.264-.123-.593-.274-.731s-.182-.118-.069.046.185.523.16.8.109.616.297.754c.728.244-.472.333-.186.387s.497-.097.824.054.673.453.824.591.531.372 1.096.384a3.74 3.74 0 0 1 1.827.617 7.89 7.89 0 0 0 1.69.914c.49.176 1.107.494 1.37.708s.839.522 1.279.685.676.359.526.434-.408.24-.571.365-.636.054-1.051-.16-1.299-.399-1.964-.411-1.622-.269-2.124-.571-1.037-.702-1.188-.891-.439-.456-.64-.594-.448-.405-.548-.594-.685-.572-1.299-.854c0 0-.033-.015-.117-.037s.926.613 1.051.731.233.402.183.411-.505-.012-1.005-.197-.68-.708-.808-.762-1.341-.235-1.416-.243.055.118.214.197.808.064 1.096.274.267.56.594.685 1.16.251 1.462.365.397.119.594.274.916.94.837.928-1.105-.08-1.567-.197-.792-.367-1.051-.502-1.138-.491-1.279-.548-.074-.409-.137-.457-.331-.062-.503-.105-.706-.064-1.051-.091-1.375-.776-1.508-.762 1.064.864 1.508.959 1.097.084 1.188.183.178.313.091.32-.487.011-.868 0-1.249-.365-1.325-.365 1.061.556 1.279.548.588.026 1.142.046 2.115.893 2.604 1.051 1.016.147 1.599.183 1.701.717 1.96.788 1.451.036 1.968.08 1.131.637 1.37.777 1.193.487 1.142.594-.343.18-.228.274 2.035.479 2.056.548-.361.253-.274.365 1.131.231 1.188.425-.077.573-.06.671.502.388.914.471 1.454.616 1.339.731-1.354.097-1.873.077-1.794.181-2.253.046-.883-.617-1.219-.777-.684-.175-1.188-.337-.799-.13-1.251-.394-2.061-.614-2.358-.777-.384-.536-.731-.731-1.82-.36-2.239-.503-2.86-2.061-3.289-2.238-.932-.214-1.097-.306-.624-.699-1.051-.928-1.06-.165-1.142-.228.056-.408-.007-.528-.287-.466-.358-.477.197.423.183.64.014.482-.046.457-.334-.01-.411-.046-.191-.305-.371-.448-.931-.466-1.183-.648.215-2.415.183-2.65-.218-.195-.365-.32-.014-.27.183-.366.072-.379-.035-.513-1.093-1.039-1.198-1.04.947.987 1.005 1.142.121.31 0 .365-.219.106-.274.274.396.405.411.548.005 1.164-.123 1.142-.663-.282-.745-.228.745.43.731.685-.05.767-.004.981l.046.214 1.458.718-.084.052c-.084.053-3.053.106-3.578-.151L6.6 7.84c-.058-.132-.162-.261-.291-.374.149.16.276.494.447.641.219.188.537.322 1.114.37l4.614.183c.497.105 1.028.885 1.385 1.079s.662.051 1.037.245 2.903 2.099 3.381 2.284 1.565.262 2.01.457.575.737.868.822l1.188.365c.316.093.838.248.408.457s-1.691-.37-1.779-.366.858.622 1.325.64 1.037-.089 1.645 0 1.453.233 1.827.365.808.62 1.279.868 1.033.218 1.873.183 2.432.114 2.432.114c.673.063.681.222.018.354l-1.903 1.257c-.663.132-14.592 2.21-15.174 2.552L1.664 27.773a2.39 2.39 0 0 0-1.058 1.851v3.83h74.149V24.97z" fill="url(#E)" class="B C"/><path d="M68.36 11.427c-1.285-.288-2.591-.753-3.962-.433-.582.136-.909.441-1.545.501-.749.072-1.535-.016-2.289 0-2.674.055-5.24 1.278-7.762 2.303-1.256.511-2.508 1.326-3.859 1.45l-3.762.221c-1.223 0-2.187.099-3.266.502-.477.178-1.052.297-1.444.627-.428.36-.62 1.008-1.084 1.219l1.716.451c.52-.117 1.298.26 1.532.597-1.093.839-1.792.724-2.977 1.299-.42.204-1.148.663-1.011 1.337.105.519 1.033.319 1.463.56 1.393.782 2.333.879 3.612 1.806.765.554 1.68 1.503 3.031 1.933s2.831 4.291 3.766 4.544 1.411-1.709 4.022-1.709c.834 0 1.563.074 2.357.19 1.343.197 2.58.798 3.938.898 2.085.153 4.289-.095 6.39-.095l7.528-.284V13.491l-6.394-2.064z" fill="url(#F)" class="B C"/><path d="M22.805 22.462c.203-.048.757-.103 1.435.271.346.19.726.765 1.107.947.264.126 1.228-.118 1.664.025.753.247 1.438.791 1.896.896.886.204 2.005.145 2.902.31 1.368.251 2.205.689 3.714.619.571-.026 1.179.171 1.385-.07.3-.351.021-1.096-.185-1.51-.348-.696-1.941-.995-3.083-1.415-.635-.234-1.866-.173-1.216-1.056.381-.518 1.1-.928 1.731-1.069.355-.079 1.073-.108 1.173-.469.028-.101-.454-1.036-1.093-1.405-.572-.33-1.024-.206-1.597-.491-1.399-.694-2.54-.886-3.005-.906-1.171-.049-2.827.225-3.873-.384-1.087-.633-2.379-.626-3.718-.686-2.6-.117-3.951-.44-6.426-1.365-1.338-.5-2.347-.998-3.831-.996-1.706.002-3.593-.195-5.202.181-1.397.326-2.697 1.304-4.15 1.445a15.3 15.3 0 0 1-2.431.044v16.488c.754-.017 1.568.084 2.237.085 1.797.002 3.553-.257 5.316-.614 1.97-.399 3.959-.012 5.943-.197 3.762-.35 15.539 1.171 18.968-.387.901-.41 1.596-2.293 2.743-2.62.679-.194 1.384-.361 1.439-1.42.052-.983-1.503-.674-2.207-.75-1.482-.159-1.903-.584-3.405-.651-1.565-.07-2.22-.473-3.637.071-1.305.501-1.741-.194-3.25.232s-4.555.464-4.806.271-1.644-.277-1.621-.424c.765-.162 1.638.35 2.448.347.939-.003 1.858-.068 2.779-.206.909-.136 1.896-.563 2.722-.374s1.767.116 2.267-.506c-.751-1.045-2.474-.593-3.361-.686s-3.142.509-4.148.166c.465-.041.959.039 1.399-.107-.466-.488-1.367-.553-1.761-1.076.9.258 1.515.866 2.394.957.286.03.681-.102 1.073-.133.81-.065 1.604-.106 1.38-.239-.126-.074-.5-.614-.902-.802-.663-.31-1.397-.298-1.206-.343z" fill="url(#G)" class="B C"/><path d="M52.354 29.341c-.687.106-1.168-.286-1.168-.286s-.275.313-.718.301-.69-.274-.69-.274-.352.258-.686.285-.724-.313-.724-.313-.222.285-.666.307-.724-.291-.724-.291-.362.243-.668.297-.742-.303-.742-.303-.215.202-.599.292c-.38.084-.811-.28-.811-.28s-.308.237-.668.291-.737-.303-.737-.303-.306.265-.68.303-.73-.303-.73-.303-.264.257-.672.297-.724-.291-.724-.291-.352.237-.666.291-.732-.285-.732-.285-.31.28-.672.297-.744-.297-.744-.297-.256.28-.682.291-.708-.303-.708-.303-.306.235-.654.297-.766-.291-.766-.291-.288.264-.68.291-.702-.285-.702-.285-.195.169-.217.169-.047.095-.449.122-.736-.27-.736-.27l-.634.319v4.038h21.445v-4.113z" fill="url(#H)" class="B C"/><path d="M74.753 22.933c-1.063.156-2.425-.108-3.332.164-1.763.528-5.713 1.968-6.846 1.965-1.834-.004-2.747.355-4.189 1.502-.958.761-1.557.454-2.664.668-.766.148-1.836.409-2.62.409-1.308.001-3.384.841-4.648 1.093-1.586.316-2.393 2.51-4.194 2.96-1.619.405-4.324.677-6.018.614-2.415-.09-2.691-1.376-4.916-2.219-1.374-.52-1.454-.977-2.921-1.097-1.912-.157-4.91-.594-6.882-.368-1.543.177-3.153.398-4.775.091-2.008-.38-3.877.084-5.938-.089l-7.209-.248c-1.568-.013-2.446-.689-3.866-1.013-1.032-.235-2.545.142-3.735-.014v8.56h74.753V22.933z" fill="url(#I)" class="B C"/></g></symbol></svg>