<svg xmlns="http://www.w3.org/2000/svg" xmlns:xlink="http://www.w3.org/1999/xlink" viewBox="0 0 76 40" fill="#fff" fill-rule="evenodd" stroke="#000" stroke-linecap="round" stroke-linejoin="round"><use xlink:href="#M" x=".5" y=".5"/><defs><linearGradient id="A" y2="0.00%" x2="50.00%" y1="100.00%" x1="50.00%"><stop stop-color="#9fc3d6" offset="0%"/><stop stop-color="#4790b1" offset="100%"/></linearGradient><linearGradient id="B" y2="100.01%" x2="42.86%" y1="0.03%" x1="42.86%"><stop stop-color="#94bcd1" offset="0%"/><stop stop-color="#6ea5c0" offset="29.3%"/><stop stop-color="#5094b4" offset="57.9%"/><stop stop-color="#3a8bac" offset="82.4%"/><stop stop-color="#3088aa" offset="100%"/></linearGradient><linearGradient id="C" y2="100.01%" x2="50.00%" y1="-0.01%" x1="50.00%"><stop stop-color="#94bcd1" offset="0%"/><stop stop-color="#6ea5c0" offset="29.3%"/><stop stop-color="#5094b4" offset="57.9%"/><stop stop-color="#3a8bac" offset="82.4%"/><stop stop-color="#3088aa" offset="100%"/></linearGradient><linearGradient id="D" x1="50.00%" y1="100.00%" x2="50.00%" y2="0.00%"><stop offset="0%" stop-color="#d7c39a"/><stop offset="100%" stop-color="#aa8d6b"/></linearGradient><linearGradient id="E" y2="50.01%" x2="100.00%" y1="50.01%" x1="0.00%"><stop stop-color="#7faa7f" offset="0%"/><stop stop-color="#749670" offset="100%"/></linearGradient><linearGradient id="F" y2="49.99%" x2="99.99%" y1="49.99%" x1="-0.00%"><stop stop-color="#7faa7f" offset="0%"/><stop stop-color="#749670" offset="100%"/></linearGradient><linearGradient id="G" y2="50.00%" x2="99.99%" y1="50.00%" x1="-0.00%"><stop stop-color="#7faa7f" offset="0%"/><stop stop-color="#749670" offset="100%"/></linearGradient><linearGradient id="H" y2="50.02%" x2="100.05%" y1="50.02%" x1="-0.02%"><stop stop-color="#7faa7f" offset="0%"/><stop stop-color="#749670" offset="100%"/></linearGradient><linearGradient id="I" y2="49.98%" x2="100.06%" y1="49.98%" x1="0.07%"><stop stop-color="#7faa7f" offset="0%"/><stop stop-color="#749670" offset="100%"/></linearGradient><linearGradient id="J" y2="50.00%" x2="99.98%" y1="50.00%" x1="0.00%"><stop stop-color="#7faa7f" offset="0%"/><stop stop-color="#749670" offset="100%"/></linearGradient><linearGradient id="K" y2="100.00%" x2="50.00%" y1="0.00%" x1="50.00%"><stop stop-color="#d7c39a" offset="0%"/><stop stop-color="#aa8d6b" offset="100%"/></linearGradient><path id="L" d="M31.256 31.512c.884.121 3.627-.304 3.962-.547l1.28-.942c.335-.182 1.402-.364 1.92-.607s1.128-.79.975-.911-1.493.061-2.53.182l-3.962.516c-.579.152-1.524.82-1.89.911s-.61.243-.975.334-1.128.395-.975.668 1.312.273 2.195.394zm-8.812-2.437a2.39 2.39 0 0 1-.557.138c-.196.024-.402.011-.577.079-.153.06-.311.089-.456.169-.076.042-.145.113-.211.163-.051.039-.28.103-.207.118s.442.006.517-.009l.209-.035c.054-.002.079.015.124.021.082.01.184.01.257.018.18.02.376.006.545-.019.344-.051.681-.143 1.003-.275l.849-.3.501-.105c.128-.032.399-.025.424-.213-.041-.032-.076-.026-.123-.03-.191-.018-.436-.026-.626 0l-.556.069c-.365.078-.755.073-1.113.212zm31.143-16.394c-.121.036-.457.219-.611.447-.06.088-.13.254-.072.364.066.125.271.086.398.129s.235.096.366.112c.231.029.264-.069.333-.244.066-.169.06-.239.042-.413-.013-.119-.003-.349-.09-.433-.034-.01-.246.001-.367.037zm-3.09 4.131h-.244c-.402.05-.455.584-.234.84l.325.364c.096.134.178.249.346.304.374.122.719-.04 1.025-.222.274-.164.717-.317.522-.711-.169-.044-.316-.059-.48-.089s-.32-.074-.49-.122c-.238-.066-.48-.429-.768-.363zM35.95 18.717c.11.037.525-.03.691 0s.699.086.944.112c.34.037.614.077.928.219.14-.137-.015-.583-.092-.728a1.91 1.91 0 0 0-.431-.461c-.14-.099-.253-.296-.292-.26s-.025.164-.073.235a2.16 2.16 0 0 1-.261.307c-.111.098-.388.225-.529.283-.306.127-.993.255-.883.293zm10.12-2.072c-.047-.011-.162-.069-.2-.05s-.05.046-.08.068c-.049.035-.097.036-.14.062a1.22 1.22 0 0 0-.206.169c-.116.116-.202.256-.293.382-.039.054-.099.111-.126.174-.047.111.009.121.114.149.19.05.313-.087.481-.136.192-.055.408-.039.601-.075.165-.031.383-.07.52-.175.298-.229-.359-.586-.544-.593-.049-.002-.078.036-.126.024zm8.948-5.168c.075-.146.044-.177-.14-.203a3.65 3.65 0 0 0-.479-.032c-.128.002-.252.057-.323.065-.133.016-.244.009-.365.04-.217.055-.486.035-.693.116l-.7.237c-.19.055-.408.194-.601.212l-.569.202c-.146.098-.524.223-.571.443-.065.301.492.327.65.368.333.085.545.018.813-.172.286-.203.416-.369.774-.396a1.94 1.94 0 0 0 .783-.232c.261-.134.544-.185.811-.286.227-.086.486-.124.61-.364zm.804 10.318c.021.264.17.203.407.202a1.25 1.25 0 0 1 .518.091c.166.068.311.171.489.201.108.018.083.028.181-.039.035-.024.157-.129.156-.172-.002-.079-.331-.293-.399-.335-.152-.093-.333-.125-.499-.183-.154-.053-.351-.078-.506-.133s-.37-.245-.388-.2.04.151.052.242c.012.102-.021.205-.012.323zm-25.715-9.567c.017.079.093.171.124.241.091.203.263.356.406.53.111.134.277.261.405.412.119.141.241.293.386.416.324.274.707.327 1.076.467.486.184.923.518 1.411.738.269.121.452.326.683.496s.431.296.701.384c.294.095.564.121.822.294.242.162.479.239.732.355l.723.292c.215.088.495.405.73.406s.406.283.406.283c.068.064.107.236.153.334.054.116.066.302.139.395.165.207.513-.266.642-.414.205-.234.476-.325.724-.486l.649-.449c.456-.294.955-.508 1.463-.727.569-.245 1.23-.245 1.839-.314l1.86-.292c.306-.034.65-.136.953-.184.327-.053.612-.093.925-.201l.894-.334a1.42 1.42 0 0 0 .64-.416c.215-.219.338-.435.295-.758a.71.71 0 0 0-.132-.353c-.109-.152-.187-.154-.348-.222-.11-.046-.209-.117-.332-.153-.15-.044-.302-.068-.44-.131-.249-.114-.456-.278-.699-.397-.212-.104-.385-.527-.152-.719.201-.166.58-.14.834-.181.143-.024.289-.096.456-.072.141.02.194.055.437.073s.426-.103.701-.225.701-.82.366-.729-.853.346-1.097.355-.601-.095-.66-.396c-.069-.351.445-.213.662-.323.154-.078.325-.17.435-.305.154-.191.138-.448.042-.509s-.21-.06-.326-.12a1.32 1.32 0 0 0-.395-.133c-.29-.031-.623-.015-.866-.191-.177-.129-.366-.048-.59-.059-.406-.021-.538-.003-.791-.102-1.032-.4-.225-.128-1.851-.343l-1.177-.123c-.321.041-.674.088-.945-.091-.283-.187-.764-.129-1.097-.213-.607-.152-.875-.072-1.524-.152l-1.128-.122-.884-.182c.031-.018-.738.08-.77.245-.055.281-.332.515-.571.646s-.489.188-.734.281l-.772.326-1.583.606-.53.163c-.139.035-.284.034-.436.051-.301.034-.571.094-.861.195-.537.187-1.349.391-1.579.574s-.286.339-.364.527c-.088.211-.124.44-.099.648.015.123-.009.263.018.385zm27.42 11.27c.137.019.247-.029.367-.044.134-.016.274.017.408.002s.282-.065.358-.13.424-.323.407-.511c-.126-.041-.497-.253-.807-.13-.166.081-.221-.087-.325 0s-.236.108-.365.163a.95.95 0 0 0-.319.249c-.048.07-.082.165-.04.27.106.03.208.117.315.131zM38.199 3.251c-.264.006-.519.049-.92.149s-1.124.032-1.534.122-2.072.251-2.072.251l-4.031-.006s-.935.202-.951.336.04.211.205.319.248.128.349.152c.162.039.325.029.488.049.305.036.588.159.856.314.225.131.42.292.658.406.277.133.51.198.803.253l.489.111c.167.047.311.028.489.048.286.034.478.119.77.203s.563.254.851.287c.158.018.324-.132.481-.115l.456.072c.633.096 1.431.407 2.072.405.332-.001.526.202.853.161s.686.001 1.016.001l1.016.05c.166.019.31.073.488.072.183-.001.316.034.489.082l.935.243.403.081c.177.045.348.015.531.037.299.037.623.071.935.042.276-.025.712.031.853.122s.44-.052.609.035l1.259.572c.219.084.42.163.643.211l.657.115c.461.098.913.266 1.375.412.44.139.894.174 1.35.277.308.069.61.066.892.2l.774.324.772.324c.254.118.513-.116.772-.04.271.079.57.132.844.253.255.113.374.359.588.506.113.078.227.129.347.181.1.043.24.081.334.153.287.221-.096.422-.323.447-.327.036-.526.072-.804.252-.222.144-.44.309-.611.526-.21.265-.173.537-.173.881 0 .167.021.338-.041.486-.05.119-.14.212-.213.314-.157.221-.252.483-.428.7-.215.264-.457.257-.732.372-.26.109-.536.347-.779.488-.15.087-.597.227-.62.427-.195.031-.293.377-.197.505.115.155.491.495.661.547l.61.162c.103.035.215.018.317.058s.184-.019.283.022c.13.054.207-.068.204.092-.001.05-.06.237-.088.274-.096.129-.344.228-.471.303-.193.113-.373.212-.529.36-.085.081-.155.171-.264.227-.063.033-.109.012-.193.009s-.537.096-.609.162-.112.217-.163.324c-.026.054-.075.112-.112.163-.042.058-.139.13-.163.17-.171.28.357.414.559.438.314.036.632-.127.906.028.113.064.234.154.345.224.129.081.229.107.367.161.564.219 1.288.045 1.878.194.277.07.575.105.853.202.313.109.565.276.894.366.552.15 1.058.447 1.542.74.267.161.579.255.858.351.271.094.545.235.81.334.584.217 1.058.637 1.627.875.289.121.553.305.843.424.275.112.556.273.822.426.675.387 1.213.605 1.91.95.353.175.751.236 1.066.344s1.994 1.235 2.726 1.556c.614.269 1.7.62 2.387.861L56.803 1.658l-8.787-.064c-.704-.038-2.554.149-2.554.149L39.41 3.163a39.78 39.78 0 0 1-1.209.083zM27.11 30.57c-.166.048-.298.093-.486.093s-.359-.003-.525.054l-.419.159c-.329.122-.68.077-1.007.213-.163.067-.305.116-.451.22-.092.066-.375.229-.28.266a2.29 2.29 0 0 0 .61.091l.244-.029c.074-.009.145-.05.212-.064.16-.034.329-.019.489-.061.131-.034.286-.06.427-.059.173.001.322-.041.488-.061.319-.039.568-.084.801-.327l.244-.241c.075-.083.296-.157.246-.282-.123.099-.45-.011-.592.031zm-1.857-4.28c-.163.404-.415.722-.755 1.01l-.464.418c-.083.076-.359.243-.244.455s1.117.119 1.341.03c.412-.165.916-.056 1.303-.311.076-.05.155-.119.245-.152.107-.04.251-.022.372-.022.282 0 .508-.016.733-.206.131-.111.25-.256.425-.281.203-.029.464.058.649-.021.163-.07.227-.236.364-.343s.375-.134.541-.152c.136-.015.559-.142.67-.182.167-.06.389-.152.58-.151.234.002.421.003.616-.115.128-.077.412-.213.475-.377s.316-.377.431-.45c.209-.133.446-.095.671-.151s.356-.142.541-.282c.098-.074.442-.278.535-.35.201-.156.41-.159.662-.159.265 0 .507-.032.762-.062.482-.058.941-.293 1.402-.431s.942-.278 1.34-.51c.385-.224.656-.598.998-.858.188-.143.4-.216.618-.304l.633-.242c.383-.15.802-.293 1.194-.39.083-.022.164-.054.24-.095.055-.03.122-.412-.146-.452-.1-.015-.208.018-.308.003-.09-.013-.208-.042-.305-.061-.163-.032-.398-.141-.541-.22-.096-.053-.348-.253-.439-.322s-.32-.219-.489-.302l-.578-.273c-.207-.085-.367-.174-.549-.274-.085-.047-.151-.077-.23-.136-.093-.07-.173-.153-.275-.214-.183-.109-.445-.152-.647-.202-.237-.059-.478-.118-.731-.123-.469-.01-.971-.148-1.432-.09-.243.03-.501.007-.732.06l-.701.145-1.31.304c-.101.035-.206.039-.306.067-.109.03-.225.092-.335.121l-.639.207c-.23.079-.46.122-.701.152l-.708.091c-.169.023-.329.047-.482.097-.159.053-.304.167-.456.237-.138.064-.301.137-.457.16-.093.014-.451-.035-.549-.032-.298.009-.597.194-.86.297-.136.053-.332.112-.481.13-.1.012-.373-.003-.549-.002a5.34 5.34 0 0 0-.853.182c-.084.03-.18.067-.244.121a.97.97 0 0 0-.207.25c-.107.212-.106.472-.029.692.156.443.129.879.296 1.307.092.234.275.439.275.698v.759c-.002.439-.021.893-.185 1.301zm2.845 3.203l.505-.119c.053-.012.112.004.164-.011.044-.013.085-.053.131-.07.087-.032.165-.043.249-.075s.184-.037.276-.067.181-.049.276-.076l.525-.149c.077-.026.25-.05.182-.163-.029-.048-.154-.085-.207-.094-.107-.017-.227.001-.327.027-.087.022-.184.025-.275.048-.103.026-.194.064-.3.077s-.201 0-.301.023c-.196.044-.399.012-.6.001l-.626-.025-.601.025c-.181.015-.356.087-.526.151-.175.066-.359.106-.532.192-.157.079-.289.173-.445.263-.161.092-.322.176-.5.237s-.354.055-.552.079a4.53 4.53 0 0 0-.524.1c-.192.047-.538.262-.472.271s.573.067.722.007.192-.02.276-.028l.3-.025c.186 0 .356-.036.526-.075l.501-.126c.162-.041.336-.038.501-.079.099-.025.196-.01.3-.02s.177-.061.275-.076.162-.022.25-.048.185-.039.276-.051c.11-.015.193-.02.301-.05l.256-.073zM52.09 26.13c-.484-.305-1.807-.885-1.997-.995s-.272-.379-.44-.414c-.182-.038-.289.195-.413.293-.296.235-.692-.03-1.053.165-.62.336-1.186.784-1.754 1.218-.573.439-.675.717-1.281 1.084-.33.199-1.034.525-1.385.643l-.559.173c-.214.048-.659.22-.832.358-.323.257-.507.426-.773.72-.25.276-.53.551-.82.758l-1.909 1.223c-.352.183-1.021.716-1.888.9-.243.052-.706-.004-.92.096-.376.177-.336.396-.588.741-.124.17-.39.876-.271.999l16.728-.116s.526-3.022.849-3.536 1.372-2.026 1.339-2.348-1.546-1.657-2.03-1.963zm-32.883 3.227c.318-.08.683-.277.985-.385.278-.099.478-.311.762-.407.537-.181 1.011-.507 1.547-.726.226-.092.448-.218.656-.366.09-.064.24-.146.309-.221.091-.099.158-.243.252-.357.366-.44.711-.813.844-1.377.081-.342-.175-.514-.275-.81-.077-.226.019-.591-.092-.921s-.305-1.156-.305-1.156l-.059-.708c-.022-.153-.102-.242-.041-.415.088-.309.746-.529.985-.647.118-.059.232 0 .355-.051.164-.067.276-.047.457-.069.296-.035.613-.136.894-.205.301-.074.848-.102 1.139-.202.563-.193 1.241-.135 1.777-.424.289-.155.698-.172 1.002-.174.339-.002.914-.256 1.227-.324.54-.117.797-.3 1.327-.499.128-.048.687-.234.826-.25.309-.034.589-.178.876-.249s.895.003 1.177-.125c.252-.114.959-.331 1.202-.424.23-.088.253-.293.175-.624-.071-.301-1.361-.577-1.592-.665-.263-.099-.532-.129-.795-.261-.221-.111-.532-.291-.617-.519-.052-.138-.43-.169-.425-.327.005-.177-1.116-.632-1.355-.777-.109-.066-.696-.217-.862-.232-.299-.028-.441-.513-.712-.613-.553-.205-.845-.665-1.152-1.123-.351-.524-.275-.649-.275-1.098s.195-.675.576-1.023 1.022-.504 1.534-.741c.302-.14.627-.185.947-.273.282-.078.567-.208.85-.285.29-.079.871-.44 1.189-.483.312-.041.669-.146.984-.235l.904-.272c.242-.089.556-.196.682-.454.176-.362-.012-.518-.369-.607-.601-.15-1.251-.128-1.867-.287-.603-.156-1.242-.201-1.869-.362-.308-.079-.634-.12-.936-.242-.253-.102-.444-.267-.678-.417-.268-.172-.528-.211-.824-.281l-.975-.277c-.283-.071-.553-.17-.822-.272l-.348-.139c-.058-.03-.111-.07-.171-.103s-.276-.212-.54-.413c-.165-.125-.25-.252-.266-.361-.013-.093-.031-.149.192-.34.182-.155.3-.196.61-.289.196-.059.517-.097.692-.132.384-.119.79.044.867.035.313-.039 2.615.167 3.07-.056s.814.009 1.455-.042c.336-.027 1.477-.254 1.853-.265 1.093-.032 1.016-.143 1.343-.195s1.607-.031 2.556-.321c.635-.194 3.683-.7 3.634-.724-.242-.119-8.503-.179-9.008-.24-1.287-.155-2.68-.054-2.964-.095s-.901-.007-1.219-.042c-.135-.015-5.752.067-12.42.173l-4.971 8.81L2.2 29.94c.541.276 1.007.595 1.066.659 0 0 .417.188.821.553s1.069.423 1.402.462c.251.029.81 0 1.029.111.154.078.246.109.419.153.152.038.817-.033.981-.015.31.035.742-.112 1.049-.149.156-.019.323.01.479-.007.146-.016.332-.053.499-.034.141.017.288.078.445.083.174.005.331-.01.486-.043.141-.03.276-.029.409-.078s.276-.143.414-.195c.24-.09.491-.211.732-.283.607-.182 1.295-.016 1.943-.089.27-.03.53-.162.781-.274.224-.1.525-.383.76-.417.313-.046.628-.105.937-.169.299-.062.535-.095.813-.234.511-.246.98-.468 1.543-.61zm38.859-5.467c-.292-.074-.633-.001-.914-.102-.233-.083-.402-.349-.489-.566-.074-.184-.072-.308-.314-.336-.172-.02-.328 0-.487-.04s-.266-.05-.398-.161c-.138-.116-.169-.238-.324-.08-.11.112-.104.249-.255.324-.105.052-.266.089-.487-.001s-.244.121-.244.121c.047.283.453.373.65.454.237.098.419.353.579.548.166.204.389.366.599.546s.522.224.762.325a1.4 1.4 0 0 0 .906.07c.265-.068.625-.147.763-.444.145-.309-.049-.583-.348-.659zm-24.738 8.535c-.093-.015-.181-.07-.272-.092-.133-.032-.263-.04-.398-.061-.052-.008-.103-.033-.152-.033-.062 0-.115.041-.185.034-.111-.01-.237-.032-.364-.032-.255 0-.519.005-.762.059a1.56 1.56 0 0 1-.366.032c-.141 0-.234.027-.366.061-.466.119-.972.062-1.463.122-.129.016-.246-.018-.366-.033-.13-.016-.267.019-.396.003-.236-.029-.502-.06-.731-.003-.109.027-.202.067-.304.092-.133.033-.261.021-.397.038-.251.031-.508.03-.762.061-.247.03-.507.023-.762.023-.262 0-.506.053-.762.061-.508.016-.99.075-1.493.091-.117.004-.237.043-.342.054-.132.014-.261.004-.389.037-.248.064-.507.184-.762.214-.125.015-.245 0-.366.027l-.396.094c-.248.055-.508.059-.762.09s-.518.001-.762.007-.793.176-1.219.236-1.158.395-1.158.395l15.487-.008s.002-.104.049-.182c.052-.088.148-.193.221-.266.148-.148.337-.209.497-.325a1.69 1.69 0 0 0 .426-.463c.043-.072.15-.179.108-.268-.055-.116-.23-.049-.329-.064zm6.959-5.503c.204-.052.481-.116.597-.155s.301-.204.399-.295.162-.205.226-.329.25-.421-.04-.724c-.087-.106-.151-.128-.075-.265.049-.088.119-.168.17-.254.064-.108.086-.219-.025-.299s-.192-.034-.306-.005c-.472.117-.961.114-1.447.181-.105.014-.201.002-.3.023-.089.018-.173.053-.256.071-.202.042-.388.052-.595.08-.395.055-.779-.027-1.177-.025-.201.001-.394-.024-.601.001-.107.013-.219-.009-.325.004-.098.012-.2.035-.3.044a1.65 1.65 0 0 0-.549.157c-.094.044-.181.063-.277.092-.088.027-.147.116-.255.147s-.27.113-.37.154c-.127.052-.258.075-.377.13-.267.122-.532.23-.8.318-.251.083-.476.228-.702.35l-.356.194c-.127.066-.241.155-.37.231-.334.197-.737.299-1.083.466s-.678.306-1.07.306c-.207 0-.401 0-.581.069-.163.062-.313.145-.469.23-.324.178-1.108.325-1.078.374s.406.11.576.1.532.023.776 0c.265-.025.514.002.776 0 .274-.002.572.052.851.05.258-.002.504.025.751.025.392 0 .773-.121 1.121-.255.342-.131.718-.219 1.082-.299.195-.043.41-.029.6-.07.177-.039.379-.049.557-.069.101-.012.217-.014.32-.006.093.008.16.038.25.05a1.36 1.36 0 0 0 .325-.005c.103-.013.191.009.295 0 .172-.015.354-.075.53-.096.192-.022.39-.044.578-.098.181-.052.358-.127.551-.174.186-.045.388-.074.574-.119a7.43 7.43 0 0 1 .651-.125c.206-.031.424-.034.626-.079.196-.042.409-.051.599-.099zm25.48 6.131c-.097-.125-.086-.174-.081-.295.009-.207.064-.173-.021-.364-.088-.2-.369-.254-.345-.445.035-.278.229-.472.04-.791-.145-.246-.31-.341-.518-.506-.219-.175-.438-.415-.407-.719.031-.312.128-.717-.052-1.003-.288-.459-.861-.863-1.411-.86-.332.002-.592.057-.893.122-.166.036-.26.02-.397.131-.093.075-.175.149-.264.223-.203.169-.306.462-.307.698-.002.302.331.451.511.659a1.11 1.11 0 0 1 .132.192c.052.107.008.114-.003.201-.016.13-.078.297-.01.416.074.129.265.15.287.324.014.114-.05.302-.102.407-.072.148-.16.235.018.364.095.069.246.06.307.18.046.093-.02.295.021.425a.59.59 0 0 0 .221.306c.218.175.371.303.438.576.038.155.128.739.362.713l2.727.218c-.011-.024.518-.23.496-.324-.027-.122-.296-.352-.363-.457s-.3-.288-.381-.391zm-3.899-6.977c.199-.154.289-.469.137-.669.181-.232.42-.095.634-.041.245.062.553.054.695-.183-.046-.107-.327-.133-.442-.181-.145-.061-.286-.146-.437-.184-.313-.077-.637-.171-.943-.313s-.605-.258-.883-.457c-.171-.122-.515-.45-.702-.515s-.71-.358-.772-.324-.123.128-.153.212c-.043.118.01.28.031.396.025.137.016.177.132.274.079.065.155.159.267.124.063-.126.086-.25.095-.392.084-.006.216.146.248.227.061.154-.043.239-.091.377-.104.299-.164.517-.419.758-.092.087-.172.194-.273.264-.117.082-.262.136-.367.231-.226.203-.316.427-.11.68.168.207.245.442.406.647.201.258.519.195.763.061.118-.065.217-.141.325-.214.118-.079.238-.118.367-.19.249-.139.496-.206.77-.295.244-.079.511-.13.72-.293zm10.418 3.998c-.569-.445-.955-.79-1.565-.992s-.772-.607-1.382-.891-1.138-.203-1.666-.689-1.396-.797-1.818-1.226a.85.85 0 0 0-.71-.241c-.323.051-.552.177-.886.091-.206-.053-.203.018-.376.111-.109.059-.256.073-.356.161-.251.222.113.542.255.729.167.221.21.514.366.729a2.34 2.34 0 0 0 .244.284c.078.078.133.171.282.245.319.175.318.502.317.737 0 .185-.008.327.091.484.088.138.202.183.308.295s.075.266.129.396c.061.149.167.205.292.274.137.075.236.11.348.222.085.085.132.25.295.274.417.108.569.445 1.056.81s.61 1.053 1.219 1.215 2.51.201 2.743-.364c.142-.344-.837-.449-.315-1.033.417-.466.843-.385 1.168-.628s.529-.547-.04-.994zm-29.245-4.649c.13.096.657.068.877-.03.056-.025.123-.072.181-.114.041-.03.098-.055.138-.087.054-.043.122-.077.177-.124a1.08 1.08 0 0 0 .125-.124c.047-.053.283-.287.226-.44-.124-.059-.23-.01-.347.039s-.209.046-.349.057c-.24.019-.473.033-.701.099-.121.035-.198.108-.299.177-.076.051-.195.089-.257.167s-.599.279-.545.33.645-.045.775.051zm1.86-4.978c.192.173.37.221.59.345.205.115.397.229.618.282l.815.191.69.172c.229.058.466.079.682.162.193.075.379.18.577.235l.317.089c.092.024.265.104.369.066.09-.224-.36-.316-.48-.357-.254-.087-.478-.212-.733-.286-.413-.119-.82-.229-1.217-.413-.199-.092-.368-.202-.568-.277-.209-.078-.441-.113-.651-.201-.19-.081-.422-.141-.603-.25-.163-.099-.325-.308-.536-.276 0 0-.258-.057-.244.041s.237.35.378.477zm-2.26 3.332c.214 0 .412-.027.626-.025.177.001.337-.064.47-.181.039-.034.099-.083.125-.125s.014-.058.03-.095c.012-.029.046-.041.053-.072.015-.065.018-.165.025-.224a.63.63 0 0 0-.028-.251c-.038-.137-.127-.276-.243-.374-.096-.081-.236-.174-.307-.274 0 0-.165-.156-.276-.175s-.725.054-1.076.05c-.304-.003-.634.155-.882.318-.265.175-.545.349-.814.511-.305.184-.832.547-.937.588s-.165.088-.228.122c-.089.049-.145.057-.243.081-.179.044-.338.118-.501.193-.075.034-.148.072-.219.113l-.106.062c-.073.04-.1.038-.176.056-.21.048-.408.159-.607.244-.059.026-.213.061-.24.13-.05.127.168.142.247.17.168.059.417.047.6.026s.388-.072.575-.095c.097-.012.203 0 .301.001.114 0 .213-.026.325-.025.405.004.814-.122 1.202-.219.204-.051.379-.111.577-.205.174-.082.34-.226.524-.276.364-.091.813-.043 1.204-.043zm11.841-1.255c.099-.042.132-.197.211-.276s.197-.122.264-.223c.061-.092.129-.203.175-.311.043-.1.212-.37.234-.373.069-.166-.483-.372-.612-.43-.235-.107-.527-.27-.772-.324-.138-.03-.381-.036-.519 0-.208.055-.145.153-.122.315.021.151.006.312-.05.444-.033.079-.111.155-.194.285s-.102.206-.081.324.049.219.233.295c.135.055.282.078.416.111.205.051.586.26.814.163zm-3.872 2.124c.183.213 1.25.669 1.463.79s.335.364.518.516.518.061.64.121-.148-.391-.206-.496-.084-.315-.176-.467-.806-.678-1.142-.799-1.646-.668-1.554-.395.275.515.457.728zm-.354-3.27c.263.115.527.19.773.334.241.141.45.3.7.435.239.129.526.288.649-.061l.274-.78c.048-.148.362-.629.247-.741-.084-.081-.38-.028-.49-.028h-.528c-.342 0-.66.006-.978-.07-.239-.057-.585-.147-.802-.305-.134-.097-.216-.3-.366-.362s-.225-.165-.331-.197c-.126-.039-.279-.045-.409-.079-.118-.03-.24-.046-.366-.082-.158-.045-.168-.095-.243-.244-.048-.097-.075-.232-.131-.322-.064-.104-.183-.128-.287-.19-.197-.119-.334-.297-.436-.497-.248-.489-.761-.419-1.176-.242-.204.087-.368.199-.49.404-.054.09-.122.178-.162.275s-.14.219-.171.325c-.235.07-.305.21-.57.138-.156-.043-.511-.167-.56-.252s-.3-.16-.244-.041.122.234.212.317c.082.076.245.178.357.241.223.126.53.267.77.295.33.037.597.064.895.161.279.091.449.272.693.434.095.064.191.157.291.204.171.081.322.012.477.006.271-.01.521.172.734.326.221.16.501.335.77.367.16.019.3-.005.447.038.161.049.297.127.45.194z"/></defs><symbol id="M" overflow="visible"><g stroke-linejoin="miter" fill-rule="nonzero" stroke-width=".075"><path d="M56.857 1.766H17.974l-4.866 8.624L.001 33.884v4.962h74.7v-5.062z" stroke="#414042" fill="url(#A)"/><g stroke="#3088aa"><path d="M.001 33.882v.002l.001-.003z" fill="url(#B)"/><path d="M73.497 33.84c-.261.007-.447-.138-.447-.138s-.252.16-.535.155c-.26-.004-.403-.155-.403-.155s-.263.148-.561.155-.388-.155-.388-.155-.262.165-.576.155-.406-.155-.406-.155-.182.181-.474.172-.431-.172-.431-.172-.145.148-.483.138-.39-.138-.39-.138-.195.171-.456.138-.428-.138-.428-.138-.162.151-.401.155-.427-.155-.427-.155-.358.21-.747.201l-2.617-.063c-.347.039-.571-.138-.571-.138s-.169.226-.491.201-.503-.201-.503-.201-.117.226-.414.201-.426-.201-.426-.201-.283.21-.536.201-.536-.201-.536-.201-.163.21-.447.201-.491-.201-.491-.201-.151.21-.414.201-.535-.201-.535-.201-.26.194-.491.201-.446-.201-.446-.201-.294.21-.536.201-.402-.201-.402-.201-.254.194-.446.201-.459-.201-.459-.201-.316.199-.519.194-.519-.194-.519-.194-.266.208-.459.201-.446-.201-.446-.201-.16.192-.402.201-.536-.201-.536-.201-.215.208-.446.201-16.46-.041-16.716 0-.447-.201-.447-.201-.185.208-.447.201-.491-.201-.491-.201-.067.192-.337.201-.491-.201-.491-.201-.241.23-.633.239-14.943-.029-15.266-.038-.457-.201-.457-.201-.25.21-.548.201-.503-.201-.503-.201-.249.21-.594.201-.548-.201-.548-.201-.31.242-.64.201-.639-.201-.639-.201-.178.21-.457.201-.64-.201-.64-.201-.241.21-.64.201-.64-.201-.64-.201-.187.194-.411.201-.594-.201-.594-.201-.056.162-.411.201-.457-.201-.457-.201-.172.226-.503.201-.64-.201-.64-.201-.244.226-.548.201-.686-.201-.686-.201-.29.21-.548.201-.549-.201-.549-.201-.167.21-.457.201-.502-.201-.502-.201-.279.21-.549.201-.548-.201-.548-.201-.266.194-.503.201-.457-.201-.457-.201-.301.21-.548.201-.411-.201-.411-.201-.26.194-.457.201-.594-.201-.594-.201-.181.126-.346.179L0 33.883v4.962h74.706v-4.97c-.424-.026-.713-.173-.713-.173s-.23.133-.492.14z" fill="url(#C)"/></g></g><use xlink:href="#L" stroke="none" fill="url(#D)" fill-rule="nonzero"/><g stroke="#414042" stroke-width=".075"><use xlink:href="#L" fill="none"/><g stroke-linejoin="miter" fill-rule="nonzero"><path d="M41.437 15.697c-.077-.049-.163-.079-.252-.1-.076-.018-.148-.053-.223-.075-.091-.027-.186-.041-.271-.08-.363-.166-.691-.409-1.107-.419-.183-.005-.393-.04-.557-.094s-.279-.201-.446-.255c-.183-.06-.35-.087-.544-.045-.188.041-.355-.01-.532-.054-.326-.082-.656-.206-.945-.381-.328-.199-.579-.416-.982-.293-.165.05-.289.17-.45.225-.185.063-.35.072-.551.049-.208-.024-.359-.104-.549-.175-.177-.066-.372-.056-.551-.13l-.326-.124c-.135-.04-.204-.034-.401-.044s-.667-.207-.676-.175c-.009.145.301.221.399.249.194.056.371.082.551.181.15.083.288.174.426.274.144.104.245.25.383.362.233.19.552.466.87.455.201-.007.418-.054.626-.025l.256.044.321.03c.181.034.281.219.326.373.049.169-.005.371.099.525.118.174.293.153.476.2a1.6 1.6 0 0 1 .508.217l.994.581c.363.193.745.256 1.152.299.186.02.411.015.595-.005.192-.021.335-.082.507-.188.267-.166.634-.498.796-.584s.044-.281.104-.37.207-.201.171-.32c-.082-.015-.127-.084-.196-.127z" fill="url(#E)"/><path d="M39.461 20.213c-.325-.125-.651-.299-.926-.424s-.15-.25-.476-.349a8.64 8.64 0 0 0-2.403-.374c-1.227-.025-3.78.898-4.506 1.098s-.948-.075-1.549.2-.616.496-1.267.645-1.64.453-1.941.702-.075.399-.501.524-.723.521-.573.845.2.328.326.976-.113 1.603.025 1.621c.199.027.52.025.723.025.211 0 .407-.041.6-.101s.376-.168.576-.224l1.177-.274c.207-.039.409-.05.626-.05.193 0 .421.015.595-.056.142-.058.242-.185.383-.242.07-.029.149-.087.223-.102.107-.021.218-.016.327-.029.051-.006.094-.021.15-.019s.105.027.15.027c.099 0 .217-.027.326-.027.096 0 .206.014.301.001s.184-.071.276-.101c.159-.051.285-.182.425-.274s.285-.181.451-.243c.21-.079.401-.081.626-.081.098 0 .204-.012.301-.001s.171.037.273 0c.158-.057.308-.162.447-.249.068-.042.135-.094.206-.125.096-.041.188-.044.294-.056l.607-.07c.209-.026.425.029.626.052.209.024.414.074.626.073.225 0 .391-.07.601-.12.106-.025.159-.021.257-.075a1.39 1.39 0 0 0 .237-.161c.087-.073.105-.162.176-.245l.2-.23c.183-.227.475-.319.726-.449.262-.135.524-.31.689-.562l.213-.31c.07-.123.08-.295.08-.444-.006-.003-.382-.602-.707-.726z" fill="url(#F)"/><path d="M49.293 13.333c-.148-.178-.378-.22-.595-.281-.13-.036-.467-.186-.58-.32s-.285-.213-.352-.328a1.97 1.97 0 0 1-.22-.499 2.01 2.01 0 0 0-.074-.231c-.047-.12-.018-.159.101-.193.193-.055.351-.025.55 0 .209.026.408-.141.501-.301.1-.172.082-.327.006-.504-.067-.158-.155-.345-.181-.518-.029-.195-.029-.412-.077-.597-.089-.351-.098-.39-.474-.579-.342-.172-.629-.145-1.008-.207-.188-.031-.352.039-.546.017-.085-.009-.182-.065-.274-.077-.104-.014-.22-.121-.325-.121-.176-.001-.394-.092-.52.034-.046.046-.09-.002-.125.053-.026.039-.039.084-.075.12s-.098.06-.111.118c-.069.016-.114-.272-.177-.241-.088.044-.176.053-.271.08-.148.041-.249.197-.33.324-.086.135-.151.345-.274.444-.146.117-.34.176-.496.256-.068.035-.151.068-.224.076l-.302.048-.601.074c-.105.012-.189.052-.3.051s-.217.001-.325 0c-.202-.002-.354.089-.531.119l-.794.107c-.143.017-.264-.027-.402-.026-.144.001-.278-.025-.426-.025h-.425c-.146 0-.267.034-.401.05s-.26.011-.4.025c-.134.013-.26.048-.397.079-.06.182.28.269.397.295.185.041.383.019.576.025.217.007.393.116.576.219a1.72 1.72 0 0 0 .576.186c.21.032.315-.034.494-.137.146-.085.302-.193.483-.193.409 0-.149.516-.225.699s-.125.399-.125.399c-.011.064.025.192.056.242.05.08.144.113.219.157s.108.068.15.15c.047.089.03.192.075.274.087.158.365.071.52.106.168.037.279.175.401.275.301.245.669.208 1.03.294.373.09.76.145 1.153.204l.6.12.627.049c.505-.003 1.03.065 1.526.126.099.012.205.007.3.018l.324.03c.226.022.459.047.678.101l.575.148c.101.026.197.034.3.049.111.017.207.063.326.051.24-.023.285-.239.207-.431-.084-.203-.232-.326-.365-.486z" fill="url(#G)"/><g fill="url(#E)"><path d="M39.867 12.098c-.132-.079-.247-.162-.402-.198-.078-.018-.166-.02-.256-.02-.095.001-.166-.04-.249-.051-.171-.024-.34-.031-.502-.092s-.289-.151-.451-.207-.361-.014-.525-.05c-.154-.034-.289-.094-.432-.169-.175-.092-.404-.046-.52-.03s-.381.096-.351.125.17.047.245.081l.237.112c.139.063.241.183.376.249.147.073.358.088.518.107.104.013.157.014.251.049.089.033.18.056.271.105l.431.249c.193.09.381.075.594.099l.582.044c.125.01.45.074.45-.125.002-.122-.173-.225-.267-.282z"/><path d="M28.626 12.845a1.48 1.48 0 0 0-.482-.168l-.3-.025-.281-.044c-.096-.01-.197-.006-.295-.006-.086 0-.342-.018-.351-.025 0 0-.298-.099-.361-.026s.078.202.261.224l.502.075c.122.03.301.084.374.201.049.079.056.131.007.207-.032.049-.119.127-.178.148-.27.146.108.247.297.269.182.021.329.125.525.125s.352-.053.52-.156c.179-.109.137-.247.038-.398-.096-.144-.112-.311-.275-.401z"/></g><g fill="url(#H)"><path d="M42.334 8.393c-.088-.054-.219-.034-.295-.056s-.15-.1-.15-.1c-.068-.011-.204.033-.27.055a.97.97 0 0 0-.238.112c-.118.087-.349.216-.314.377.309.153.676-.015.977-.065.084-.014.411-.034.422-.155.003-.038-.097-.146-.133-.168z"/><path d="M33.618 3.024c-.099-.179-.468-.207-.582-.241-.313-.095-.38-.238-.712-.235-.305.003-.571-.149-.852-.244a1.8 1.8 0 0 0-.852-.078l-.977.079c-.306.028-.67.011-.977.079-.535.118-1.05.555-1.664.398-.024-.017-.052-.028-.081-.031 0 0-.122-.064-.244-.041s-.299.15-.289.283c.012.144.305.229.41.244.313.044.475.074.787.072.32-.002.454.077.75 0 .134-.035.518-.093.651-.128.171-.045.563.003.73.039.321.069.599.07.928.098l.987.088c.307.042.541.187.856.122.271-.056 1.262-.028 1.493-.195.067-.05-.32-.228-.365-.309z"/></g><path d="M43.264 8.711s-.163-.017-.3.05-.575.139-.496.395c.123.059.273.009.395-.022.141-.036.298-.008.426-.073.097-.049.257-.114.301-.225.06-.152-.212-.125-.326-.125z" fill="url(#I)"/><path d="M60.437 8.188l-3.821-6.856-.215.026-.954.113c-.342.015-.677-.017-1.016 0-.355.018-.685.013-1.032-.088-.34-.099-.646-.142-.977-.166-.313-.022-.638-.013-.954-.003-.263.009-.516.059-.792.106-.333.056-1.623.702-1.954.703-.183.001-.361.049-.539.051-.159.002-.301.055-.454.061l-1.695.134c-.605.015-1.228.022-1.821-.006-.575-.027-1.114-.179-1.669-.198-.627-.021-1.242.037-1.875.121-.572.076-1.068.254-1.609.365-.589.121-1.117.915-1.689 1.06-.597.151-.547.24-1.16.167-.174-.021-.81-.032-.984-.053-.164-.019-1-.504-1.34-.504s-.626-.16-.972-.16c-.339 0-.724.13-1.063.132-.173.001-.58.084-.759.085-.172 0-.466.195-.631.209-.345.031-.761-.01-1.016.081s-.586.455-.569.527.245.132.334.153l.479.092c.333.04.593.087.894.241.107.055.181.146.283.204s.25.115.364.172c.264.131.51.193.776.27.121.035.248.102.373.115.169.018.35-.012.52.008a3.77 3.77 0 0 1 .85.204c.269.101.516.292.773.365.289.082.613-.039.936-.042.28-.002.589.094.855.161.29.073.606.12.902.154.324.037.612-.116.925-.154.158-.019.302 0 .447-.037.18-.046.326-.043.497-.011.663.125 1.268.365 1.901.575.3.099.574.176.894.203.333.029.626-.029.975-.04h2.072c.178.005.354.173.528.193.158.018.323-.101.478-.063l.417.111c.124.032.389.039.483.106l-.037-.024 12.14 1.06 1.503.077z" fill="url(#J)"/><path d="M59.333 6.206l-.138.004c-.746 0-1.504.025-2.23-.069-.34-.044-.676 0-1.013-.064l-.933-.151c-.347-.075-.669-.19-1.03-.187h-.995c-.639 0-1.274.13-1.908.052-.542-.067-1.067.033-1.621.082l-.877.068c-.306.021-.575.127-.88.134-.21.005-.354.041-.591.04s-.59.239-.886.339c-.277.093-.62.188-.725.467.109.16.47.127.644.172.246.065.483.207.73.285l.936.282c.29.069.605.091.892.164.159.041.289.061.449.121.121.046.275.086.409.118.539.13.982.495 1.542.618.32.07.644.059.977.11.247.038.553.228.779.357.144.082.286.188.436.253.164.072.275.057.449.081.326.045.656.098.975.202.531.174.961.473 1.432.759.434.264 1.018.568 1.502.649.266.045 1.796.388 1.406.65-.133.047-.585.015-.837-.042l-.739-.154c-.491-.128-1.063.002-1.504.214-.25.12-.566.168-.806.324-.171.112-.291.391-.364.567-.105.252-.095.489-.132.759-.036.257-.2.528-.277.737s-.279.376-.465.508c-.196.139-.386.298-.599.415l-.649.334a5.17 5.17 0 0 0-.774.597c-.045.057-.056.099-.079.163-.057.159-.029.227.09.353.176.188.494.32.73.365.289.056.625.016.876.182.236.156.31.476.009.637l-.203.284c-.194.254.158.526.356.616.287.131.624.165.945.203.937.109 1.84.151 2.723.438.58.188 1.142.447 1.707.697.573.254 1.072.619 1.625.889l1.658.73c.509.212 1.016.521 1.554.67.578.16 1.124.351 1.706.585l.885.366c.109.041.219.106.334.152.024.009 1.007.282 2.418.672l-9.92-17.801z" fill="url(#H)"/><path d="M24.571 3.246c-.092-.006-.346.161-.325.202.14.213.529.083.725.075.081-.202-.306-.272-.399-.277z" fill="url(#G)"/><g fill="url(#J)"><path d="M31.394 1.779c-.069.002-.188-.053-.248-.077-.1-.041-.217-.309-.326-.331-.091-.019-.154-.105-.249-.116l-.325-.024-.626-.049c-.237.001-.469-.073-.701-.106-.195-.027-.397-.07-.6-.069l-.601.025c-.189.001-.373.058-.549.021-.195-.041-.38.087-.577.019s-.421-.112-.626-.144l-.3-.05c-.108-.025-.214-.011-.325-.023s-.218-.064-.326-.078c-.12-.015-.233.002-.351-.024-.229-.051-.49-.024-.727-.024a3 3 0 0 1-.65-.055c-.232-.051-.471-.047-.7-.126L21.854.31c-.123-.04-.258-.039-.375-.081s-.238-.08-.369-.106c-.441-.091-.897-.07-1.353-.069A6.72 6.72 0 0 1 18.969 0l-1.698 3.01.158.012c.196.024.423.052.627.028.15-.018.34-.422.475-.475.089-.034.181-.03.274-.051.384-.086.789-.075 1.202-.075.211 0 .443.029.651 0 .194-.027.394-.051.601-.05.105.001.195-.026.301-.025s.182-.04.274-.051c.206-.024.41.002.602-.047.406-.105.849-.074 1.277-.076.106 0 .195.026.3.025s.222-.014.325 0l.601.1c.406.047.814-.043 1.227.008.418.051.835-.152 1.252-.152.217 0 .395-.051.601-.076l.601-.047c.513-.059 1.006.004 1.503-.103.215-.046.447.038.675.02.1-.007.66-.036.599-.196z"/><path d="M35.605 17.469a2.3 2.3 0 0 0-.501-.324c-.087-.036-.19-.027-.256-.044s-.129-.046-.195-.08a1.12 1.12 0 0 1-.355-.3c-.107-.135-.168-.316-.277-.469a1.95 1.95 0 0 0-.349-.372c-.144-.117-.305-.25-.476-.326s-.349-.096-.515-.161l-.506-.201c-.168-.069-.332-.106-.501-.168-.184-.067-.332-.209-.496-.331l-.405-.286c-.152-.09-.331-.175-.501-.207-.189-.036-.437-.101-.626-.055s-.339.184-.5.28-.416.164-.601.202-.381-.081-.526-.171c-.174-.109-.376-.174-.553-.285l-.531-.342c-.175-.134-.248-.329-.376-.499-.262-.35-.721-.414-1.121-.45-.203-.019-.393-.034-.576-.106l-.576-.193c-.4-.098-.832-.1-1.252-.1-.215 0-.413-.025-.626-.025-.11 0-.191-.025-.3-.025-.098 0-.203.01-.298-.005.063-.122.324-.174.448-.226.188-.079.348-.073.551-.098l.552-.094c.115-.031.413-.156.426-.3.007-.074-.061-.2-.078-.273-.021-.093-.021-.182-.055-.27-.055-.143-.147-.311-.268-.406a1.19 1.19 0 0 0-.476-.205c-.144-.028-.385-.06-.47-.2s.106-.269.218-.349a1.17 1.17 0 0 1 .233-.138c.072-.03.134-.079.219-.081s.973-.008 1.103-.068c.179-.083.336-.127.524-.182.174-.051.408-.074.601-.05.2.024.408.026.601.077.376.099.841-.004 1.227-.001.198.002.402-.026.602-.049.166-.019.429-.09.569.056.132.138-.014.326-.093.443-.063.092-.271.269-.222.394.178.088.34.035.521-.001l.576-.094c.28-.033.71-.178.777-.499.024-.114.027-.165.15-.219.114-.05.202-.056.325-.056l.601.025c.202.001.418-.032.601-.107.167-.069.299-.18.456-.261.125-.064.37-.097.176-.287-.104-.102-.297-.15-.433-.168-.176-.024-.373 0-.551 0-.157 0-.493-.011-.518-.024s.052-.041.122-.071.511-.056.797-.029l.451.05c.137.015.287.016.425.051a3.21 3.21 0 0 0 .826.098c.157.001.278-.039.426-.094.076-.028.149-.042.22-.087.062-.039.12-.042.177-.073s.134-.114.205-.17c.023-.018.1-.065.12-.08.03-.024.059-.06.086-.089.115-.123.056-.326-.032-.455-.041-.06-.097-.105-.125-.174-.047-.115-.053-.165-.144-.257-.128-.128-.28-.245-.457-.293s-.348-.08-.525-.1c-.102-.012-.171-.003-.276 0-.097.003-.216-.035-.306-.045l-.595-.055c-.091-.01-.174-.034-.256-.006-.088.03-.164.089-.244.131-.182.098-.473.144-.672.045-.024-.103.027-.155.12-.19.083-.031.184-.056.276-.055.127.002.473-.062.427-.251-.039-.159-.269-.257-.402-.317-.158-.072-.329-.157-.501-.18-.204-.027-.375 0-.557-.069a3.33 3.33 0 0 1-.495-.249c-.341-.202-.694-.308-1.076-.386l-.601-.096c-.193-.029-.302-.111-.457-.217-.062-.042-.131-.095-.2-.125-.095-.042-.168-.038-.269-.062l-.551-.143-.626-.124-.601-.101c-.202-.031-.401-.025-.601-.049-.213-.026-.405-.107-.626-.101-.194.005-.395.084-.576.124-.199.044-.418.025-.626.026-.352.001-.652-.254-.975-.375-.367-.138-.8-.125-1.183-.168-.203-.023-.415 0-.62-.006-.106-.003-.198-.038-.3-.051s-.22 0-.325.001c-.186.001-.773-.113-.876-.125s-.216-.009-.306-.019c-.404-.045-.819.017-1.196.069-.122.017-.246.021-.372.019l-3.718 6.591L2.517 29.373c.828.322 1.392.65 1.481.742.409.427.932.443 1.714.529.199.022.392.03.575.076l1.053.323c.206.077.417.123.626.174l.526.151c.186.041.389.073.576.025s.353-.141.526-.244c.337-.2.684-.36 1.078-.405.079-.009.167-.041.249-.051.102-.013.183.041.274.051.209.024.396.01.602-.001.187-.01.336-.101.5-.169l.601-.23c.094-.027.179-.074.275-.101.112-.032.21-.035.326-.049l.6-.05c.097.001.178-.016.276-.025l.326-.024c.193-.024.372-.084.55-.126.404-.096.778-.318 1.177-.467a1.4 1.4 0 0 1 .301-.081c.095-.014.197-.012.3-.024.183-.021.371-.099.524-.176.185-.093.351-.196.528-.304.086-.053.147-.113.251-.144s.189-.036.299-.051c.178-.024.378-.019.552-.073l.5-.151c.171-.044.359-.047.525-.105.184-.065.358-.151.531-.237.163-.081.278-.211.419-.312.073-.052.154-.074.232-.113.094-.047.127-.102.199-.18.114-.123.312-.209.472-.268.098-.037.626-.393.656-.449.047-.086.074-.166.112-.257l.201-.523c.064-.175.154-.313.176-.498a1.02 1.02 0 0 0-.101-.594c-.081-.163-.123-.34-.068-.528.046-.156.163-.306.244-.45.087-.154.183-.32.206-.499.012-.096-.001-.203-.001-.299 0-.118-.024-.193-.045-.299-.019-.1-.016-.198-.03-.299s-.067-.226-.101-.324c-.069-.198-.111-.387-.045-.599.056-.179.147-.338.277-.467.121-.121.277-.2.387-.337a.74.74 0 0 1 .432-.268c.188-.041.329.074.526.074.188 0 .355-.076.526-.125.087-.025.183-.03.275-.05.087-.019.166-.052.25-.076l.507-.169a1.8 1.8 0 0 1 .295-.056c.11-.012.187-.066.3-.075.193-.014.363-.078.551-.099.088-.01.18-.041.275-.05l.325-.024c.391-.047.786-.187 1.127-.35a1.13 1.13 0 0 1 .25-.075c.096-.02.179-.062.276-.075s.202.013.3 0l.277-.049c.353-.039.738-.191 1.056-.344.157-.076.31-.14.476-.2l.219-.087c.089-.039.207-.026.302-.069l.443-.205c.175-.08.363-.117.551-.15.38-.065.791-.2 1.183-.295.186-.045.364-.123.544-.205l.277-.123c.112-.055.218-.14.131-.238z"/></g></g><path d="M71.396 34.407c-.924-.059-2.457-.328-3.135-.218-1.259.206-1.515-.368-2.278-.454-.69-.078-1.655-.1-2.403-.012-.723.085-1.327.59-1.936.828-.803.314-.945.626-1.799.85-.636.167-1.109.058-1.703-.158-.443-.16-.851-.536-1.321-.666l-1.7-.41c-.37-.091-1.225.071-1.76-.004-1.453-.205-1.482-.331-2.604-.544l-1.589-.277-1.542-.09c-.279-.027-.997-.212-1.213-.185-.354.043-.72-.139-1.076-.101l-1.918.128c-.723-.004-1.385.083-2.105.121-.549.029-1.144.168-1.701.237l-1.237.149c-.248.031-.948-.003-1.22.025l-1.146.099c-.555.059-1.346.365-1.888.463-.794.143-1.737-.323-2.689-.464-1.121-.166-2.052-.256-3.19-.265-1.113-.009-2.135 0-3.261 0l-7.118.308c-.535.065-.956.119-1.443.271-.513.159-1.012.304-1.436.512-.874.429-2.392.469-3.298.85-.458.193-1.422.243-1.88.456-.524.244-1.018.091-1.53.273-1.268.452-2.55.456-3.874.638-.242.033-.57.203-.853.222-.299.02-.485-.101-.759-.134-.495-.061-1.051.005-1.551.006-.399.001-.815-.013-1.237-.032v2.017h74.7v-5.032c-1.17.022-1.615.705-3.308.596z" fill="url(#K)" fill-rule="nonzero"/></g></symbol></svg>