<svg xmlns="http://www.w3.org/2000/svg" xmlns:xlink="http://www.w3.org/1999/xlink" viewBox="0 0 76 35" fill="#fff" fill-rule="evenodd" stroke="#000" stroke-linecap="round" stroke-linejoin="round"><use xlink:href="#H" x=".5" y=".5"/><defs><linearGradient id="A" x1="44.49%" y1="42.09%" x2="55.51%" y2="57.91%"><stop offset="0%" stop-color="#e3cbb4"/><stop offset="100%" stop-color="#a78b6f"/></linearGradient><linearGradient id="B" x1="52.04%" y1="31.68%" x2="49.44%" y2="57.97%"><stop offset="0%" stop-color="#9fc3d6"/><stop offset="100%" stop-color="#84b2ca"/></linearGradient><linearGradient id="C" x1="25.42%" y1="-26.34%" x2="68.39%" y2="86.51%"><stop offset="0%" stop-color="#e7f2da"/><stop offset="45.3%" stop-color="#dce8d0"/><stop offset="100%" stop-color="#c9d9bf"/></linearGradient><linearGradient id="D" x1="46.65%" y1="-0.08%" x2="53.74%" y2="121.95%"><stop offset="10.1%" stop-color="#95b694"/><stop offset="14.6%" stop-color="#aec6a8"/><stop offset="34.3%" stop-color="#aec6a8"/><stop offset="36.2%" stop-color="#9cbb9a"/><stop offset="37.6%" stop-color="#95b694"/><stop offset="51.1%" stop-color="#95b694"/><stop offset="55.1%" stop-color="#aec6a8"/></linearGradient><linearGradient id="E" x1="45.18%" y1="-76.19%" x2="52.40%" y2="116.54%"><stop offset="26.4%" stop-color="#95b694"/><stop offset="38.8%" stop-color="#aec6a8"/><stop offset="43.8%" stop-color="#aec6a8"/><stop offset="47.2%" stop-color="#95b694"/><stop offset="59.6%" stop-color="#95b694"/><stop offset="62.9%" stop-color="#aec6a8"/><stop offset="77%" stop-color="#aec6a8"/><stop offset="79.8%" stop-color="#95b694"/></linearGradient><linearGradient id="F" x1="47.18%" y1="45.40%" x2="52.82%" y2="54.60%"><stop offset="0%" stop-color="#9fc3d6"/><stop offset="100%" stop-color="#84b2ca"/></linearGradient><linearGradient id="G" x1="52.23%" y1="29.71%" x2="47.98%" y2="68.42%"><stop offset="25.3%" stop-color="#e3cbb4"/><stop offset="100%" stop-color="#a78b6f"/></linearGradient></defs><symbol id="H" overflow="visible"><g stroke="none" fill-rule="nonzero"><path d="M74.85 10.139l-23.995 17.49v5.503L74.85 15.636z" fill="url(#A)"/><path d="M50.855 24.849s.337.099.743-.156.505-.754.505-.754.453.07.871-.249.476-.733.476-.733.472.044.84-.227c.318-.234.509-.758.509-.758s.458.036.821-.212c.434-.296.509-.757.509-.757s.556-.017.823-.214c.298-.219.526-.77.526-.77s.472.04.832-.221c.38-.274.517-.763.517-.763s.506.019.823-.214c.351-.258.522-.767.522-.767s.485.034.834-.222c.362-.266.514-.761.514-.761s.455.045.827-.217c.4-.281.509-.757.509-.757s.482.026.822-.213c.31-.217.516-.763.516-.763s.471.022.827-.216.528-.771.528-.771.422.064.836-.224.493-.745.493-.745.338.099.743-.156.505-.754.505-.754.453.07.871-.249.476-.733.476-.733.472.044.84-.227c.318-.234.509-.757.509-.757s.457.036.821-.212c.434-.297.509-.757.509-.757s.555-.017.823-.214c.298-.219.526-.77.526-.77s.472.04.833-.221c.379-.275.517-.763.517-.763s-.434.224-.907.101c-.44-.115-.7-.491-.7-.491s-.477.203-.913.099c-.422-.101-.709-.493-.709-.493s-.498.198-.922.097c-.383-.091-.695-.49-.695-.49s-.462.211-.916.098c-.432-.107-.706-.493-.706-.493s-.567.181-.927.096c-.323-.077-.695-.49-.695-.49s-.4.241-.907.101c-.425-.117-.692-.49-.692-.49s-.523.192-.907.101c-.444-.106-.716-.495-.716-.495l-43.856.45-.586.288-8.537 7.118 21.027 7.705s.272.389.716.495c.384.092.907-.1.907-.1s.268.373.693.49c.506.14.907-.101.907-.101s.372.413.695.49c.36.086.927-.096.927-.096s.275.386.706.493c.455.112.916-.098.916-.098s.312.398.695.49c.424.101.923-.097.923-.097s.287.392.709.494c.436.104.913-.099.913-.099a1.36 1.36 0 0 0 .7.491c.473.124.907-.101.907-.101s.291.384.693.49c.366.096.916-.099.916-.099s.288.373.7.491.93-.095.93-.095a1.26 1.26 0 0 0 .711.494c.487.131.888-.105.888-.105s.142.322.599.467.902-.102.902-.102.239.391.753.504.867-.11.867-.11h.001z" fill="#bbd6e3"/><path d="M50.855 24.849s-.354.219-.867.11-.752-.504-.752-.504-.445.247-.902.102-.599-.467-.599-.467-.401.236-.888.105-.711-.494-.711-.494-.518.215-.93.095-.7-.491-.7-.491-.549.195-.916.099c-.402-.106-.693-.49-.693-.49s-.434.224-.907.101c-.44-.115-.7-.491-.7-.491s-.477.204-.913.099c-.422-.101-.709-.494-.709-.494s-.499.198-.923.097c-.383-.091-.695-.49-.695-.49s-.462.211-.916.098c-.431-.107-.706-.493-.706-.493s-.567.181-.927.096c-.323-.077-.695-.49-.695-.49s-.4.24-.907.101c-.424-.117-.692-.49-.692-.49s-.522.193-.907.1c-.444-.106-.716-.495-.716-.495l-9.926-2.654-.543.479 29.74 9.779V24.85z" fill="url(#B)"/><path d="M29.192 7.901c-.561-.079-3.328-.4-5.581-1.123.449.34.831.728 1.705 1.064.959.369 6.069 1.205 7.824 1.268-1.161-.505-2.526-1.011-3.949-1.21zm34.487-3.135c-.232-.29-1.335-.29-2.148-.465l-.17-.045c-.914.464-1.862 1.17-3.314 1.787l-5.98 2.264c-2.148 1.045-7.041.29-8.825.29-2.148 0-12.927-2.018-13.267-2.09-1.225-.26-4.285-.203-6.915-.649 1.45.59 2.985 1.059 4.796 1.113 2.102.063 8.825 1.916 12.193 2.38s9.373.449 12.889-.058c5.632-.813 11.031-4.166 10.741-4.529zM41.559 11.5c-.34-.057-.682-.151-1.011-.254.42.761.791 1.66.227 2.257-.74.784-6.464 3.922-8.578 4.311-3.309.61-12.192-.087-14.631-.653.327.289.882.553 1.794.709 1.188.233 2.087.331 2.401.307 1.509-.116 7.257 2.032 10.102 2.032s4.471.929 6.154 1.219 3.367.581 4.412.233 2.134-.508 2.715-.74c1.091-.437 1.655-1.06 1.684-1.727.016-.38-.894-.549-1.728-.29-.609.189-1.422.581-2.046.697-.685.127-1.753.045-2.119.015-1.379-.116-1.727.827-3.556.246 1.916.145 2.148-.537 3.44-.479-2.438-.929-1.452-1.96-4.892-1.727 3.498-.697 2.511.711 5.008 1.481.598.184 1.466.145 1.988.087.91-.101 1.423-.45 2.119-.74s2.445.218 2.496-1.118c.029-.755-.348-1.481-1.292-1.756-.46-.134-.873.051-1.277.087-.639.058-1.082-.108-1.321-.13-.769-.073-.609.682-1.509.987.668-.61.45-1.074 1.103-1.219-.377-1.045.537-1.307.174-2.497.595 1.147-.377 1.887.116 2.322.292.258.958.189 1.248.131s.98-.196 1.415-.196c.606 0 .629.508 1.227.53.407.014.471-.816.29-1.161-.567-1.087-3.09-2.451-6.154-2.962z" fill="url(#C)"/><path d="M40.548 11.246c-.684-.215-1.316-.472-1.776-.53-.696-.087-1.684-.029-2.845-.377-.592-.178-1.578-.703-2.786-1.228-1.755-.063-6.865-.9-7.824-1.268-.875-.336-1.256-.724-1.705-1.064-.828-.266-1.587-.585-2.141-.968-.658-.454-1.408-.423-2.375-.47 0 0-3.682.837-5.499 1.732s-7.267 3.324-9.148 4.366S0 13.669 0 13.669l2.005 5.217s15.869-1.267 15.542-1.556c2.438.566 11.341 1.094 14.65.484 2.114-.39 7.838-3.527 8.578-4.311.564-.597.193-1.496-.228-2.257z" fill="url(#D)"/><path d="M59.209 3.139c-.689-.157-12.505-1.001-14.315-1.135C41.759 1.772 37.991.073 35.08.003c-2.498-.059-6.51.746-8.039 1.386s-7.36 3.663-7.36 3.663c1.077.117 2.241.309 3.38.806 2.63.445 5.69.389 6.915.649.34.072 11.118 2.09 13.267 2.09 1.784 0 6.677.755 8.825-.29 1.775-.864 3.954-1.403 5.98-2.264 1.451-.617 2.4-1.322 3.314-1.787-.762-.238-.959-.845-2.152-1.116z" fill="url(#E)"/><path d="M74.85 10.139L50.855 27.635v-2.787s.337.099.743-.156.505-.754.505-.754.453.07.871-.249.476-.733.476-.733.472.044.84-.227c.318-.234.509-.758.509-.758s.458.036.821-.212c.434-.296.509-.757.509-.757s.556-.017.823-.214c.298-.219.526-.77.526-.77s.472.04.832-.22c.38-.275.517-.763.517-.763s.506.019.823-.214c.351-.258.522-.767.522-.767s.485.034.834-.222c.362-.266.514-.761.514-.761s.455.045.827-.217c.4-.281.509-.757.509-.757s.482.026.822-.213c.309-.217.516-.763.516-.763s.471.022.827-.216.528-.771.528-.771.422.064.836-.224.493-.745.493-.745.338.099.743-.156.505-.754.505-.754.453.07.871-.249.476-.733.476-.733.472.044.84-.227c.318-.234.509-.757.509-.757s.457.036.821-.212c.434-.297.509-.757.509-.757s.555-.017.823-.214c.298-.219.526-.77.526-.77s.472.04.833-.221c.379-.275.517-.763.517-.763v2.787z" fill="url(#F)"/><path d="M0 13.668c1.468 0 3.526.261 4.448.335 1.733.139 4.525 1.523 6.515 1.871 2.772.485 5.267 1.317 8.476 1.635 2.721.27 31.417 10.127 31.417 10.127v5.503L0 19.992v-6.324z" fill="url(#G)"/></g></symbol></svg>