<?xml version="1.0" encoding="utf-8"?>
<!-- Generator: Adobe Illustrator 28.1.0, SVG Export Plug-In . SVG Version: 6.00 Build 0)  -->
<svg version="1.1" id="Layer_1" xmlns="http://www.w3.org/2000/svg" xmlns:xlink="http://www.w3.org/1999/xlink" x="0px" y="0px"
	 viewBox="0 0 595.3 200" style="enable-background:new 0 0 595.3 200;" xml:space="preserve">
<style type="text/css">
	.st0{fill:#040404;}
	.st1{fill:#060506;}
	.st2{fill:#040405;}
	.st3{fill:#FD0101;}
	.st4{fill:#010001;}
</style>
<path class="st0" d="M334.7,106.9c0-17.1,0-34.1,0-51c11.7,0,23.1-0.4,34.5,0.1c7,0.3,11.1,4.7,12.2,11c1.1,6.6-2,12.8-7.9,15.8
	c-1,0.5-2.1,0.9-3.5,1.5c8.9,4.9,10.5,14.5,14.9,22.3c-6,0.4-11.7,0.4-17.5,0.1c-3.1-5.7-6.1-11.1-9-16.4c-1.6-3-3.9-4.7-7.9-3.9
	c0,6.9,0,13.7-0.5,20.6C344.7,106.9,339.7,106.9,334.7,106.9 M350.7,72.4c0,1.9-0.3,3.5,0.3,3.8c0.8,0.3,8.9-0.3,10.8-0.7
	c1.7-0.4,3.6-3.4,3.5-5c-0.1-1.6-2.6-3.9-4.3-4.3c-3.1-0.7-6.5-0.2-10.2-0.2C350.7,67.9,350.7,69.7,350.7,72.4z"/>
<path class="st1" d="M311.1,106.9c0,0,0.1,0-0.2-0.4c-0.2-12.3-0.2-24.2-0.2-36.1c-0.3,0-0.6,0-0.9,0c-3.1,12.1-6.2,24.3-9.7,36.5
	c-4.1,0.1-7.8,0.1-11.5-0.3c-3.2-12.1-6.3-23.8-9.3-35.6c-0.8,7.2-0.8,14.3-0.9,21.5c-0.1,4.9-0.4,9.2-0.1,14.6c-4.2,0-8.9,0-12.6,0
	c0-17.1,0-34.2,0-51.6c6.7,0,13.5,0,20.7,0c2.6,9.8,5.2,19.7,7.7,29.6c0.3,0.1,0.6,0.1,0.8,0.2c2.6-10,5.3-19.9,7.9-29.9
	c6.9,0,13.5,0,20.9,0c0,17,0,33.9-0.5,51.2C318.8,107,315,107,311.1,106.9z"/>
<path class="st2" d="M212.4,105c0-16.4,0-32.9,0-49.6c14.6,0,28.7,0,43,0c0,3.6,0,7,0,10.8c-8.8,0-17.4,0-26.4,0c0,2.9,0,5.4,0,8.4
	c8,0,16.1,0,24.4,0c0,3.5,0,6.7,0,10.2c-7.9,0-15.9,0-24.4,0c0,3.6,0,6.8,0,10.5c8.9,0,17.8,0,27.5,0c0,3.8,0,7.2-0.4,11.2
	c-14.8,0.5-29.1,0.5-43.4,0.5c0,0-0.1,0,0-0.3C212.6,105.9,212.5,105.4,212.4,105z"/>
<polygon class="st3" points="263.1,109.1 211.6,109.1 211.6,162.1 320.3,162.1 350.9,149.1 284.9,149.1 321,137.9 258.3,137.9 
	288.4,124.8 230.8,124.8 "/>
<polygon class="st4" points="387,109.1 263.1,109.1 230.8,124.8 288.4,124.8 258.3,137.9 321,137.9 284.9,149.1 350.9,149.1 
	320.3,162.1 386.8,162.1 "/>
</svg>
