<?xml version="1.0" encoding="UTF-8"?>
<svg id="layer" xmlns="http://www.w3.org/2000/svg" viewBox="0 0 413.3 98.6">
  <defs>
    <style>
      .cls-1 {
        fill: #00538c;
        stroke-width: 0px;
      }
    </style>
  </defs>
  <path class="cls-1" d="M409.8,57.8c-2,0-3.4.8-3.4,4v15.3c0,1.5.4,2.6.4,3.5s-.7,1.3-1.8,1.8c-8.9,4.5-18.2,7-32.2,7-11.4,0-24.3-3.6-31.8-12.5-6.7-7.6-10.1-16.9-10.1-30.2,0-10,4.7-20.6,12.7-27.5,8-7,17.9-10.8,31.1-10.8,11.1,0,19.3,3.1,22.9,5.4,1.3.8,2.1.5,2.7-.3l1.1-1.8c.6-.8.8-1.1,1.4-1.1,1.2,0,1.5.8,1.5,2l1.6,22.6c.1,1.3,0,1.9-.4,2l-3.1.7c-.7.1-1-.1-1.3-1.1-1.8-5.4-5.3-12.4-10-16.7-4.3-4.1-9.9-6.8-17.3-6.8-5.9,0-11.4,1.9-16.6,8.2-5,6-8.8,15.2-8.8,25,0,13,3.6,24.3,9.5,30.2,5.2,5.2,9.3,7.5,16.8,7.5,5.7,0,8.8-.4,12.4-2.2,2.3-1.1,2.5-4.6,2.5-10.3l.1-10.3c0-4,.5-5.2-2.3-5.2l-6.3-.2c-.7,0-.8-.5-.8-1v-2.7c0-.4.1-.8.8-.7,1,.1,6.4.4,16.2,1.1,10.1.7,14.2,1.1,15,1.2.9.1,1,.4,1,.9v2.5c0,.7-.1.9-.8.8l-2.7-.3Z"/>
  <path class="cls-1" d="M300.6,54.6c18.4,0,29-8.7,29-21.8,0-7.2-3.3-13.5-7.9-17-6.4-4.9-12.8-6-26.3-6-3.6,0-10.1.3-12.1.3-11.5,0-15.5-.3-16.7-.3-.6,0-.7.2-.7.8v2.9c0,.7.1.9.7.9h5.2c2.2,0,3.3.2,3.5,2.4.1,1.3.2,12.8.2,20.1v12.6c0,12.7-.3,29.8-.4,30.9-.3,2.7-1.1,3.3-4.8,3.3h-5c-1.6,0-4.5-1.3-6.4-4.9-1.5-3-8.7-23.4-11.2-31.9-2.1-7-10.6-31.6-12.7-38.5-.3-1.2-.6-1.9-1.2-1.9s-.9.4-1.4,1c-1.6,1.9-8.8,4.7-12.3,5.5-.9.2-1.1.7-1.1,1,0,.4.4,1,.8,1.4.8,1.2.2,2.6-.1,3.7-1,3-9.9,26.6-10.8,28.8-3.6,9.7-11.4,28.8-12.9,31.1-2.2,3.3-4.8,4.8-7.5,4.8h-2.9c-1.6,0-4.5-1.3-6.4-4.9-1.5-3-8.7-23.4-11.2-31.9-2.1-7-10.6-31.6-12.7-38.5-.3-1.2-.6-1.9-1.2-1.9-.5,0-.9.4-1.4,1-1.6,1.9-8.8,4.7-12.3,5.5-.9.2-1.1.7-1.1,1,0,.4.4,1,.8,1.4.8,1.2.2,2.6-.1,3.7-1,3-9.9,26.6-10.8,28.8-3.6,9.7-11.4,28.8-13,31.1-2.2,3.3-4.8,4.8-7.5,4.8h-2.9c-.7,0-.8.3-.8,1v2.1c0,.8.1,1.4.8,1.4,1.5,0,3.9-.3,12-.3,9,0,13.5.3,14.9.3.9,0,1-.3,1-1.2v-2.4c0-.4-.1-.9-1.2-.9h-3.8c-3.3,0-4.3-2.6-4.3-5,0-.9.5-3,1.3-5.7,2.2-.4,4.5-.9,6.9-1.4,7.8-1.4,16.3-2.8,25.3-4.3,1.8,6.4,3.2,11.2,3.5,12.4.7,2.8-.3,3.9-3.3,3.9h-3.1c-.5,0-.7.4-.7,1v2.1c0,.8.1,1.4,1.2,1.4,2.2,0,6-.3,15.1-.3h26.9c9,0,13.5.3,14.9.3.9,0,1-.3,1-1.2v-2.4c0-.4-.1-.9-1.2-.9h-3.8c-3.3,0-4.3-2.6-4.3-5,0-2.2,3-11.4,5.2-18,5.6-.6,11.4-1.2,17.1-1.8,2.8-.3,5.6-.5,8.4-.7,3,10.6,5.7,20,6.1,21.6.7,2.8-.3,3.9-3.3,3.9h-3.1c-.5,0-.7.4-.7,1v2.1c0,.8.1,1.4,1.2,1.4,2.2,0,6-.3,15.1-.3h32.4c12.8,0,16.2.3,17.8.3.9,0,1-.3,1-.9v-2.9c0-.4-.1-.8-.9-.8h-5.6c-1.8,0-2.9-1.1-3.1-3.5-.1-1.3-.2-16.2-.2-21.4v-3.9c3.3-.2,5.7-.3,9.1-.3M291.7,14.2c2-.4,3.3-.6,5.2-.6,4.5,0,15.5,3.2,15.5,18.3,0,4.1-.4,7.9-2.6,11.3-2.4,3.8-7.8,6.6-11.3,7-2.1.2-4,.1-6.7.1V14.2h-.1ZM131.9,67.9c-1.7.3-3.4.7-5,1,2.2-7.2,5.2-15.6,5.2-15.6.9-2.7,10.3-28.6,10.9-30.1.3-1,.7-1.4,1.3-1.4.5,0,.8.8,1.2,2.4.5,1.8,6.8,23.6,11.3,39.3-8.8,1.6-17.1,3-24.9,4.4M226.1,54.4c-5.1.6-10.2,1.1-15.2,1.7.6-1.7,1-2.8,1-2.8.9-2.7,10.3-28.6,10.9-30.1.3-1,.7-1.4,1.3-1.4s.8.8,1.2,2.4c.4,1.4,4.5,15.8,8.5,29.6-2.7.2-5.2.4-7.7.6"/>
  <path class="cls-1" d="M26.1,86.3c-.3.2-.4.3-.6.2-.2-.1-.2-.2-.1-.5l1.1-4.8c0-.1.1-.4.1-.5,0-.2,0-.3-.2-.4-.1-.1-.3-.1-.1-.3.1-.2.2-.1.3,0,.3.2.5.4.8.6s.7.4,1,.6c.1.1.2.2.1.3-.2.3-.5-.3-.7,0-.1.1-.1.2-.1.3l-.2.8q-.1.3.1.5l.9.6q.2.2.5,0c.2-.2.5-.4.6-.6.4-.6-.5-.7-.3-1,.1-.1.2-.1.3,0,.2.1.4.3.6.4s.4.3.6.4c.1.1.2.2.1.3-.1.1-.2.1-.3,0-.2-.1-.3-.1-.5,0s-.6.5-.8.6l-1.1.9-2.1,1.6ZM28.1,84.3s.2-.1.2-.2c.1-.1-.1-.2-.1-.2l-.6-.4s-.2-.2-.3-.1l-.1.2-.4,1.6,1.3-.9Z"/>
  <path class="cls-1" d="M19.5,81.2c-.1.1-.3.2-.4.1l-1.2-1c-.1-.1-.2-.2,0-.3.1-.1.3,0,.4.1.3.2.5-.1.8-.4l2.3-2.7c.1-.1.3-.4.4-.5.1-.2,0-.3-.1-.3-.1-.1-.2-.2-.1-.4.1-.1.3,0,.3.1.3.3.6.6.9.8.3.2.5.4.8.7.1.1.2.2.1.3-.2.2-.3,0-.4-.1-.3-.2-.5,0-.7.3l-2.3,2.7,3.8-2.1c.2-.1.4-.3.6-.1.1.1.1.2,0,.4l-1.7,4.1,2.3-2.4c.3-.3.6-.6.2-.9-.1-.1-.3-.2-.2-.4.1-.1.2-.1.3,0,.2.2.3.3.5.5s.4.3.6.5c.1.1.1.2,0,.3-.1.1-.3,0-.4-.1-.3-.2-.5.1-.7.3l-2.6,2.7c-.3.3-.5.4-.2.7.1.1.3.2.1.4-.1.1-.3,0-.4-.1l-1.1-1c-.1-.1-.1-.2,0-.3l1.4-3.4-3.3,1.5Z"/>
  <path class="cls-1" d="M17.3,76.2c.2-.2.3-.3.2-.5-.1-.1-.3-.4-.5-.5s-.4-.1-.6,0c-.1.1-.3.1-.4,0s0-.2.1-.3c.2-.2.4-.3.6-.5s.4-.4.6-.5c.1-.1.2-.1.3,0,.2.3-.6.7-.1,1.3l.2.3c.2.2.3.1.5-.1l.9-.7c.2-.2.4-.4.5-.6s-.1-.5-.2-.6c-.4-.4-.9-.6-1.5-.5-.1.1-.3.1-.4,0s-.1-.2.1-.3c.1-.1.3-.2.4-.2l.6-.4q.1-.1.2,0c.4.5.7.9,1.1,1.4.5.6,1,1.2,1.5,1.8.1.1.1.2,0,.3-.1.1-.2,0-.3,0-.4-.4-.6-.2-1,.1l-2.6,2.1c-.4.3-.7.5-.4,1,.1.1.1.2.1.3-.1.1-.2.1-.3,0-.3-.4-.6-.8-.9-1.1-.5-.6-1.1-1.3-1.6-1.9-.1-.1,0-.2.2-.3l.6-.5c.1-.1.2-.2.3-.1.1.1,0,.2,0,.4-.1.2-.1.4-.1.6s.1.4.3.6c.1.1.4.4.5.5.1,0,.3-.1.4-.2l.7-.9Z"/>
  <path class="cls-1" d="M15.2,68.4c.2-.3.4-.5.3-.8,0-.1,0-.2.1-.3.1-.1.2,0,.3.1.1.2.2.4.3.6.1.2.2.4.4.6.1.2,0,.2-.1.4l-1.1,1.6c-.1.2-.3.5-.4.7,0,.1,0,.2.1.3.1.1.2,0,.3-.1l1.1-.7c.5-.3.7-.4.5-.9,0-.1-.1-.2.1-.3.1-.1.2,0,.3.1.2.3.4.7.6,1.1.2.3.4.6.6,1,.1.1.1.2-.1.3-.1.1-.2,0-.3-.1-.4-.4-.5-.3-1,0l-2.8,1.8c-.5.3-.7.4-.5.9,0,.1.1.2,0,.3-.1.1-.2,0-.3-.1-.2-.3-.4-.6-.6-1-.3-.5-.7-1-1-1.5-.2-.3-.3-.6-.3-1,.1-.4.3-.8.7-1,.8-.5,1.5-.1,1.9.4-.2-.4,0-.8.3-1.2l.6-1.2ZM14.4,72.1c.2-.1.4-.2.3-.4-.1-.2-.3-.4-.6-.5-.3-.1-.7,0-1,.2-.5.3-.8.9-.5,1.4.1.1.2.3.4.2.1,0,.3-.2.4-.2l1-.7Z"/>
  <path class="cls-1" d="M13.8,66.2c.5-.2.7-.3.6-.8,0-.1-.1-.2.1-.3.1-.1.2,0,.2.1.2.4.3.7.5,1.1.2.3.4.7.5,1,0,.1.1.2-.1.2-.1.1-.2,0-.3-.1-.3-.4-.5-.3-1-.1l-3,1.5c-.5.3-.8.3-.6.8,0,.1.1.2-.1.3-.1.1-.2,0-.2-.1-.2-.4-.3-.7-.5-1.1-.2-.3-.4-.7-.5-1-.1-.1-.1-.2.1-.3.1-.1.2,0,.3.1.3.5.5.3,1.1.1l2.9-1.4Z"/>
  <path class="cls-1" d="M12.1,60.9c.3-.1.4-.1.7,0,.5.3.8.8,1,1.3.3.7.4,1.5.1,2.2-.3.8-1,1.5-1.8,1.8-.9.3-1.8.3-2.6-.1-.7-.4-1.3-1.1-1.5-1.8-.1-.4-.2-.8-.2-1.2q0-.2.3-.4l.4-.2c.1-.1.2-.1.2-.1.1,0,.2,0,.2.1.1.3-.9.8-.5,1.8.2.5.7.8,1.3.9.6.1,1.3,0,1.9-.2s1.2-.6,1.6-1c.4-.5.6-1.1.4-1.6-.1-.3-.3-.5-.6-.7-.3-.1-.7-.2-1-.2-.1,0-.2,0-.3-.1-.1-.2.1-.2.3-.3l.1-.2Z"/>
  <path class="cls-1" d="M7,59.8c-.3,0-.5,0-.6-.3s.1-.3.3-.4l4.1-2.7c.1-.1.3-.2.4-.3.1-.1.2-.2.1-.4,0-.1-.1-.3.1-.3s.2.1.3.2c.1.3.1.6.2,1s.2.8.3,1.1c0,.1,0,.3-.1.3-.3.1-.2-.5-.5-.5-.1,0-.3.1-.3.2l-.7.4c-.3.2-.3.1-.2.4l.2,1c.1.3,0,.3.3.3h.9c.6-.2.1-.8.5-.9.2,0,.2.1.3.2.1.2.1.5.1.7.1.2.1.5.2.7,0,.1,0,.3-.1.3-.2,0-.2-.1-.2-.2-.1-.2-.1-.3-.4-.3-.2-.1-.8-.1-1-.1l-1.4-.1-2.8-.3ZM9.8,59.7h.3c.1,0,.1-.2,0-.3l-.2-.7c0-.1,0-.3-.1-.2-.1,0-.2.1-.2.1l-1.5.9,1.7.2Z"/>
  <path class="cls-1" d="M6.8,51.5c-.2,0-.5,0-.7.1s-.3.3-.3.5c0,.1.1.3-.1.3s-.2-.2-.2-.3v-.7c0-.2-.1-.5-.1-.7,0-.1,0-.2.2-.2s.2.3.2.4c.1.4.5.3.9.2l4.5-.4c.3,0,.4-.1.5.2,0,.2-.2.3-.3.4l-4.4,3.6,3.1-.3c.2,0,.7-.1.9-.1.3-.1.3-.3.3-.5,0-.1,0-.3.2-.3s.2.1.2.2v.8c0,.3.1.5.1.8,0,.1,0,.2-.2.2s-.2-.2-.2-.3c0-.2-.1-.3-.3-.3-.3-.1-.8,0-1.1,0l-2.9.3c-.4,0-.8,0-.8.4,0,.1,0,.3-.2.3s-.2-.1-.2-.3l-.1-1.4q0-.3.3-.5l3.1-2.6-2.4.2Z"/>
  <path class="cls-1" d="M6,44.9c-.3-.1-.5-.2-.4-.5,0-.3.1-.2.4-.3l4.7-1.1c.1,0,.4-.1.5-.1q.2-.1.3-.3c0-.1,0-.3.2-.3s.2.2.2.3c0,.3-.1.6-.2,1,0,.4-.1.8-.1,1.2,0,.1,0,.3-.2.2-.3,0,0-.6-.3-.6h-.4l-.8.2c-.3.1-.3,0-.4.3l-.1,1.1c0,.3-.1.2.2.4.2.1.6.2.8.3.7.1.3-.8.8-.7.2,0,.2.2.2.3,0,.2-.1.5-.1.7s0,.5-.1.7c0,.1-.1.2-.2.2-.2,0-.2-.1-.2-.2,0-.2,0-.3-.3-.5-.2-.1-.7-.3-.9-.5l-1.2-.6-2.4-1.2ZM8.7,45.8c.1,0,.2.1.3.1s.1-.2.1-.2l.1-.7c0-.1.1-.3,0-.3h-.2l-1.7.3,1.4.8Z"/>
  <path class="cls-1" d="M8,38.3c.1,0,.3.1.3.2s-.2.2-.3.2c-.6,0-1.1.2-1.2.7-.1.4.1,1,.6,1.1s.8-.2,1-.5l.3-.4c.5-.7,1.1-1.2,2.2-1,.6.1,1,.5,1.3,1s.3,1,.2,1.6c-.1.4-.3,1-.6,1.3-.2.2-.3.2-.6.1l-.5-.1c-.1,0-.5-.1-.5-.3s.3-.2.5-.2c.3,0,.6,0,.8-.1.3-.2.4-.4.5-.7.1-.5-.1-1.1-.7-1.3-.7-.2-1.1.5-1.5.9-.5.5-1,1.2-2,1-1.2-.3-1.6-1.6-1.4-2.5.1-.3.3-.7.5-1,.1-.1.3-.1.4,0h.7Z"/>
  <path class="cls-1" d="M9.4,34c.1.1.3.1.3.3,0,.1-.2.1-.3.1-.6,0-1.1,0-1.3.5-.1.4,0,1,.5,1.1.5.2.8-.1,1-.4l.3-.3c.5-.7,1.2-1.1,2.2-.7.6.2,1,.6,1.2,1.1s.2,1.1.1,1.6c-.1.4-.4.9-.7,1.2-.2.2-.3.1-.6,0l-.5-.2c-.1-.1-.5-.1-.4-.3.1-.2.3-.1.5-.1.3,0,.6.1.9,0s.5-.4.6-.7c.2-.5.1-1.1-.6-1.4-.7-.2-1.2.3-1.6.7-.5.5-1.2,1.1-2,.8-1.2-.4-1.4-1.7-1.1-2.6.1-.3.3-.7.6-.9.1-.1.3,0,.4,0l.5.2Z"/>
  <path class="cls-1" d="M13.9,33.9c-.7.3-1.7.2-2.5-.2-.7-.4-1.3-1-1.6-1.7-.3-.8-.3-1.5.1-2.2.7-1.4,2.4-2.1,4.1-1.3,1.6.8,2.2,2.6,1.5,3.9-.3.6-.9,1.2-1.6,1.5M13.6,29.8c-1-.5-2.9-.9-3.4.1-.5.9.8,1.9,1.6,2.3.6.3,1.2.5,1.8.5s1.3-.1,1.6-.6c.5-.9-.8-1.8-1.6-2.3"/>
  <path class="cls-1" d="M18.8,25.2c.2.2.3.3.3.6,0,.6-.2,1.1-.5,1.5-.4.6-1,1.2-1.8,1.3-.8.2-1.8,0-2.5-.5-.8-.5-1.2-1.3-1.3-2.2-.1-.8.2-1.7.6-2.3.2-.3.5-.6.9-.9q.2-.1.5,0l.4.2c.1,0,.2.1.2.1.1.1.1.2,0,.2-.2.3-1.1-.3-1.8.6-.3.4-.3,1-.1,1.6.2.6.7,1.1,1.2,1.4.5.4,1.1.6,1.7.7s1.2-.1,1.6-.6c.2-.3.2-.6.2-.9-.1-.3-.2-.6-.4-.9-.1-.1-.1-.2,0-.3.1-.1.3,0,.4.1l.4.3Z"/>
  <path class="cls-1" d="M20,23.3c.4.4.6.5,1,.2.1-.1.2-.2.3-.1.1.1.1.2,0,.3-.3.3-.6.6-.8.9-.2.3-.5.6-.7.9-.1.1-.2.1-.3,0-.1-.1-.1-.2,0-.3.3-.5.1-.6-.3-1l-2.5-2.2c-.4-.4-.6-.6-1-.2-.1.1-.2.2-.3.1-.1-.1-.1-.2,0-.3.3-.3.6-.6.8-.9.3-.3.5-.6.7-.9.1-.1.2-.1.3,0,.1.1,0,.2,0,.3-.3.5-.1.6.4,1l2.4,2.2Z"/>
  <path class="cls-1" d="M19.1,18c-.1-.3-.2-.4,0-.7.2-.2.3-.1.5,0l4.4,2.2c.1.1.3.2.5.2.2.1.3.1.4-.1.1-.1.2-.2.3-.1.1.1,0,.3-.1.3-.2.2-.5.4-.7.6-.3.3-.5.6-.8.8-.1.1-.2.2-.3,0-.2-.2.4-.4.1-.7-.1-.1-.2-.2-.3-.2l-.7-.4q-.3-.2-.5,0l-.8.7q-.2.2-.1.5c.1.2.3.5.5.7.5.5.8-.4,1,0,.1.1,0,.3-.1.3-.2.2-.4.3-.6.5s-.4.4-.5.5-.2.2-.3,0c-.1-.1,0-.2,0-.3.1-.2.2-.3.1-.5s-.3-.7-.4-1l-.6-1.2-1-2.1ZM20.6,20.4c0,.1.1.2.1.3.1.1.2-.1.2-.1l.5-.5s.2-.2.1-.2l-.2-.1-1.5-.8.8,1.4Z"/>
  <path class="cls-1" d="M26.5,17.4c.3.5.4.6.9.4.1-.1.2-.1.3,0,.1.1,0,.2,0,.3-.3.2-.7.5-1,.7s-.6.5-.9.7c-.1.1-.2.1-.3,0-.1-.1,0-.2,0-.3.4-.4.2-.5-.1-1l-2.4-3.2q-.2-.2-.3-.1c-.4.3-.5.7-.4,1.2,0,.1,0,.4-.1.5s-.2,0-.2-.1-.1-.1-.1-.2l-.5-1c-.1-.1-.1-.3,0-.4s.1,0,.2,0c.2.2.2.1.4,0l2.3-1.7c.2-.1.4-.2.3-.6v-.3c.2-.1.2.1.3.2l.6,1c.1.1.2.3.1.4s-.3,0-.4-.1c-.6-.4-.8-.5-1.3-.1q-.2.1,0,.3l2.6,3.4Z"/>
  <path class="cls-1" d="M29.6,15.4c.3.5.4.7.9.5.1,0,.2-.1.3.1.1.1,0,.2-.1.3-.4.2-.7.4-1.1.6-.3.2-.6.4-1,.6-.1.1-.2.1-.3-.1-.1-.1,0-.2.1-.3.4-.4.3-.5,0-1l-1.7-2.9c-.3-.5-.4-.7-.9-.5-.1,0-.2.1-.3,0-.1-.1,0-.2.1-.3.4-.2.7-.4,1.1-.6.3-.2.6-.4,1-.6.1-.1.2-.1.3,0,.1.1,0,.2-.1.3-.4.4-.3.5,0,1.1l1.7,2.8Z"/>
  <path class="cls-1" d="M31.2,15.2c-.8-.2-1.4-.9-1.8-1.7-.4-.7-.4-1.6-.2-2.3.2-.8.7-1.4,1.4-1.7,1.4-.6,3.2-.2,4,1.5s.1,3.4-1.2,4c-.6.3-1.5.4-2.2.2M33.5,11.8c-.5-1-1.7-2.5-2.8-2-.9.4-.6,2-.2,2.8.3.6.7,1.1,1.1,1.5.5.4,1.1.7,1.6.5,1-.4.7-1.9.3-2.8"/>
  <path class="cls-1" d="M38.8,8.1c-.1-.2-.1-.5-.3-.6-.1-.2-.3-.2-.5-.2-.1,0-.3.1-.3-.1-.1-.2.1-.2.2-.3.2-.1.5-.1.7-.2s.4-.2.7-.2c.1,0,.2,0,.3.1.1.2-.2.2-.3.3-.3.2-.2.6-.1.9l1.3,4.3c.1.3.2.4-.1.5-.2.1-.3-.1-.5-.2l-4.4-3.6.9,3c.1.2.2.7.3.9.2.3.3.3.6.2.1,0,.3-.1.4.1,0,.2-.1.2-.2.3-.2.1-.5.1-.7.2s-.5.2-.7.3c-.1,0-.2,0-.3-.1-.1-.2.1-.2.3-.3.2-.1.2-.2.2-.4,0-.3-.2-.8-.3-1.1l-.8-2.8c-.1-.4-.2-.8-.6-.7-.1,0-.3.1-.4-.1s.1-.2.2-.2l1.4-.4q.3-.1.6.2l3.2,2.5-.8-2.3Z"/>
  <path class="cls-1" d="M44.4,10.9c-.6-.5-1-1.4-1.1-2.2-.1-.8.2-1.6.6-2.2.5-.7,1.1-1,1.9-1.1,1.5-.1,3.1.9,3.2,2.8.1,1.8-1.1,3.2-2.6,3.3-.6.1-1.4-.1-2-.6M47.7,8.6c-.1-1.1-.7-3-1.9-2.9-1,.1-1.2,1.6-1.1,2.6,0,.6.2,1.3.5,1.8.3.6.8,1.1,1.4,1,1,0,1.2-1.5,1.1-2.5"/>
  <path class="cls-1" d="M51.6,7.7c0,.3,0,.4.2.5h.7c.2,0,.3-.2.4-.5,0-.1.1-.3.2-.3s.2.1.2.3c0,.3,0,.5-.1.8v.8c0,.1,0,.3-.2.3-.4,0-.1-.9-.9-1h-.3c-.3,0-.3.1-.3.4l-.1,1.2c0,.6-.1.8.4.9.1,0,.3.1.2.2,0,.1-.1.2-.2.2-.4,0-.8-.1-1.2-.1h-1.2c-.1,0-.2,0-.2-.2,0-.1.1-.2.2-.2.5-.1.5-.2.5-.9l.2-3.4c0-.6.1-.8-.4-.9-.1,0-.3,0-.2-.2,0-.2.1-.2.2-.2.7,0,1.5.1,2.2.2h1.6c.2,0,.3,0,.2.3l-.1.9c0,.1-.1.2-.2.2-.2,0-.2-.2-.3-.4-.1-.2-.2-.4-.4-.5s-.5-.1-.8-.2h-.4c-.1.1-.1.2-.1.3l.2,1.5Z"/>
  <path class="cls-1" d="M57.8,7.5c.1-.5.2-.8-.2-1-.1-.1-.2-.1-.2-.2s.1-.2.2-.2c.3.1.7.2,1,.3.6.1,1.1.2,1.7.4.4.1.8.2,1.1.6s.4.9.3,1.5c-.1.4-.4.9-.7,1.1-.4.3-.8.4-1.3.3-.2-.1-.4-.1-.6-.3-.1-.1-.3-.2-.4-.2s-.1.1-.2.2l-.3,1.1c-.1.5-.2.8.3,1,.1,0,.2.1.2.3,0,.1-.1.2-.2.1-.4-.1-.8-.2-1.2-.3-.4-.1-.8-.1-1.1-.2-.1,0-.2-.1-.2-.2s.2-.2.3-.2c.5,0,.6-.1.7-.7l.8-3.4ZM58.8,8.9c0,.1-.1.3,0,.3.1.1.3.2.4.2.6.2,1-.4,1.2-1.1.1-.6-.1-1.3-.6-1.5-.2,0-.4,0-.5.2s-.2.5-.2.8l-.3,1.1Z"/>
  <path class="cls-1" d="M63.8,10.1c-.1.3-.2.4.1.5.2.1.5.2.6.2.2,0,.4-.1.5-.3.1-.1.2-.3.3-.2.1,0,.1.2.1.3-.1.2-.2.5-.3.7s-.2.5-.3.8c0,.1-.1.2-.3.2-.4-.1.2-.9-.6-1.2l-.3-.1c-.3-.1-.3.1-.4.3l-.4,1c-.1.2-.2.6-.1.8s.3.4.5.5c.5.2,1.1.1,1.5-.3.1-.1.2-.3.4-.2.1,0,.1.1.1.3,0,.1-.2.3-.2.4l-.3.7c-.1.1-.1.2-.2.1-.6-.2-1.1-.5-1.7-.7-.7-.3-1.5-.5-2.2-.8-.1,0-.2-.1-.1-.2.1-.1.2-.2.3-.1.5.1.6-.1.8-.6l1.2-3.1c.2-.5.3-.8-.1-1.1-.1-.1-.2-.1-.2-.2.1-.1.2-.2.3-.1.4.2.9.4,1.3.5.8.3,1.6.5,2.4.8.2.1.1.2,0,.4l-.3.7c-.1.1-.1.3-.3.2-.1,0-.1-.2-.1-.3,0-.2-.1-.4-.2-.6-.1-.2-.3-.3-.5-.4-.1,0-.5-.2-.7-.2-.1,0-.2.3-.2.4l-.4.9Z"/>
  <path class="cls-1" d="M68,14.7c-.3.5-.4.7,0,1,.1.1.2.2.1.3-.1.1-.2.1-.3.1-.4-.2-.7-.4-1.1-.6-.3-.2-.7-.3-1-.5-.1-.1-.2-.1-.1-.2.1-.1.2-.1.3-.1.5.2.6,0,.9-.5l1.8-3.5q.1-.2-.1-.3c-.5-.2-.8-.1-1.3.2-.1.1-.3.2-.4.1-.1-.1-.1-.2,0-.3,0-.1.1-.1.1-.2l.7-.9c.1-.1.2-.2.3-.2s.1.1.1.2c-.1.3,0,.3.2.4l2.6,1.3c.2.1.4.2.6.1.1-.1.2-.1.2-.1.2.1.1.2,0,.4l-.6,1c-.1.1-.2.3-.3.3-.1-.1-.1-.2-.1-.4.1-.7.1-.9-.5-1.2q-.2-.1-.3.1l-1.8,3.5Z"/>
  <path class="cls-1" d="M73.3,18.3c-.1.4-.2.6.1.8.1.1.1.2,0,.3-.1.1-.2.1-.3,0-.2-.1-.4-.3-.5-.4-.2-.1-.4-.2-.6-.4-.2-.1-.1-.2-.1-.4l.4-1.8c0-.2.1-.6.1-.8,0-.1-.1-.2-.2-.2-.1-.1-.2,0-.3.2l-.7,1c-.3.5-.5.6-.1,1,.1.1.2.2.1.3-.1.1-.2.1-.3,0-.3-.2-.7-.5-1-.7s-.7-.4-1-.6q-.1-.1-.1-.3c.1-.1.2-.1.3-.1.5.2.6.1.9-.4l1.9-2.8c.3-.5.5-.6.2-1-.1-.1-.2-.2-.1-.3.1-.1.2-.1.3,0,.3.2.6.5.9.7.5.4,1,.7,1.5,1,.3.2.6.5.7.8.1.4,0,.8-.3,1.2-.5.7-1.3.7-1.9.4.3.3.3.7.2,1.2l-.1,1.3ZM72.6,14.7c-.1.2-.3.3-.1.4s.4.2.7.2.6-.3.8-.6c.3-.5.4-1.2-.1-1.5-.1-.1-.3-.2-.4-.1-.1.1-.2.3-.2.4l-.7,1.2Z"/>
  <path class="cls-1" d="M74.2,19.6c-.1-.8.3-1.7.9-2.3.6-.6,1.3-1,2.1-1.1s1.5.1,2.1.7c1.1,1,1.4,2.9.1,4.3-1.2,1.3-3.1,1.4-4.2.4-.5-.5-.9-1.3-1-2M78.2,20.4c.8-.8,1.7-2.5.8-3.3-.8-.7-2,.2-2.7.9-.4.5-.8,1-1,1.6s-.3,1.3.2,1.7c.8.7,2.1-.2,2.7-.9"/>
  <path class="cls-1" d="M81.3,20.9c.4-.4.7-.5.4-1-.1-.1-.1-.2,0-.3.1-.1.2-.1.3,0,.3.3.5.7.8,1,.2.3.5.6.8.9.1.1.1.2,0,.3-.1.1-.2,0-.3-.1-.4-.3-.5-.2-1,.2l-2.6,2.2c-.4.3-.6.6-.3,1.1.7.9,1.6.2,1.9.4.1.1,0,.2-.1.3-.3.2-.6.4-.9.6-.2.2-.2,0-.3-.1-.4-.5-.8-1-1.2-1.4-.4-.5-.8-.9-1.2-1.4-.1-.1-.1-.2,0-.3.1-.1.2,0,.3,0,.4.3.5.2,1-.2l2.4-2.2Z"/>
  <path class="cls-1" d="M84.2,26.1c-.2.2-.4.2-.2.5.1.1.3.4.4.5.2.2.4.1.6,0,.1,0,.3-.1.4,0,.1.1,0,.2-.1.3-.2.1-.5.3-.7.4s-.4.3-.7.5c-.1.1-.2.1-.3,0-.2-.3.7-.6.2-1.3l-.2-.3c-.2-.2-.3-.1-.5,0l-.9.6c-.2.1-.5.3-.6.5s0,.5.1.7c.3.5.8.7,1.4.6.1,0,.3-.1.4,0,.1.1,0,.2-.1.3-.1,0-.3.1-.4.2l-.7.3c-.1.1-.2.1-.2,0-.3-.5-.6-1-.9-1.5-.4-.6-.9-1.3-1.3-1.9-.1-.1-.1-.2,0-.3.1-.1.2,0,.3.1.4.4.5.3,1,0l2.8-1.9c.5-.3.7-.5.5-.9,0-.1-.1-.3,0-.3.1-.1.2-.1.3,0,.3.4.5.8.8,1.2.5.7,1,1.4,1.4,2.1.1.2-.1.2-.2.3l-.6.4c-.1.1-.2.2-.3,0-.1-.1,0-.2.1-.3.1-.2.2-.4.2-.6.1-.2-.1-.5-.2-.6-.1-.1-.3-.5-.5-.5-.1,0-.3.1-.4.2l-.9.7Z"/>
  <path class="cls-1" d="M86.6,33.8c-.6.3-1.1.5-1.7.3-.6-.2-.9-.7-1.2-1.2-.2-.5-.4-1.1-.3-1.6.1-.7.6-1,1.3-1.4l2.3-1.1c.5-.3.8-.3.6-.8,0-.1-.1-.2.1-.3.1-.1.2,0,.2.1.2.4.3.8.5,1.1.2.3.4.7.5,1,.1.1.1.2-.1.3-.1.1-.2,0-.3-.1-.3-.4-.5-.3-1.1-.1l-1.9.9c-.3.2-1,.5-1.3.8-.4.4-.4.9-.2,1.4.2.4.5.7,1,.8.5.1.9-.1,1.3-.3l2.2-1c.2-.1.5-.2.6-.4.1-.2.1-.3.1-.5,0-.1-.2-.3,0-.4s.2.1.3.2c.1.2.2.4.3.7l.3.6c0,.1,0,.2-.1.2-.2.1-.2-.1-.3-.2-.1-.2-.2-.2-.4-.2s-.5.2-.6.3l-2.1.9Z"/>
  <path class="cls-1" d="M91.5,37.7c.1,0,.3,0,.4.1l.5,1.5c0,.1,0,.2-.1.3-.2.1-.2-.2-.3-.3-.1-.4-.5-.2-.8-.1l-3.3,1.1c-.2.1-.5.2-.6.3-.1.1-.1.2-.1.3s.1.3-.1.4c-.2.1-.2-.1-.3-.2-.1-.4-.2-.8-.3-1.1-.1-.3-.2-.6-.3-1,0-.1-.1-.2.1-.3.2-.1.3.2.3.3.2.3.4.3.7.1l3.4-1.1-4.4-.1c-.2,0-.5.1-.6-.2-.1-.2.1-.2.2-.3l3.5-2.6-3.2.9c-.4.1-.8.2-.7.7,0,.1.1.4-.1.4s-.2-.1-.3-.2c-.1-.2-.1-.5-.2-.7-.1-.2-.2-.5-.2-.7,0-.1,0-.2.1-.2.2-.1.3.1.3.3.2.3.4.2.8.1l3.7-1c.4-.1.6-.1.5-.5,0-.1-.1-.3.1-.4.2-.1.2.1.3.2l.4,1.4q0,.2-.2.3l-2.9,2.2,3.7.1Z"/>
  <path class="cls-1" d="M89,47.5c.2,0,.7,0,.8-.2.2-.1.1-.3.1-.5,0-.1,0-.2.2-.2s.2.2.2.3l.1,1.9.1.3c0,.1,0,.2-.2.2s-.2-.1-.2-.2c-.1-.3-.2-.4-.6-.3l-.9.1c-.1,0-.2,0-.4.1-.2,0-.5-.3-.6-.5-.2-.4-.4-.9-.4-1.4-.1-.7.1-1.6.5-2.2.5-.7,1.3-1.1,2.2-1.2,2-.2,3.3,1.4,3.4,3,0,.4,0,.7-.1,1.1s-.1.4-.6.5c-.1,0-.3.1-.5.1-.1,0-.2-.1-.2-.2,0-.4,1.1-.4,1-1.5,0-.5-.4-1-.9-1.2s-1.2-.3-1.8-.3c-1.2.1-2.7.7-2.6,1.9,0,.1.1.4.2.5.2.1.5,0,.6,0l.6-.1Z"/>
  <path class="cls-1" d="M91.3,51.5c-.3,0-.4,0-.5.2v.7c0,.2.2.3.5.4.1,0,.3.1.3.2s-.1.2-.3.2c-.3,0-.5-.1-.8-.1h-.8c-.1,0-.3,0-.3-.2,0-.4.9-.1,1-.9v-.3c0-.3-.1-.3-.4-.3l-1.1-.1c-.2,0-.6,0-.8.1s-.3.4-.3.6c0,.6.2,1,.8,1.3.1.1.3.1.3.3,0,.1-.1.2-.2.2s-.3-.1-.4-.1l-.7-.1c-.1,0-.2,0-.2-.1,0-.6.1-1.2.1-1.8,0-.8.1-1.5.1-2.3,0-.1,0-.2.2-.2s.2.1.2.2c.1.6.3.5.8.6l3.3.2c.6,0,.8.1,1-.4,0-.1.1-.3.2-.2.2,0,.2.1.2.2,0,.5-.1.9-.1,1.4-.1.8-.1,1.7-.1,2.5,0,.2-.2.1-.3.1h-.8c-.1,0-.3,0-.3-.2,0-.1.2-.2.3-.2.2-.1.4-.2.5-.3.2-.2.2-.4.2-.6v-.7c-.1-.1-.3-.1-.4-.1l-1.2-.2Z"/>
  <path class="cls-1" d="M87.8,55c.6-.5,1.6-.6,2.4-.5.8.2,1.5.6,2,1.2.5.7.7,1.4.5,2.1-.3,1.5-1.7,2.7-3.6,2.3-1.8-.4-2.8-1.9-2.5-3.4.2-.6.6-1.3,1.2-1.7M89.2,58.8c1.1.2,3,.1,3.3-1,.2-1-1.3-1.6-2.2-1.8-.6-.1-1.3-.1-1.9,0-.6.1-1.2.5-1.3,1-.3,1,1.2,1.6,2.1,1.8"/>
  <path class="cls-1" d="M90.3,61.8c.5.2.8.3,1-.1.1-.1.1-.2.3-.2q.1.1.1.2c-.1.4-.3.8-.4,1.2-.1.4-.2.7-.3,1.1,0,.1-.1.2-.2.1-.1,0-.1-.2-.1-.3.1-.6-.1-.6-.7-.8l-3.2-1.1c-.5-.2-.8-.2-1,.3-.4,1.1.7,1.5.6,1.8,0,.1-.1.1-.3.1-.3-.1-.7-.3-1-.5-.2-.1-.2-.2-.1-.3.2-.6.4-1.1.6-1.7.2-.6.4-1.2.6-1.8,0-.1.1-.2.2-.1.1.1.2.2.2.3-.1.5.1.6.7.8l3,1Z"/>
  <path class="cls-1" d="M85.1,64.6c.7-.3,1.7-.2,2.5.2.7.4,1.3,1,1.6,1.7.3.8.3,1.5,0,2.2-.7,1.4-2.3,2.2-4.1,1.3-1.6-.8-2.2-2.6-1.5-3.9.2-.6.9-1.2,1.5-1.5M85.5,68.6c1,.5,2.9.9,3.4-.2.5-.9-.8-1.9-1.7-2.3-.6-.3-1.2-.5-1.8-.5s-1.3.1-1.6.7c-.4,1,.8,1.9,1.7,2.3"/>
  <path class="cls-1" d="M81.5,72.6c.2.1.5.4.7.4s.3-.2.5-.3c.1-.1.2-.2.3-.1.2.1.1.3,0,.4l-1.1,1.6-.2.3q-.1.1-.3.1c-.1-.1-.1-.2-.1-.3.1-.3.1-.4-.3-.6l-.7-.5c-.1-.1-.2-.1-.3-.2-.2-.1-.2-.6-.2-.8.1-.5.3-1,.6-1.4.4-.6,1-1.2,1.8-1.4.8-.2,1.7-.1,2.5.5,1.7,1.1,1.7,3.2.8,4.5-.2.3-.5.5-.8.8s-.3.2-.8,0c-.1-.1-.3-.1-.4-.2-.1-.1-.1-.2-.1-.3.2-.3,1.1.4,1.7-.5.3-.5.3-1,0-1.6-.3-.5-.8-1-1.3-1.4-1-.7-2.5-1.2-3.2-.1-.1.1-.2.4-.1.5.1.2.3.3.5.4l.5.2Z"/>
  <path class="cls-1" d="M78.9,75.5c-.4-.4-.6-.5-1-.2-.1.1-.2.2-.3.1s-.1-.2,0-.3c.3-.3.6-.6.8-.9.3-.3.5-.6.7-.9.1-.1.2-.1.3,0s.1.2,0,.3c-.3.5-.1.6.3,1l2.6,2.2c.4.4.6.6,1,.2.1-.1.2-.2.3-.1s.1.2,0,.3c-.3.3-.6.6-.8.9s-.5.6-.7.9c-.1.1-.2.1-.3,0s0-.2,0-.3c.3-.5.1-.6-.4-1l-2.5-2.2Z"/>
  <path class="cls-1" d="M78.6,80.8c-.1-.1-.3-.2-.1-.4.1-.1.2,0,.3,0,.5.3,1,.5,1.4.1.3-.3.4-.9,0-1.2-.3-.4-.8-.2-1.1-.1l-.4.2c-.8.3-1.6.5-2.3-.3-.4-.4-.6-1-.6-1.5,0-.6.3-1.1.6-1.4s.8-.6,1.2-.7c.3-.1.4,0,.6.3l.4.4c.1.1.4.3.2.5-.1.1-.4,0-.5-.1-.3-.2-.5-.3-.8-.3s-.6.1-.8.3c-.4.4-.5,1-.1,1.5.5.5,1.2.2,1.7,0,.7-.2,1.5-.5,2.2.2.9.9.5,2.2-.1,2.8-.2.2-.6.5-.9.6-.2,0-.3-.1-.4-.2l-.5-.7Z"/>
  <path class="cls-1" d="M73.5,80.6c-.3-.4-.5-.6-.9-.4-.1,0-.2.1-.3,0s0-.2,0-.3c.3-.3.7-.5,1-.7s.6-.5.9-.8c.1-.1.2-.1.3,0s0,.2,0,.3c-.4.4-.2.5.2,1l2.5,3.1q.2.2.3.1c.4-.3.4-.7.3-1.3,0-.1-.1-.4.1-.5.1-.1.2,0,.2.1s.1.1.1.2l.5,1c.1.1.2.3,0,.4-.1.1-.1,0-.2,0-.2-.2-.2-.1-.4.1l-2.3,1.8c-.2.2-.4.3-.3.6v.3c-.1.1-.2,0-.3-.2l-.7-1c-.1-.1-.2-.3-.1-.4.1-.1.3,0,.4.1.6.4.8.5,1.3,0,.2-.1.2-.2,0-.3l-2.6-3.2Z"/>
  <path class="cls-1" d="M71,86.5c-.1-.1-.2-.3-.1-.4.1-.1.2,0,.3.1.4.4.9.7,1.3.4.4-.2.6-.7.3-1.2-.3-.4-.7-.4-1.1-.3l-.4.1c-.8.2-1.6.1-2.2-.8-.3-.5-.4-1.1-.3-1.6.1-.6.5-1,.9-1.3.3-.2.9-.4,1.3-.5.3,0,.3.1.5.4l.3.4c.1.1.3.4.1.5s-.3-.1-.5-.2c-.2-.2-.4-.4-.7-.5s-.6,0-.9.2c-.4.3-.8.9-.4,1.4.4.6,1.1.5,1.7.4.7-.1,1.6-.1,2.1.7.7,1.1,0,2.2-.8,2.7-.2.1-.7.3-1,.3-.2,0-.2-.1-.3-.3l-.1-.5Z"/>
  <path class="cls-1" d="M44.6,93.2c-.2,0-.4-.1-.4-.2-.1-.2,0-.6,0-.8l.6-4.3c0-.1.1-.4-.1-.4h-.1c-.6.2-1.2.3-1.8.4-.2,0-.5,0-.6.3,0,.1.1.2.2.2h.4l.3-.1h.2c.1,0,.1.1.1.2v.5l-.5,3.4c0,.2-.1.5-.3.6s-.3.1-.5,0c-.1,0-.4-.1-.4.2,0,.2.1.2.2.2h.6c.2,0,.4,0,.6.1.3,0,.5.1.8.1.2,0,.4.1.6.2.1,0,.3,0,.3-.2.2-.3-.1-.4-.2-.4"/>
  <path class="cls-1" d="M48.1,87.8c-1,0-1.9.9-2,2.1,0,.9.6,1.9,1.4,1.9.2,0,1-.1,1-.4q0-.1-.1-.1c-.1,0-.2.1-.3.1-.3,0-.6-.4-.7-.7-.2-.4-.3-.9-.2-1.3,0-.3.1-.6.2-.9.1-.2.3-.3.5-.3.4,0,.7.5.8.9.2.4.2.9.2,1.4-.1,1.7-1.1,3.4-2.5,3.9-.1,0-.3.1-.3.2s.1.2.2.2c.2,0,1-.3,1.2-.5.5-.2.9-.6,1.3-.9.7-.8,1.3-1.8,1.3-3,0-1.4-.8-2.6-2-2.6"/>
  <path class="cls-1" d="M54.1,93.2c-.2,0-.4,0-.5-.1s-.1-.6-.1-.8l-.3-4.4c0-.1,0-.4-.2-.4,0,0-.1,0-.1.1-.5.3-1.1.6-1.6.8-.2.1-.5.2-.5.4,0,.1.1.2.2.1.1,0,.3-.1.4-.1l.3-.2c.1,0,.1-.1.2-.1s.1,0,.2.1c0,.1,0,.3.1.5l.3,3.4c0,.2.1.5-.1.6-.1.1-.3.1-.5.1-.1,0-.4,0-.4.2s.1.2.3.2.4-.1.6-.1.4-.1.6-.1h1.6c.1,0,.3,0,.3-.2h-.8"/>
  <path class="cls-1" d="M58.6,86.9l-2.6.5-1.1.1h-.2c-.1,0-.1.2-.1.3l.2.9q.1.3.3.2l2.5-.5c.1,0,.2-.1.2.1s-.1.8-.1,1l-.7,3.8c0,.1-.1.2,0,.3,0,.1.1.1.1,0h.1q.1,0,.2-.1c0-.1.1-.3.1-.3l.4-2,.8-3.8c0-.1.1-.3.1-.4l-.2-.1"/>
  <path class="cls-1" d="M49.3,1.9C23.2,1.9,1.9,23.1,1.9,49.3s21.2,47.4,47.4,47.4,47.4-21.2,47.4-47.4S75.4,1.9,49.3,1.9M49.3,95.7c-25.6,0-46.4-20.8-46.4-46.4S23.7,2.9,49.3,2.9s46.4,20.8,46.4,46.4-20.8,46.4-46.4,46.4"/>
  <path class="cls-1" d="M49.3,0C22.1,0,0,22.1,0,49.3s22.1,49.3,49.3,49.3,49.3-22.1,49.3-49.3S76.5,0,49.3,0M49.3,97.6C22.7,97.6,1,75.9,1,49.3S22.7,1,49.3,1s48.3,21.7,48.3,48.3-21.6,48.3-48.3,48.3"/>
  <path class="cls-1" d="M49,13.8c-19.6,0-35.6,16-35.6,35.6s16,35.6,35.6,35.6,35.6-16,35.6-35.6c0-19.7-16-35.6-35.6-35.6M51.6,18.1c.7,0,.8.1,1,.5.2.7-.5,1.3-.4,1.8-.3-.5-.1-1-.3-1.5-.2-.6-1.6-.5-1.9-.7-1-.5.2-1.4-.5-1.8-.6.2-.7.2-1.2.2-.4-.3-.7-.4-.4-1.1.2.3.9.4,1.7.3.8,0,1.3.5,1.1,1.1-.4.6.2,1.2.9,1.2M59.6,33c.4.2.8.4,1.3.6,2.5,1.8,4.6,4.1,6.1,6.8,0,.7-.1,1.5-.4,2.3l-.9-.3s-.2,0-.5-.1c-1.8-2.8-4-4.7-6.2-6.1.4-1,.7-2.1.6-3.2M59.5,32.7s.1.1,0,0c.1.1,0,.1,0,0h0ZM65.1,60.4c-.1-.1-.2-.2-.3-.3-.1-.1-.3-.3-.4-.4.2,0,.4-.1.6-.1h.2s0,.1.1.1c.3.5.6.8.9,1.1q.1.1.2.2c-.5-.2-.9-.3-1.3-.6M65.8,61.3c-.2.2-.3.4-.5.7,0-.4-.1-.7-.1-.8v-.1c.2.1.4.1.6.2M64.6,60.6h0c.1.3.1.5.2.6,0,.1.1.8.1,1.4-.1.1-.1.2-.2.3,0-.7,0-1.4-.1-2.3M49.4,79.9c-.3,0-.6.1-.9.3-.3-.2-.6-.6-.7-1,.4,0,.9.1,1.3.1.6,0,1.2,0,1.7-.1-.1.4-.4.7-.7,1-.2-.2-.4-.3-.7-.3M50.1,81.5c0,.4-.3.7-.7.7s-.7-.3-.7-.7.3-.7.7-.7.7.3.7.7M47.3,78.2c-.4,0-.5-.4-.5-.6,0-.3.1-.7.3-.9.4.4,1.2,1,2.2,1,.9,0,1.8-.5,2.2-.8.2.2.2.5.2.7,0,.3-.2.4-.5.5-1,.2-2.6.2-3.9.1M47.8,76v-5.1h.3v5.3c-.1,0-.2-.1-.3-.2M48.5,76.5v-5.6h.4v5.7c-.1,0-.2,0-.4-.1M49.4,76.7v-5.8h.5v5.7c-.1.1-.3.1-.5.1M50.4,76.4v-5.5h.3v5.4c-.1,0-.2.1-.3.1M49.3,70c-1.2,0-2.3-.1-3.4-.3-.7-.3-1.4-.7-2.2-1.2,2.6-.1,4.6-.5,6.5-1.2,1.2.8,2.5,1.5,3.8,2.1-1.5.4-3,.6-4.7.6M27.7,51.7c-.1,0-.1.1-.2.1-.1.1-.3.1-.4.2s-.2.1-.4.2c0,0-.1,0-.1.1-.7.5-1.2,1.1-1.2,2.1h0v.4h0c.2.5.8,1,1.6,1.4-.1.3-.1.5-.1.8-2.6-.9-3.3-1.8-3.7-2.4q-.1-.1-.1-.2c0-.1-.1-.1-.1-.2,0,0-.1-.5.1-.9.5-.8,1.6-1.8,3.3-2.3.4.1.9.3,1.5.4v.1c0,.2-.1.2-.2.2M27.7,53.2c-.1.9-.3,1.7-.4,2.6-.7-.4-1.1-.7-1.2-1,.2-.9.9-1.4,1.6-1.6M24.6,48.5s0-.1,0,0c-.1-.1-.2-.1-.2-.1-.8-.6-1.2-.9-1.5-1.3-.1-.1-.2-.3-.2-.4-.1-.3-.1-.6.1-.8.5-1.2,3-2.8,6.8-3.1-.1.2-.1.4-.2.6-.2,0-.5.1-.8.1-1.5.3-3.6,1-3.6,3.1h0v.3h0c.3,1,1.7,1.7,3.3,2.2v.4c0,.1,0,.3-.1.4-1.7-.4-2.8-.9-3.6-1.4M65.4,42.9h.1l.8.2c-.1.2-.2.5-.3.7-.2-.3-.4-.6-.6-.9M66.3,44.9c-.2,0-.5.1-.9.3.2-.3.4-.6.6-.9.1.2.2.4.3.6M65.8,44.1c-.3.5-.6.9-.9,1.4-.2.2-.5.4-.7.6-.4.4-.8,1-1.1,1.6-.6.6-1.2,1.2-1.8,1.8l-.2-.2c0-.2-.1-.4-.2-.5l-.6-1.8h-.7l-.1-.1h.9l.1-.1q.1-.1.1-1.8h.1c.1.2.2.9.2,1v.2h.2c.1,0,.2,0,.7-.6l.1-.1-.4-.9h.3c.1,0,.2,0,.6-.8.1-.1.5-.6.6-1h.5c.5,0,1.2.1,1.6.1.3.4.5.8.7,1.2M63.8,53.8h0v.1c0,.7.1,1.4.2,2v.1c0,.3.1.6.1.8.1.3.1.6.2.8l-1.2-.4c-.3-1-.5-2.2-.5-3.8v-1.4h.1c.2,0,.3-.1.5-.1s.4-.1.6-.1c0,.6,0,1.3,0,2h0M36.9,61.6c-.2-.3-.4-.7-.6-1,.6.1,1.1.1,1.7.1-.1.3-.1.5-.2.8-.3,0-.6.1-.9.1M37.7,61.7c-.1.4-.2.7-.2.7,0,0,0,.1-.1.1-.2-.2-.3-.5-.5-.7.4,0,.6,0,.8-.1M36.8,61.9s-.1,0,0,0h0M36.3,61.1c.1.2.2.3.3.5h-.1c-.1-.1-.1-.2-.2-.5M36.4,62.2l-.9.5c-.1-.1-.3-.3-.4-.4,0-.1-.1-.2-.1-.5q0-.1-.1-.2c-.1-.3-.2-.7-.3-1.2.4,0,.7.1,1.1.1.2.6.3.9.3,1.1h0c0,.1.1.2.1.2h0v.1c.1.1.2.2.3.3M37.9,58.8c-.7,0-1.4-.1-2.2-.2h-.8l.4-.1h0l.2-.1c1.2.1,2.3.3,3.2.3q0,.1-.1.2c-.3,0-.5,0-.7-.1M30.2,46.1c.1-.2.2-.5.2-.7h.8l.1-.1c.1-.1.1-.2-.2-1.5.2-.4.4-.8.6-1.2.3-.2.6-.4.7-.4l1.2-.2c-.5,1.4-.8,2.9-.9,4.5l-2.5-.4ZM32.7,46.9v.8c-.1-.2-.1-.3-.1-.4-.1-.2,0-.3.1-.4M30.6,44.8c.1-.1.1-.3.2-.4,0,.2.1.3.1.4h-.3M31,43.3c.1-.3.2-.6.3-.6h0c-.1.2-.2.4-.3.6h0M32.5,41.4c.1,0,.2,0,.2.1l-.5.1h-.1c.1-.1.1-.2.2-.3,0,0,.1,0,.2.1M32.4,41.1c.1-.1.1-.2.2-.3l.5.5v.1c-.2,0-.4-.1-.6-.1q0-.2-.1-.2M33.9,41.6h.6l.1.3-.3.7-.8.3c.1-.4.2-.7.3-1.1l.1-.2h0ZM34,41.4c.1-.2.2-.4.3-.6l.2.6h-.5M34.6,42.9c-.2.1-.5.3-.9.6v-.3l.9-.3ZM32.9,46.3c0-.7.1-1.3.2-1.9l.4-.2c.6-.4,1.4-.9,1.5-1s1-.9,1.6-1.5l1.2-.1c-.1,2.7.2,5.5.8,8.3-.3.1-.7.1-1,.1-1.5-.1-2.9-.2-4.4-.4-.1-.4-.2-.7-.3-1v-1.9l.6-.3-.6-.1ZM40.1,33.2h0c.2-.1.4-.2.6-.3v.2c-.3,0-.5.1-.6.1M40.6,33.3v.2h-.5c.2-.1.4-.1.5-.2M40.6,33.7v.4h-.6l-.3-.5c.3.1.6.1.9.1M40.3,35.1c-.2.1-.4.1-.6.2,0-.1-.1-.2-.1-.3v-.3c.1,0,.2,0,.3-.1l.4.5ZM39.8,34.2c-.4.1-.5.2-.5.3v.5c0,.5.2.8.5.8.2,0,.6-.1.9-.2l.1.1c-.2.1-.3.1-.4.2l-.6.2v.1c-.4.5-.4.7-.3.7l.1.2h.2c.1,0,.7-.1,1.1-.1l-1.4.3-.9.6c.2-1.4.6-2.8,1.1-4l.1.3ZM48.3,36.7c-.1-.2-.1-.3-.2-.4.6.4,1.3.8,2,1.2l-.5-.2-.2.9h-.9l-1.1,1.6,1.3-.3.5-.4.1,1.7,1.1-.6v-.2c-.1-.8-.2-1.2-.3-1.3v-.3l.3.3,1,.2.1-.6c.9.7,1.7,1.4,2.6,2.3.2.3.4.5.5.7-.2.2-.4.4-.6.6h-.4l-.1.1-1,1c-.1.1-.4.3-1.4,1.1l-.1.1.1.2c-1.2.9-2.4,1.7-3.6,2.4l-4.8-8c.5-.3,1.2-.9,2.1-1.6h1.6l1.8-.3.1-.2ZM49.9,40l-.1.1-.1-.9v-.1h0c.1.2.1.6.2.9M49,38.7l-.5.4h-.1l.3-.4h.3ZM50.1,38l1,.4v.3l-.6-.2-.4-.5ZM51.7,36.5l.1-.5v-.3h0l.1-.8.5-.2.5.7-.3.5-.1,1.1.3,1v.9c0,.2.1.3.9.5.1.4.1.7.1.9h0v.1c-.8-.7-1.5-1.4-2.3-1.9l.1-.7v-1.3h.1ZM57.1,43.9c.7.8,1.3,1.6,1.9,2.4h-.6c-.2-.1-.5-.3-.6-.4,0-.2-.3-.2-1.7-.2-.1,0-.3,0-.3-.1v-.3c0-.5,0-.7-.1-.8l-.1-.1h-.1c-.1,0-.4.1-1,.2h-.2v.2c-.2,1.3,0,1.5,0,1.5h0v.3c-.4.1-.8.2-1,.2-.2-.1-1.1-.5-1.3-.7v-.8l-.5-1c.1,0,.1-.1.2-.1.3-.3.7-.5,1-.8.1,0,.3-.2.7-.6.1-.1.3-.2.4-.4l.5.1c1,.8,1.2.8,1.3.8h.1l.1-.1s.1-.1.2-.5c.1.1.2.2.2.2-.1.1-.2.3-.3.6l-.2.4h1.4ZM56.7,43.5h0ZM56.9,43.4h1l.4-.1-.1.2h-.9l-.4-.1q.1,0,0,0M60.1,48c-.5-.2-1.1-.5-1.9-.6h.1l1.5.1c0,.1.1.3.3.5M60,47.4h0q0,.1,0,0M62.7,57.3c-.2.1-.4.1-.6.1-1.4.3-2.5.6-7.6.7,0-1-.1-1.8-.1-1.8v-.1s6.4,0,6.9-4.1c.3,0,.6-.1.9-.1v1.4c0,1.6.2,2.8.5,3.9M47,59.1l.3-.2c1,0,2.1,0,3.4-.1l.4.2c-1.1.1-3,.1-4.1.1M47.9,62.5c.2.3.4.6.5.7l-.3.3c-.1-.1-.3-.3-.5-.6,0-.1-.2-.8-.5-1.9h.4c.3,1.1.4,1.4.4,1.5M44.1,35.3l.3.7.3,1.1c-.8.6-1.5,1.1-1.9,1.4l-1-1.7.2-.1.9-.9,1.2-.5ZM43.4,34.3h0ZM44.2,34.5c.8.3,1.6.6,2.4,1-.5.5-1,.9-1.5,1.3h-.1l-.2-.9-.4-1.3-.8.3-.1-.5.1.1h.2c.1.1.2,0,.4,0M44,34.1c0-.1.1-.2.1-.4l.4.1v.1c-.1,0-.3.1-.5.2M42.7,39l4.8,8h-1.6l.2.3c0,.1.1.2.1.3-.2.1-.4.2-.7.3l-.4-.2-.1-.2.2-.2h-.3l-.1-.2-3-2.3-.5-2.1-2.3-1.7-1,.1v-.2c2.1-.6,3.9-1.5,4.7-1.9-.1,0,0,0,0,0M52.8,47.2l-3.3.3.6.4c.4.2.6.4.7.5v.1c-.1,0-.2,0-.3-.1-.9-.4-2.4-1.1-2.6-1.3l-.1-.1c1.2-.7,2.4-1.5,3.6-2.4l.4.8v.9c-.1.3.5.6,1,.9M49.1,49.1s-.1,0-.1-.1l-.7-1.1c.4.2,1,.5,1.9,1h.1c.1,0,.2,0,.4.1v1.4h-.9l-.5-.9.4-.1-.6-.3ZM47.9,47.7l.7,1.1c-.8-.4-1.5-.9-1.7-1,0-.1-.1-.1-.1-.2.1,0,.2-.1.3-.1h.5c0,.1.1.1.3.2M48.3,49.3h0l-2.5-1.2c.2-.1.3-.1.5-.2,0,.1.1.1.1.2s0,.1,1.9,1.2M44.7,47.9l.1.2.1.1c-.1.1-.3.1-.4.2.1-.2.2-.4.2-.5M43.8,48.2h-2.4l.5-.4h2.4c-.1.1-.5.4-.5.4M44.7,50.7l-.3.4c-.3-1.1-.5-1.8-.6-2v-.3c0-.1.1-.2.1-.3l.1-.1.1-.1c0,.1,0,.2.1.3,0,.3.2,1,.5,2.1M43.7,58.4h-1.6c-.1-.2-.2-.3-.3-.5l.8-3.2c.4,1,.8,2.4,1.1,3.7M42.3,53.2c0,.2.1.4.2.6l-.9,3.6-.1.3-.2.7-.4.3.4-1.5v-.2l1-3.8ZM41.9,58.4h-.1v-.1s.1,0,.1.1M41.6,58.8h2.2c0,.1.1.2.1.3h-2.8l.5-.3ZM44.4,61c.1.4.2.8.3,1.2-.3-.4-.6-.8-.9-1.2h.6M44.6,48.6c.2-.1.5-.2.7-.3l2.9,1.5.8-.2.5.8c-1.5,0-2.9.1-4.4,0-.3-1-.5-1.7-.5-1.8M45.1,50.9h5.6l.5.5h-6.5l.4-.5ZM51.4,48.6c.1,0,.1.1.2.1h0l.1.1v2.2l-.5-.5v-2.1h0c0,.1,0,.2.2.2q-.1,0,0,0M51.3,53h.4v6l-.5-.4v-5.3l.1-.3h0ZM45.3,53.1c.3,1.1.6,2.2.9,3.3.2.8.4,1.6.6,2.2l-.3.3c-.2-.8-.5-1.6-.7-2.5-.3-1.2-.6-2.4-.9-3.3h.4M46.7,56.3c-.3-1.1-.6-2.2-.9-3.2,1.5,0,3.2,0,4.9-.1v4.1c-.8.4-1.7.9-2.7,1.3h-.8c-.1-.7-.3-1.4-.5-2.1M50.7,57.4v1h-2.1c.8-.3,1.5-.7,2.1-1M51.2,62.6v-1.7h.5v2.2s0,.2-.1.3l-.5-.3c.1-.3.1-.5.1-.5M51.4,48.1l-.4-.3,3.8-.3h1.3c.4,0,.7.1,1.1.1-.4,0-.9,0-1.4.1h-.3l-4.1.4ZM57.8,52.5c.5-.6.4-1.3.3-2v-.5c.2.1.4.2.4.4v.6c0,.4.1.8,0,1.1v.2c-.1.1-.1.3-.2.4-.2.3-.7.5-1.2.7-.2.1-.4.1-.6.2-.5.1-1.2.2-2,.3h0c1.4-.2,2.3-.5,2.9-.9h.1c.1-.1.3-.2.4-.3-.2-.1-.1-.2-.1-.2h0ZM57.4,52.3c-.4.5-1.4.9-3,1.1v-3.7h1.1c.9,0,1.6.1,2.1.2v.7c.1.6.2,1.2-.2,1.7M58.1,46.8l-1,.3c-.7-.1-1.5-.2-2.2-.2h0c.1-.6,0-.8,0-.8l-.1-.1v-1c.2,0,.4-.1.5-.1v.6c0,.4.4.5.8.5h1.3c.1.4.3.5.7.8h1.1s0,.1.1.1l-1.2-.1ZM55.7,42.8c-.2-.1-.6-.4-.9-.6h-.4c.1-.1.3-.3.4-.4.2.2.6.6.8.8.1,0,.1.1.1.2M46.5,36.8h-1c.4-.4.9-.8,1.3-1.2.2.1.4.2.6.3.1.2.2.4.3.7l-1.2.2ZM47.1,34.8c.1-.1.2-.1.2-.2.1-.1.2-.2.3-.2-.1.2-.3.3-.4.5,0,0-.1-.1-.1-.1M47.5,33.9c-.1-.3-.5-.9-.7-1-.1,0-.3-.1-.5-.2.8,0,1.6.1,2.4.2-.1.3-.3.5-.5.8-.5.1-.7.1-.7.2M46.5,33.4c.1.1.3.4.4.6-.1.1-.4.2-.6.3l-.4-.7-.5-.2.1-.4c.5.1,1,.3,1,.4M45.6,33.9l.6.9.2-.1c.1,0,.1-.1.2-.1-.1.1-.1.2-.1.3s.1.2.2.2c0,0,.1.1.2.2l-.1.1c-.8-.4-1.5-.7-2.3-.9.1,0,.2-.1.2-.1h.2l.1-.6.6.1ZM44.9,33.4l-1.1-.2-.1.2c-.1.3-.2.6-.3.7h-.1v-.2h-.6c-.2-.1-.4-.1-.6-.1l-.1-.1c.7-.2,1.2-.4,1.3-.4,0,0,.1,0,1.3-.5h.4l-.1.6ZM42.8,34.3h.2l.1.5c-.4.2-.8.4-1.1.5h0l-.2.1c-.1-.2-.2-.5-.3-.9l.5-.3c.2.1.4.1.8.1M41.6,35.9q.1,0,0,0c.1,0,.2,0,.7-.2l-.6.7-.2.1-.1-.2.2-.4ZM41.5,37l1,1.7h0c-.8.5-2.6,1.3-4.4,1.8.1-.8.1-1.6.2-2.4h.1l1-.6,1.8-.4.3-.1ZM40.9,36.3c-.3,0-.7.1-.9.1h0l.7-.2h0c.1,0,.2-.1.3-.1v.1l-.1.1ZM38.2,37.8l-1.2.1-.4.7c-.5.2-1.1.4-1.4.4,1.2-2,2.6-3.7,4.1-5-.6,1.1-.9,2.4-1.1,3.8M36.7,39h0l.5-.7.8-.1c-.1.4-.1.8-.2,1.2,0,.4-.1.9-.1,1.3-.9.3-1.9.5-2.9.6l-.3-1.1c.2-.3.4-.6.5-.7.2-.1.6-.2,1.7-.5M37.8,41v.2l-1.2.1c.4-.1.8-.2,1.2-.3M35,41.5c.5,0,.9-.1,1.4-.2h0c-.2.1-1.4,1.3-1.7,1.5l.4-1-.1-.3ZM38,41.6l.9-.1,2,1.5.5,2.1,2.9,2.2h-2.7l-1.4,1.2h.6c.1.2.1.5.1.6,0,0,0,.2-.1.4-.7.2-1.3.3-2,.4-.6-2.6-.9-5.5-.8-8.3M40.8,49.7c0,.2-.1.3-.1.5-.6,0-1.2-.1-1.8-.1h0c.6-.1,1.2-.2,1.9-.4M40.6,60.9v.3l-.2.7c-.1.3-.1.7.1,1l-.3.3c-.3-.2-.3-.3-.3-.3l.4-1.4.1-.2.1-.2c-.1-.2,0-.2.1-.2M39.9,53.4c-.1-.2-.1-.3-.2-.4h.3c-.1.1-.1.3-.1.4M39.8,53.8c-.4,1.4-.7,3-1.1,4.4-.9-.1-1.9-.1-3.2-.3-.4-1.6-.9-3.4-1.3-5,0-.1-.1-.2-.1-.3,1.6.2,3.4.3,5.5.4-.1.3,0,.5.2.8M40.2,63.7l1.1-1-.4-.1c-.2-.1-.1-.5-.1-.6l.2-.8c.3-.1.6-.2.9-.2h1.5c.4.6.9,1.1,1.4,1.7.1.3.1.5.2.6.1.4-.5.7-.5.7l1.6.1c1.2,1.2,2.4,2.2,3.8,3.1-2,.7-4,1-6.6,1.1-1.9-1.2-3.6-2.8-5.2-4.8,1.1.1,2.1.2,2.1.2M46.5,64l1.7.1,1.1-.9-.3-.2s-.3-.2-.6-.7c0-.1-.2-.6-.4-1.3.9,0,1.8,0,2.7-.1v1.7s0,.1-.2.3l-.2.2,1.3.8,3.7-.3s-.5-.5-.5-.6c-.1-.1-.1-1.1-.2-2.3.4,0,.7,0,1.1-.1l1.6,2.7c-2.7,1.6-4.8,2.8-7,3.6-1.4-.8-2.7-1.8-3.8-2.9M55.9,60.7c2.5-.2,4.5-.4,6.3-.7-1.4,1.1-3,2.2-4.8,3.3l-1.5-2.6ZM54.8,59.1h-.2v-.5h.2c5-.2,6.1-.4,7.5-.7.2,0,.4-.1.7-.1l1.1.3h-.1c-.1,0-.2,0-.3.1l-.5.1c-2.6.4-5,.6-8.4.8M62.8,50.3l-.5.1h-.3c-.2,0-.4.1-.6.1h-.2v-.3h0v-.2c.1,0,.3,0,.4-.1h0c.3-.1.6-.1,1-.2l.9.4c-.2.2-.4.2-.7.2M62.5,49.4c-.5.1-.7.2-.9.2.4-.4.8-.8,1.2-1.2-.1.2-.2.6-.3,1M63.5,42.3c-.4,0-1,0-1,.4,0,.2-.2.5-.5.8-.1.2-.2.4-.3.5h-1l.2.4h-.5c-.3,0-.4.2-.4.3v1.6h-.7c-.6-.8-1.2-1.7-1.9-2.5h1q-.1.1-.2.2l-.1.1.4.9,1.5-.5-.3-.3c-.3-.2-.6-.5-.7-.6l-.1-.1h-.2l.5-.9,1,.5,1-1-1.4-.3-.4.4.1-.1-1.5.7h-1.3c-.1-.1-.2-.2-.3-.4v-.3l-.1-.1-.9-.8c.4-.4.7-.7,1-1.1.9-1.1,1.9-2.4,2.6-3.7,2.1,1.4,4.2,3.3,6,5.9-.6,0-1.1,0-1.5,0M58.6,44.3l.1-.1c.1.1.2.1.3.2l-.3.1-.1-.2ZM59.7,42.6l.2-.2.5.1-.3.3-.4-.2ZM56.1,40.1c-.3.4-.7.7-1,1.1-.2-.2-.6-.7-.7-.9,0-.1,0-.5-.2-1.2v-.2h-.2c-.2,0-.5-.1-.7-.2v-.8l-.3-1,.1-.8.4-.7-.9-1.2-1.2.5v.1-.1l.4-.7-.6-.6c.5.1,1,.2,1.5.4,1.7.5,3.8,1.3,6,2.7-.7,1.2-1.7,2.5-2.6,3.6M51.2,34l-.3.6.4,1.2v.1c-.2.8-.3,1.2-.3,1.4-.1.1-.1.2-.1.5h0c-1-.7-1.9-1.3-2.8-1.8-.2-.4-.3-.5-.4-.5q-.1-.1-.2-.2l-.1-.1c.3-.3.5-.6.8-.9.2,0,.6-.1.9-.1l1.7-.6.4.4ZM48.9,33.6c-.1,0-.2,0-.4.1.2-.2.3-.5.4-.7.5.1.9.1,1.4.2l-1.4.4ZM48.8,32.7c-.7-.1-1.3-.1-2-.2h1.7v-.2c.1-.3-1-1-1-1-.1,0-.4-.1-.9-.3.8-.1,1.6-.2,2.4-.2.2.6.1,1.2-.2,1.9M46.2,30.8h-.1c-.3-.1-.6-.2-.7-.2h-1c1.3-.3,2.6-.5,4-.6.3.2.5.5.6.6-1,0-1.9.1-2.8.2M44.9,31h.2c-1.4.3-2.7.7-4,1.4.7-.5,1.3-.9,1.9-1.3.4,0,1.4-.1,1.9-.1M45.6,31.1c.1,0,.2.1.3.1.5.2,1.4.4,1.5.5.1,0,.2.2.4.3-.8,0-2.4.1-2.6.1h-.1c-.4.2-.9.3-1.2.5-1,.1-1.9.2-2.8.4v-.3c1.4-.7,2.9-1.2,4.5-1.6M42.7,32.9c-.5.2-1.1.4-1.6.6v-.3c.5-.1,1.1-.2,1.6-.3M41.6,33.9h0l-.6.5v.2c.1.5.2.8.3,1-.2,0-.3.1-.4.1l-.1-.1h.1l-.2-1.2.3-.1c.2-.3.4-.4.6-.4M40.6,32.2v.3c-.2.2-.4.3-.7.5,0,0-.1,0-.1.1.2-.4.4-.7.6-1,.2-.1.4-.2.6-.3-.3.2-.4.3-.4.4M39.5,33.2l-.3-.5c.3-.2.6-.3.9-.5-.2.3-.4.7-.6,1M39.3,33.4h0c-.5,0-1,0-1.3.1.3-.2.7-.4,1-.6l.3.5ZM38.7,33.6c-.8.3-1.4.5-2.1.9.3-.3.7-.5,1.1-.8.2,0,.6-.1,1-.1M38.4,34c-1.5,1-2.8,2.3-4,3.7v-1.1c.4-.5.9-.9,1.4-1.4.8-.5,1.7-.9,2.6-1.2M38.9,33.9c-1.5,1.4-3,3.1-4.2,5.2-.1.1-.3.4-.6.9l-.1.1.1.2c-.1.3-.3.6-.4,1l-.3-.4-.6-.6c.2-.3.4-.6.5-.8.4-.3.8-.6.9-.7q.1-.1.1-.8c1.4-1.6,2.9-3,4.6-4.1M33.9,38.3c-.1.1-.2.3-.3.4-.2.2-.5.4-.8.6l-.7,1,.3.3c-.1.1-.2.3-.2.4-.2-.1-.4-.3-.4-.5v-.1c.6-1.2,1.4-2.3,2.3-3.3-.1.5-.1.9-.2,1.2M32.1,41.2c-.1.2-.2.4-.4.7-.3.2-.6.3-.6.4-.2.1-.4.4-.5,1v.2c.1.2.1.5.2.7-.1.3-.2.5-.3.8l-.4-.2c.4-1.4.9-2.7,1.5-3.9.1,0,.2.1.5.3M30.1,45.2l.2.1c-.1.3-.2.5-.3.8h-.3c0-.1.1-.3.1-.4.1-.2.2-.4.3-.5M29.8,46.5l2,.2-.6.3-1.3-.1h-.7l.3-.1.3-.3ZM31.1,57.1c-.1,0-.2-.1-.3-.1h-.2c0-.1-.1-.2-.1-.3l.2-1.2c.1.5.2,1.1.4,1.6M30.4,54.4l-.4,2.6-.9.4.2-1.3.2-1.2.4-2.5c.1.6.3,1.2.5,2M25.6,46.9c.4-1.3,2.4-1.7,3.3-1.9-.1.5-.2,1-.3,1.6l-1.1.5.8.1c.1.1.2.1.2.2-.1.4-.1.9-.1,1.3-1.6-.5-2.5-1.2-2.8-1.8M28.8,59.4c.2.1.5.1.8.2l-.1.8h0c0,.1.1.5.2.9l-1,.5c-.1-.2-.2-.5-.2-.7l.3-1.7ZM29.6,57.7l.3-.1.5-.2.3.1h.2c.2,0,.3.1.4.1l.1.5c-.1,0-.2,0-.3-.1-.2,0-.5-.1-.7-.1l-.4-.1h0q-.3,0-.4-.1M31.2,48c-.1-.2.1-.4.2-.5l.7-.3c0,.1,0,.2.1.4,0,.1.3,1,.6,2.3l-.9.6c-.5-1.5-.7-2.4-.7-2.5M33.1,50.1c.5.1,1.1.1,1.7.2h0c1.3.1,2.6.2,3.9.3h.2c.5,0,1,.1,1.6.1-.1.2-.1.4-.2.7-.5,0-.9-.1-1.3-.1h-.1c-1.9-.1-3.7-.2-5.4-.4l-.5-.1h-.2c-.2,0-.4,0-.6-.1l.9-.6ZM33.2,52.5h.3c0,.2.1.3.1.5.6,2.1,1,3.7,1.3,4.9l-1,.4c-.4-1.5-.9-3.2-1.3-4.7-.1-.4-.2-.9-.3-1.3.3.1.6.1.9.2M35.4,63.2h.1l1.6-.8c.1.1.2.2.2.3-.2.3-.5.6-.5.6.2,0,.6.1,1,.1,1.5,2,3.2,3.6,5.1,4.9h-1.6c-2.8-1.2-5.2-3.1-7.2-5.3l1.3.2ZM43.3,68.5c.6.4,1.1.7,1.7,1-1.1-.2-2.1-.6-3.1-1,.5.1,1,0,1.4,0M50.5,67.2c2.1-.8,4.2-1.9,6.9-3.6l2.1,3.5c-1.6.9-3.2,1.6-5,2.1-1.5-.5-2.8-1.2-4-2M57.6,63.5c1.9-1.2,3.7-2.4,5.2-3.6.4-.1.7-.1,1.1-.2.2.2.3.4.5.6.1,1.2.1,2.1.1,2.7-1.4,1.6-3,2.9-4.7,4l-2.2-3.5ZM65.8,46.5c-.8.8-1.4,2-1.7,3.5l-1.1-.5c1-3.8,3.4-4,3.5-4h.9c-.1,0-.2.1-.2.1,0,0-.1,0-.1.1-.1,0-.2.1-.3.2,0,0-.1,0-.1.1-.1.1-.2.1-.3.2l-.1.1c-.2-.1-.3,0-.5.2M66.8,52v-1.1c0-.2,0-.4.1-.6v-.3c0-.2.1-.4.1-.6v-.2c.1-.6.3-1,.5-1.3.3,1,.7,2,.9,3.1-.1.1-.2.3-.3.4-.4.6-.6.9-.6,1-.1.3-.1.7-.2,1.1-.1.5-.2,1-.3,1.4-.1.2-.1.4-.1.7l-.1.1v-2.4c0-.5,0-.9,0-1.3M69.5,47.7q.1,0,0,0c.1.2.2.3.2.4v.1c.1.1.1.2.1.4q0,.1.1.2c0,.1.1.2.1.3v.2c0,.1,0,.2.1.3v.3l-1.2-.2c-.1-.8-.3-1.8-.7-2.5q.1,0,.2-.1h.4c.1,0,.2.1.3.2h0c.3.2.4.3.4.4M69.3,43.6c1,.3,2.6.9,3.1,1.9-.1.3-.5.7-1,1-.5-.6-1.1-.9-1.7-1.1,0-.6-.2-1.2-.4-1.8M69,52.5c-.1-.4-.1-.7-.2-1.1.3-.4.4-.6.4-.8,0-.1,0-.3.1-.4h.1c0,.6,0,1.1-.1,1.7-.1.2-.2.4-.3.6M69.1,52.7v.2-.2M67.8,53.8c0-.1,0-.2.1-.3.1-.3.1-.7.2-1,0-.1.3-.6.5-.9h0c.1.4.2.8.2,1.2-.2.3-.3.6-.5.9l-.5.1ZM68,54.2c-.1.2-.2.3-.4.5,0-.2.1-.4.1-.6l.3.1ZM68.9,53.2c0,.1,0,.3.1.4l-.3.1c0-.2.1-.3.2-.5M68.6,49.9v.2h.2c0,.1,0,.3-.1.4,0,0-.1.1-.1.2-.3-1.1-.6-2.1-.9-3,0-.1.1-.1.1-.1l.1-.1c.5.6.7,1.6.7,2.4M67.3,57.2c.1-.7.1-1.4.2-2,.2-.3.5-.6.7-1h.1v1.9c-.2.7-.5,1.5-.9,2.2v-.1c0-.1,0-.2-.1-.2q0-.1-.1-.2v-.1c.1-.1.1-.3.1-.5M68.2,59c0-.1.1-.1.1-.2s.1-.2.1-.3.1-.2.1-.3.1-.1.1-.2.1-.3.1-.4v-.2c0-.2,0-.3.1-.5v-2.7h.1l.9.2c.1,0,.1.1.2.1.1,3.3-.2,4.7-1.3,5.1h-.4s-.1,0-.1-.1l-.1-.1h0l-.1-.1s.1-.2.2-.3M69.9,54.1l-.5-.1,1.6-.4.5.1-1.6.4ZM70.9,53.1l-.9.2c.1-.6.2-1.2.2-1.7.7.2,2.1.7,2.6,1.8,0,.1-.1.2-.2.3v-.2l-1.7-.4ZM72.5,54.5c.4-.3.6-.7.8-1,.1-.1.1-.3.2-.6v-.5q0-.1-.1-.2t-.1-.2-.1-.1c0-.1-.1-.1-.1-.2,0,0,0-.1-.1-.1q-.1-.1-.2-.2h0c-.7-.7-1.5-1-2.1-1.2h0l1.2-.7c2,.5,3.3,1.4,3.5,2.5,0,.3,0,.7-.2,1h0c-.1.1-.2.3-.3.4,0,0,0,.1-.1.1-.1.1-.2.2-.3.3-.5.5-1.2,1-2,1.4,0-.2,0-.5,0-.7M71.9,47.2c-.1-.1-.1-.2-.2-.2.6-.4.9-.8,1.1-1.2.1-.1.2-.3.2-.6v-.5c0-.1,0-.2-.1-.2,0-.1-.1-.1-.1-.1,0-.1-.1-.1-.1-.2l-.1-.1q-.1-.1-.2-.2l-.1-.1q-.1-.1-.2-.2c-.1,0-.1-.1-.2-.1s-.1-.1-.2-.1-.1-.1-.2-.1-.1-.1-.2-.1-.1-.1-.2-.1-.1-.1-.2-.1-.1-.1-.2-.1-.2-.1-.2-.1c-.1,0-.1-.1-.2-.1s-.1-.1-.2-.1-.1,0-.2-.1c-.1,0-.2,0-.2-.1h-.2q-.1,0-.2-.1c-.1,0-.2-.1-.3-.1h-.3c-.1-.3-.3-.7-.4-1,3.8.6,6.3,1.9,6.5,3.4v.3c-.1.7-.6,1.4-1.4,2l-.1.1q-.1.1-.2.1c-.3.2-.6.4-1,.6,0-.2-.1-.4-.2-.5M68.4,45.1l-.5-.1c-.4-.1-1-.1-1.3-.1-.1-.3-.3-.6-.4-.8.2-.3.3-.6.4-.9l.9.3.1-.2c.4.5.7,1,.7,1.1.1.1.1.4.1.7M67.8,42.7l-.2-.3-.3.5-.6-.2c.2-.6.4-1.3.5-1.9.4.8.7,1.6,1,2.4-.2-.1-.3-.4-.4-.5M58.7,36.1c-2.2-1.4-4.3-2.2-6-2.7-.6-.2-1.3-.3-1.9-.5h0c-.6-.1-1.2-.2-1.7-.3.3-.7.4-1.3.2-1.9,3.2,0,6.6.7,10,2.1.2,1.2-.1,2.3-.6,3.3M49.2,30.6c-.1-.1-.2-.4-.5-.6h.6c3.6,0,7,1,9.9,2.7v.1c-3.4-1.6-6.8-2.2-10-2.2M52.9,29.3h-.1c-.1-.3-.4-.4-.7-.4-.2,0-.4.1-.6.2h-.3c-.2-.2-.4-.3-.7-.3-.2,0-.4.1-.6.3h-.1c-.2-.2-.4-.4-.7-.4s-.5.2-.7.4h-.1c-.2-.2-.4-.3-.6-.3-.3,0-.6.2-.7.4h-.2c-.2-.2-.4-.3-.6-.3-.3,0-.6.2-.8.5h0c-.1-.3-.2-.7-.5-1.1,1.9-.1,6.8-.1,8.5,0-.3.3-.4.6-.5,1M53.3,27.7c0-.2-.1-.5-.2-.6l-.1-.1-.2.1s-.3.2-.4.6h-.6c-.1-.5-.4-.6-.4-.7l-.1-.1-.1.1c-.2.2-.3.4-.4.6h-1.2c-.1-.4-.4-.6-.4-.6l-.1-.1-.1.1c-.2.2-.3.4-.4.6h-1.1c-.1-.5-.4-.6-.4-.6l-.1-.1-.1.1c-.3.2-.3.5-.4.6h-.6c-.1-.5-.4-.7-.4-.7l-.2-.1-.1.1c-.2.2-.2.5-.2.7h-.2c0-.2,0-.5-.2-.9l.2-.2s.3-.3.6-.5c.2.1.7.4.7.9v.1h.5v-.1c0-.2.1-.7.6-1,.2,0,.7.2.8,1v.1h.5c0-.2.1-.7.9-1,.8.2.9.7.9.9v.1h.5v-.1c0-.7.6-.9.8-1,.6.3.6.8.6.9v.1h.5v-.1c0-.6.5-.9.7-1,.3.2.6.5.6.5l.2.2h0c-.2.4-.2.7-.2.9-.4.4-.5.4-.7.3M49.2,20.4c.9.6,1.5,1.5,1.7,2.4-.1,0-.2.1-.4.1-1.4.4-1.8,1.2-2,3-.3.1-.5.3-.6.5-.3-.5-.7-.6-1-.7h-.1c0-.7.4-1.1,1-1.5.7-.6,1.4-1.3.9-2.7-.2-.7-.3-1.3-.1-1.8.1.2.3.5.6.7M49.3,18.5c.3.1.6.2.9.2.7.1,1.3.1,1.2,1.1s.4,1.5,1.1,2.4c-.5.3-.6.3-1.1.5-.2-1-.9-1.9-1.9-2.7-.6-.4-.4-1-.2-1.5M49,18c-.9,1.2-1.1,2.2-.6,3.6.1.3.1.5.2.7-.5-.8-1.3-1.3-1.9-1.6-.6-1.8-.5-2.6.4-2.9.4-.2,1.1-.3,2-.7-.2.4-.2.7-.1.9M46.6,21.3c.6.3,1.4,1,1.7,1.8-.2.3-.4.5-.7.8-.7.5-1.3,1.1-1.2,2.2-.1.1-.3.3-.3.4-.3-.5-.9-.6-.9-.7h-.2c-.2.1-.4.3-.6.4-.5-1.7.3-2.6.8-3.2.5-.6,1.3-1,1.4-1.7M53.9,26.2c-.2-.2-.4-.4-.6-.5h-.2s-.4.1-.7.4c.2-2.3.9-2.4,1.2-3.2.8.9.9,1.9.3,3.3M51.9,26.1c-.1-.1-.3-.2-.5-.3h-.2c-.3,0-.8.2-1,.7-.2-.3-.5-.5-1.1-.7h-.1c.1-1.4.6-1.9,1.3-2.2.9-.4,1.9-.2,2.8-1.2.1,1.2-1,.6-1.2,3.7M49,84c-19.1,0-34.7-15.5-34.7-34.7S28.9,15.6,47.1,14.7c-1,1.2-.5,1.6,0,2-2.2.6-1.9,2.2-1.8,2.9.1.6.6,1.5-.4,2.3-1.2.9-1.9,2-1.5,4h0l-.2.4c1.1.8.9,1.6.8,1.6l-.1.2.1.1c.5.3.6.8.7,1.2-6.9,1.5-12.5,6.4-15.1,12.8-3.9.2-6.8,1.9-7.5,3.4-.1.2-.2.5-.2.7v1.7c0,.1.2,1.5,3.6,2.8-1.5.6-2.6,1.5-3,2.4-.2.3-.2.6-.2.9v1.8c0,.1.4,1.6,4.1,2.9-.2,1-.3,1.7-.4,1.8-.2.4-.6.8-.6.8.6.2,2.8.9,2.8.9l1.9-.9-.3-.2c-.1-.1-.2-.5-.3-.8l.1-.7c.3.1.6.1.8.2.5.8,1,1.6,1.5,2.4-.1.3-.4.4-.4.4l.7.1c3.3,4.3,8.2,7.3,13.8,8v5.1c-.5.4-.8,1.1-.7,1.7,0,.7.4,1.2.9,1.4.1.8.6,1.5,1.2,1.9-.1.2-.1.4-.1.6,0,.9.7,1.6,1.6,1.6s1.6-.7,1.6-1.6c0-.3-.1-.5-.2-.7.6-.5.9-1.1,1.1-1.9.4-.2.7-.6.8-1.1.1-.6-.2-1.3-.7-1.7v-5.3c6.2-.8,11.5-4.3,14.8-9.2h0l.7.1c.4.1.8.2,1.1.2h.2c.7,0,2.5-1.7,2.8-2.1.1.1.3.3.5.5l.4.5v-3.4c3.4-1.6,3.4-3.2,3.4-3.3v-2c-.2-1.2-1.3-2.1-3.3-2.7l.1-.1c2.8-1.5,2.8-3,2.8-3.1v-1.5h0v-.3c-.2-1.8-2.9-3.2-7.3-3.9-2.9-5.7-8.2-9.9-14.7-11.2.1-.4.3-.8.7-1.1l.1-.1v-.2s-.2-.8.8-1.6l-.2-.4h-.2c1.1-2.3-.2-3.5-1.2-4.3-1.1-.9-.5-1.4,0-2.5s-.5-2.1-2-2c.4-1.8-1.3-2.5-2.3-2.3-.6.1-1,.1-1.2-.1h1c19.1,0,34.7,15.5,34.7,34.7.4,19.1-15.1,34.6-34.2,34.6"/>
</svg>