<?xml version="1.0" encoding="UTF-8"?>
<svg id="Layer_1" data-name="Layer 1" xmlns="http://www.w3.org/2000/svg" viewBox="0 0 365 363.79">
  <defs>
    <style>
      .cls-1 {
        fill: #f37421;
      }

      .cls-1, .cls-2, .cls-3 {
        stroke-width: 0px;
      }

      .cls-2 {
        fill: #fff;
      }

      .cls-3 {
        fill: #e96d1f;
      }
    </style>
  </defs>
  <ellipse class="cls-2" cx="182.5" cy="181.9" rx="182.5" ry="181.9"/>
  <path class="cls-1" d="M350.1,186.42l-21.39.91c.8-2.74,2.01-3.98,4.11-5.75l16.03-13.79-14.76.63c-2.13.09-3.66.12-4.76,2.19h-.12s-.29-6.74-.29-6.74h.12c1.26,1.96,2.79,1.9,4.93,1.81l15.22-.65c2.13-.09,3.66-.16,4.72-2.19h.12s.23,5.56.23,5.56h-.04c-.45.17-.63.33-.92.61l-.75.57-17.01,14.71,14.45-.62c2.14-.09,3.66-.11,4.72-2.19h.12l.28,6.7h-.11c-1.23-1.93-2.75-1.86-4.89-1.77M353.2,210.08c-1.22,7.92-8.13,12.55-14.92,11.48-7.69-1.21-12.26-8.46-11.08-15.97,1.17-7.47,7.52-12.92,15.25-11.7,7.16,1.12,12.17,8.29,10.74,16.18M345.59,238.07l-.11-.03c-.04-2.08-2.8-2.75-4.43-3.32l-15.72-5.46-2.03,4.8c-1,2.4-.91,4.82-.02,7.14l-.04.11-4.15-3.54,5.15-14.82.11.04c0,2.06,2.75,2.78,4.37,3.34l13.59,4.72c1.66.57,4.21,1.71,5.54.11l.11.04-2.39,6.88ZM333.23,267.24c-3.9,7.01-11.99,8.94-17.98,5.56-6.79-3.82-8.56-12.21-4.83-18.83,3.71-6.58,11.55-9.49,18.37-5.65,6.32,3.55,8.53,12.02,4.43,18.92M311.68,297.31c-1.31,1.54-2.78,2.9-4.39,4.13l-3.33-2.85.07-.09c2.35-.04,4.65-1.9,6.16-3.67,3.87-4.53,3.87-10.51-.8-14.51-4.67-3.99-11.38-3.31-15.3,1.27-1.15,1.33-2.16,2.88-2.9,4.5l4.18,3.57c1.34,1.15,2.78,2.33,4.42,1.47l.09.08-3.8,4.43-.08-.07c-.23-.45-.69-.84-1.12-1.21l-6.67-5.71c-.43-.37-.87-.8-1.43-.97,1.55-2.69,3.05-5.32,5.06-7.67,6.35-7.42,14.17-8.32,19.99-3.34,6.23,5.34,5.88,13.62-.13,20.64M299.45,309.09c-.93.78-1.99,1.31-2.88,1.02l-11.08-3.72.93,8.49c.12,1.15.62,3.12,2.93,2.54l.07.09-5.12,4.29-1.87-16.86-3.88-4.63c-1.47-1.75-2.2-2.63-4.61-2.46l-.07-.09,5.71-4.78.07.09c-.82,1.93.98,3.67,2.13,5.04l3.63,4.33,11.41,3.74c1.86.62,3.26,1.1,5.3.68l-2.67,2.23ZM270.61,64.94c1.94.7,3.55-1.64,4.64-2.97l9.1-11.14c1.11-1.36,3.05-3.37,2-5.17l.07-.08,9.46,7.72c.51.41.96.88,1.51.98l.09.08-2.8,3.43-.09-.07c-.07-1.79-1.19-2.89-2.55-4-1.03-.85-2.09-1.66-3.18-2.26l-4.49,5.5,3.54,2.9c.45.36.92.75,1.42.86l.08.07-2.56,3.13-.09-.07c.25-1.27-1.04-2.23-1.95-2.98l-2.19-1.79-4.37,5.35c-1.08,1.33-3.08,3.29-2.06,5.06l-.07.09-5.59-4.56.07-.09ZM255.59,56.14c-6.55-3.77-9.38-11.64-5.49-18.43,3.61-6.29,12.1-8.41,18.95-4.26,6.97,3.96,8.83,12.07,5.41,18.03-3.88,6.75-12.29,8.44-18.87,4.66M307.95,64.3l.07.08c.16.48.48.85.75,1.28l.62.72,9.26,10.81c.42.5.85.93,1.35,1.16l.07.08-4.24,2.03-.08-.09c.7-1.25-.15-2.53-.97-3.48l-2.24-2.61-13.21,11.32c-1.66,1.41-2.81,2.35-2.39,4.66l-.09.07-4.91-5.74.08-.07c1.79.98,3.76-1.01,5.07-2.13l12.92-11.07-2.19-2.55c-1.06-1.25-2.5-2.28-4.11-2.46l-.07-.08,4.32-1.94ZM322.89,83.04l.09-.06,6.62,10.27c.35.55.63,1.14,1.13,1.41l.06.09-3.76,2.42-.06-.09c.52-1.74-.2-3.14-1.15-4.61-.72-1.13-1.48-2.23-2.34-3.13l-5.96,3.84,2.46,3.82c.33.51.66,1.03,1.1,1.29l.06.1-3.4,2.19-.07-.09c.6-1.11-.3-2.44-.94-3.43l-1.52-2.38-7.61,4.9,2.24,4.32c1.17,2.24,3.27,4.02,5.71,4.71l.07.1-5.13,1.26-8.62-13.38.09-.07c1.64,1.27,3.88-.45,5.33-1.39l12.1-7.79c1.47-.95,3.94-2.26,3.5-4.3M341.72,115.49c.95,2.13,1.52,4.46,1.94,6.73l-4.01,1.78c.37-2.46.15-5.03-.87-7.33-2.13-4.82-7.14-6.6-12.2-4.36-5.13,2.28-8.15,7.79-5.77,13.17,1.16,2.62,3.26,4.81,5.5,6.45l.04.11h-4.83c-1.5-1.29-2.58-2.98-3.38-4.79-3.66-8.23-1.31-15.37,6.16-18.68,7.22-3.2,14.26-.23,17.43,6.93M346.9,130.26l.11-.03,1.7,7.05-.11.03c-1.15-1.69-3.81-.81-5.51-.4l-4.6,1.11,3.23,13.4,4.6-1.11c1.71-.41,4.48-.8,4.72-2.86l.11-.03,1.71,7.09-.11.03c-1.16-1.72-3.82-.85-5.49-.44l-14.03,3.38c-1.66.4-4.43.83-4.68,2.89l-.11.03-1.71-7.09.11-.03c1.16,1.72,3.81.81,5.48.41l6.72-1.62-3.23-13.39-6.72,1.62c-1.67.4-4.43.83-4.69,2.86l-.11.02-1.7-7.05.11-.02c1.15,1.68,3.81.81,5.47.41l14.03-3.38c1.67-.4,4.44-.8,4.69-2.85M236.34,23.99l-.11-.03c-.75-1.65-2.21-2.24-3.89-2.74-1.28-.38-2.57-.72-3.81-.85l-2.02,6.8,4.36,1.29c.58.18,1.17.35,1.67.26l.12.03-1.15,3.88-.11-.03c-.27-1.24-1.82-1.65-2.95-1.99l-2.71-.8-2.56,8.67,4.52,1.81c2.35.94,5.1.92,7.41-.15l.11.03-3.07,4.31-15.26-4.52.03-.11c2.06-.11,2.64-2.88,3.13-4.52l4.09-13.8c.5-1.68,1.51-4.29-.16-5.54l.03-.11,11.71,3.47c.62.18,1.22.44,1.77.33l.11.03-1.27,4.28h0ZM208.1,152.29c-7.39,6.5-17.21,10.53-24.8,16.54-.91-2.27-.8-7.69-.46-10.3,3.16-23.55,18.53-40.62,18.05-65.75.34-10.39-1.81-19.81-6.24-28.29.76-.58,1.17.51,1.66.68,8.17,13.24,17.33,26.06,21.92,40.74,5.17,15.77,2.89,34.92-10.13,46.38M186.9,36.24l-.04-2.52c-1.64,2.24-4.76,3.2-7.43,3.24-2.52.03-5.2-.73-6.94-2.57-2.06-2.18-2.02-4.74-2.06-7.49l-.16-10.19c-.02-1.72.21-4.51-1.76-5.2v-.12l7.26-.11v.12c-1.9.76-1.63,3.54-1.6,5.26l.16,10.19c.07,5.07,2.24,7.41,6.18,7.35,2.14-.03,4.3-.94,5.53-2.75.82-1.16.77-2.11.75-3.48l-.17-11.49c-.02-1.71.16-4.51-1.76-5.2v-.12l7.25-.11.04.11c-1.94.76-1.66,3.54-1.64,5.29l.22,14.39c.03,1.72-.16,4.51,1.8,5.21v.11l-5.61.08ZM161.31,16.66l-.11.02c-.73-1.22-2.26-1.14-3.5-.91l-3.38.62,3.13,17.12c.39,2.14.62,3.61,2.82,4.41l.02.11-7.43,1.36-.02-.11c1.75-1.06,1.02-3.76.71-5.45l-3.06-16.74-3.3.6c-1.61.29-3.23,1.02-4.19,2.32l-.12.02.5-4.71.12-.02c.48.11.97.02,1.47,0l.94-.17,14-2.55c.64-.12,1.23-.27,1.67-.58l.12-.02-.39,4.68h0ZM137.01,43.68l-.03-.11c1.62-1.22.58-3.86.08-5.5l-4.2-13.77c-.51-1.67-1.07-4.42-3.14-4.55l-.03-.11,6.94-2.11.03.11c-1.61,1.25-.57,3.88-.07,5.53l4.2,13.77c.5,1.65,1.09,4.37,3.13,4.51l.03.11-6.94,2.12ZM122.52,49.37l-.04-.11c1.47-1.41.17-3.88-.5-5.47l-6.65-15.67-3.09,1.31c-1.51.64-2.93,1.7-3.59,3.18l-.1.05-.55-4.71.11-.04c.5,0,.95-.19,1.44-.32l.88-.38,13.11-5.55c.6-.26,1.15-.53,1.51-.93l.1-.04.65,4.66-.11.04c-.98-1.03-2.46-.62-3.62-.12l-3.16,1.34,6.8,16.02c.85,2,1.39,3.39,3.72,3.69l.04.11-6.95,2.95h0ZM119.41,188.27c-1.5.52-1.32,2.54-1.32,3.76v10.28c0,1.23-.18,3.22,1.32,3.73v.08h-5.7v-.08c1.5-.49,1.32-2.5,1.32-3.73v-10.28c0-1.25.21-3.24-1.32-3.76v-.08h5.7v.08ZM105.98,59c-1.99,1.21-4.16,2.13-6.43,2.58l-3.43-3.49c2.93.48,6.24-.11,8.79-1.65,1.85-1.14,3.98-3.96,2.59-6.23-3.1-5.09-13.75,2.67-17.97-4.23-2.51-4.11.74-8.24,4.71-10.67,1.63-1,3.43-1.78,5.29-2.25l2.25,3.68c-2.06-.53-4.54-.04-6.37,1.07-1.85,1.14-3.76,3.29-2.39,5.54,2.72,4.46,13.89-2.45,17.57,3.58,2.13,3.49.47,8.97-4.61,12.08M103.94,203.31c-2.73,1.97-5.79,2.95-9.21,3.36l1.5-1.69c4.8-.9,9.17-4.88,9.17-9.46,0-2.78-1.7-5.84-5.15-5.84-2.58,0-4.38,1.83-4.38,4.11,0,2.49,1.8,4.45,4.56,4.45,1.11,0,2.21-.35,3.18-.87l-2.04,2.26c-.78.27-1.59.41-2.43.41-3.51,0-6.3-2.38-6.3-5.68,0-3.98,3.57-6.62,7.8-6.62,4.71,0,7.8,3.36,7.8,7.47,0,3.14-1.83,6.16-4.5,8.1M89.08,66.36l-20.78-3.91,9.7,11.13c1.4,1.61,2.38,2.79,4.68,2.35l.07.08-5.09,4.44-.07-.09c.75-2.22-.26-3.37-1.66-4.99l-10.01-11.48c-1.4-1.61-2.4-2.76-4.65-2.32l-.08-.08,4.21-3.66.02.03c.42.24.66.29,1.06.35l.91.22,22.12,4.12-9.5-10.91c-1.4-1.61-2.38-2.79-4.66-2.33l-.07-.08,5.06-4.41.08.08c-.75,2.17.26,3.32,1.66,4.94l14.07,16.15c-2.64,1.09-4.37.91-7.06.37M87.59,310.25c-5.15,5.98-12.79,6.32-18.72,1.21-1.76-1.52-3.28-3.38-4.64-5.25l2.87-3.33c.72,2.39,2.02,4.61,3.93,6.25,3.99,3.44,9.29,2.91,12.9-1.29,3.66-4.25,4.03-10.53-.42-14.37-2.17-1.88-5.01-2.96-7.73-3.49l-.08-.07,4.36-2.08c1.91.53,3.62,1.6,5.12,2.89,6.82,5.88,7.76,13.34,2.43,19.52M51.5,292.54l-.09.07-3.76-4.72,10.38-18.41c1.16-2.04,2.4-3.91,1.91-6.3l.08-.07,4.87,6.12-.09.07c-1.82-.94-1.96-.44-3.41,2.03l-2.93,4.97,5.99,7.52,5.45-1.8c2.18-.71,3.2-1.18,2.6-3.04l.09-.07,4.37,5.49-.09.07c-2.24-1.04-4.32-.22-6.54.48l-16.42,4.92c-1.41.43-3.11.86-2.42,2.65M37.37,273.27l-.1.05-3.55-6.37.1-.06c1.58,1.35,3.92-.26,5.42-1.1l14.54-8.1-2.23-4.7c-1.13-2.34-2.99-3.88-5.32-4.77l-.06-.09,5.4-.74,7.64,13.7-.1.06c-1.55-1.36-3.91.21-5.4,1.05l-12.57,7.01c-1.53.86-4.08,2.01-3.76,4.07M27.04,253.63l-.11.04-2.87-6.66.11-.04c1.42,1.46,3.92.13,5.5-.55l13.21-5.68c1.58-.68,4.23-1.57,4.15-3.62l.11-.04,2.86,6.66-.1.04c-1.39-1.49-3.89-.16-5.47.52l-13.22,5.69c-1.61.7-4.28,1.55-4.17,3.62M20.58,237.55l-.11.03-3.45-11.72c-.18-.62-.29-1.27-.68-1.67l-.03-.11,4.25-1.25.03.11c-.95,1.51-.65,3.05-.16,4.74.38,1.28.79,2.55,1.35,3.66l6.81-2-1.29-4.4c-.16-.55-.33-1.14-.68-1.51l-.03-.11,3.88-1.14.03.11c-.92.91-.4,2.43-.07,3.57l.8,2.7,6.63-1.95c1.65-.48,4.41-.97,4.56-3.01l.11-.03,2.04,6.92-.11.03c-1.21-1.67-3.85-.66-5.5-.18l-13.81,4.06c-1.68.5-4.42,1.06-4.57,3.13M23.49,189.78c7.72-1.01,14.16,4.65,15.14,12.18.98,7.49-3.56,14.52-11.32,15.53-7.19.95-14.03-4.51-14.88-12.48-1.08-7.95,4.24-14.34,11.05-15.23M11.55,183.48h-.11s.42-9.08.42-9.08c.24-5.11,3.03-7.77,6.5-7.62,3.36.16,5.85,3.22,6.43,6.38l7.16-5.17c2.01-1.47,4.04-3.71,5.51-5.78-.73-2.09-2.19-2.43-4.22-2.89l-14.85-3.37c-2.09-.47-3.57-.81-5.13.87l-.11-.03,1.23-5.43h.04c.48-.04.7-.15,1.06-.34l.86-.36,20.29-9.73-14.11-3.2c-2.09-.47-3.57-.85-5.13.88l-.11-.03,1.49-6.54.11.02c.68,2.19,2.16,2.53,4.25,2.99l20.88,4.73c-1.49,2.44-2.98,3.31-5.47,4.47l-19.08,9.1,14.4,3.27c2.09.47,3.57.85,5.16-.87l.12.03-1.49,6.59-.08-.02-.15,3.2c-.09,2.03-.65,3.26-2.11,4.33l-5.98,4.38-5.54,3.27c-.32-3.08-1.56-6.69-5.15-6.85-2.75-.13-4.46,2.16-4.46,4.72,0,.87.07,1.72.18,2.6l17.08.79c1.76.08,4.53.43,5.3-1.47h.12s-.33,7.28-.33,7.28h-.12c-.6-1.98-3.43-1.84-5.15-1.93l-14.37-.66c-1.75-.08-4.52-.48-5.34,1.44M24.23,118.02l.11.04c0,2.04,2.72,2.84,4.32,3.45l13.44,5.14c1.6.62,4.13,1.82,5.49.3l.11.04-2.59,6.77-.1-.04c.04-2.03-2.69-2.83-4.29-3.44l-13.44-5.14c-1.64-.62-4.15-1.87-5.51-.31l-.11-.04,2.59-6.77ZM34.19,97.65l20.97,2.59c2.33.29,4.53.73,6.55-.63l.1.06-3.81,6.83-.1-.06c.18-2.04-.33-1.98-3.17-2.38l-5.7-.82-4.68,8.4,3.73,4.36c1.48,1.74,2.31,2.51,3.81,1.25l.1.06-3.42,6.14-.1-.06c.11-2.47-1.44-4.08-2.93-5.87l-10.81-13.31c-.94-1.14-1.99-2.54-3.38-1.22l-.11-.06,2.94-5.27ZM67.12,192.03v10.28c0,1.23-.18,3.22,1.32,3.73v.08h-5.7v-.08c1.5-.49,1.32-2.5,1.32-3.73v-10.28c0-1.25.21-3.24-1.32-3.76v-.08h5.7v.08c-1.5.52-1.32,2.54-1.32,3.76M90.06,201.33c0,3.1-3.48,5.23-8.07,5.23-4.29,0-7.95-1.9-7.95-5.07,0-2.53,2.16-3.92,4.5-4.8-2.07-.76-3.78-2.13-3.78-4.31,0-2.78,3-4.63,7.14-4.63,3.06,0,7.02,1.23,7.02,4.52,0,1.96-1.92,3.25-3.66,4.03,2.51,1.09,4.8,2.13,4.8,5.02M56.44,67.08l.09.07c-.71,1.91,1.57,3.6,2.86,4.73l10.83,9.48c1.3,1.13,3.24,3.14,5.05,2.18l.09.07-4.77,5.46-.09-.07c.74-1.89-1.54-3.58-2.83-4.71l-10.83-9.48c-1.32-1.15-3.25-3.19-5.07-2.2l-.08-.08,4.77-5.45ZM199.49,11.47h.11c.43.27.92.34,1.4.48l.94.14,14.09,2.06c.64.09,1.25.14,1.77-.02l.12.02-1.87,4.32-.11-.02c-.29-1.39-1.78-1.8-3.03-1.99l-3.41-.5-2.51,17.23c-.31,2.15-.56,3.62,1.27,5.08l-.02.11-7.48-1.09.02-.11c1.99-.45,2.17-3.23,2.41-4.94l2.46-16.84-3.32-.49c-1.62-.23-3.38-.07-4.71.86l-.12-.02,1.98-4.3ZM182.5,0C81.71,0,0,81.71,0,182.49c0,78.73,49.64,145.68,119.49,171.27l.42-24.15,1.68-28.16c2.16-25.18,5.07-49.97,11.09-73.42,2.05-6.43,3.38-14.44,10.76-17.28,9.95-2.09,20.77-.29,31.23-.59.03-5.28,1.6-12.25-.53-16.98l-2.28-2.08-48.55-19.12c-.85-.55-1.86-1.16-1.79-2.34v-.8h60.56c-.89-1.11-2.35-2.99-3.18-4.35l-6.2-6.25-20.13-16.9c-8.28-6.93-12.06-16.21-10.14-26.96,3.64-19.99,23.85-32.78,30.91-51.31-.68,3.87-1.16,6.72-1.84,9.67-2.74,14.88-11.2,21.95-13.3,37.16-.09,1.89-1.08,8.99.57,9.93.37-8.67,3.84-16.37,7.53-23.8,7.38-12.05,16.41-21.44,17.86-36.13.23-2.28-.14-6.92-1.05-9.87h.54c9.64,15.59,14.53,34.91,9.51,54.33-3.35,18.64-14.62,36.92-12.22,56.9.45,2.94,1.01,6.08,1.91,7.56h63.12c.47,1.2-.21,2.53-1.34,2.94l-50.4,19.27c-1.8.99-3.18,2.8-3.53,4.73.25.97-.68,1.87.17,2.59,2.28-.83,5.46-1.15,7.37.67.39-1.02-.12-2.26.06-3.51.2-2.2,1.96-4.01,3.96-4.73,2.38-.61,5.91-1.72,7.92.52,1.95,2.19,2.16,5.21,3.74,7.45-.12-2.54-.01-5.5,2.54-6.8,2.56-1.03,6.4-2.37,8.79-.12,4.63,9.13,7.72,21.49,10.94,31.14,1.83-4.37,5.7-6.33,9.57-5.56,1.88.31,4.08.83,4.75,2.83-.78,14.05,2.12,26.92,4.21,40,.58,7.02,5.24,14.64.92,21.35-3.92,5.91-9.51,10.78-13.97,16.46-1.05,1.39-.87,3.44-.74,5.16l10.58,48.27c66.67-27.17,113.5-92.61,113.5-169.05C365,81.71,283.29,0,182.5,0M326.96,252.29c-4.66-2.62-11.31-2.01-14.24,3.21-2.84,5.06-.97,10.36,3.99,13.15,4.86,2.73,11.29,2.27,14.25-2.99,2.9-5.15,1.02-10.54-4-13.37M342.12,198.25c-5.28-.84-11.29,2.04-12.24,7.96-.9,5.73,2.71,10.05,8.33,10.93,5.5.87,11.37-1.8,12.31-7.76.93-5.84-2.71-10.24-8.4-11.14M81.48,189.55c-1.62,0-3.69.62-3.69,2.36,0,2.32,3.69,3.14,5.64,3.71,1.24-.6,2.46-1.74,2.46-3.1,0-1.72-1.53-2.97-4.41-2.97M267.45,35.7c-5.13-2.94-10.53-1.12-13.4,3.88-2.66,4.63-2.12,11.28,3.08,14.27,5.03,2.89,10.35,1.06,13.18-3.87,2.78-4.84,2.38-11.27-2.85-14.27M77.07,201.11c0,2.24,2.01,3.66,5.13,3.66,2.13,0,4.82-.87,4.82-3.11,0-2.73-4.41-3.49-6.65-4.12-1.56.57-3.3,1.94-3.3,3.57M46.02,102.84l-10.23-1.41,6.57,7.98,3.66-6.57ZM26.41,213.23c5.3-.7,10.25-5.16,9.48-11.09-.75-5.75-5.44-8.87-11.07-8.14-5.52.73-10.4,4.94-9.61,10.93.77,5.86,5.5,9.05,11.21,8.31M51.77,287.85l9.88-3.04-4.68-5.88-5.19,8.91h0Z"/>
  <path class="cls-1" d="M215.67,192.38c-2.84,3.18.34,9.6.91,12.55l6.6,30.89c.2,1.02.61,1.95.6,2.98-2.27.4-4.45,1.1-6.72,1.61-.56-1.63,1.93-2.18,3.02-3.08l.5-.63c-2.35-13.57-4.75-23.89-6.29-30.66-.57-2.5-2.72-13.09-4.53-15.02l5.9,1.37Z"/>
  <path class="cls-3" d="M209.18,247.48c-3.76-3.84-8.27-7.58-14.12-6.33-4.15.24-8.06,1.64-12.31,1.24-1.64-1.54-2.3-3.81-1.72-6.11,2.65-3.62,7.39-3.75,11.19-5.25,5.75-2.32,11.96.27,16.09,4.54l2.15,3.17c.55,2.86.69,6.53-1.29,8.76M209.86,258.38c-.62,1.99-1.21,4.24-2.79,5.61-2.56-7.58-10.23-10.04-17.15-11.29-2.1-.36-4.26-.18-5.84,1.2-2.08-1.49-2.08-4.41-1.55-6.77.34-.85,1.31-1.27,2.13-1.47,5.14-.93,10.59-1.86,16.03-1.17,2.41.79,4.37,2.88,6.11,4.79,2.43,2.47,4.1,5.57,3.07,9.11M206.71,278.21c-.3,1.88-.92,3.6-2.56,4.86-2.29,1.52-5,2.44-7.54,2.89-1.72-6.39,1.23-14.81-4.56-19.65-2.49-2.85-9.15-3.82-6.96-8.8.39-.91,1.16-1.65,2.08-2.12,4.74.08,8.97,1.29,12.76,3.67,4.21,5.63,9.17,11.58,6.78,19.14M196.7,318.7c-5.68.23-26.7.12-26.7.12l5.34-91.34c2.16,0,4.09-.11,4.89-.68-.11,1.93.8,3.18,1.93,4.43-7.38,4.2-3.52,11.36-1.25,13.29-2.62,6.7.22,9.66,2.27,11.47-1.36,4.32-.63,6.93,6.14,10.68,5.34,2.95,4.54,12.5,4.66,15.78.11,3.29,2.73,36.24,2.73,36.24M183.72,224.51c2.38-3.51,6.65-4.08,10.28-5.2,4.11-.52,10.11-1.98,12.51,2.54,1.02,2.92,2.7,6.08,1.4,9.45-3.79-2.11-7.62-4.71-12.5-3.56-3.57.69-7.13,1.33-10.49,2.51-1.6-1.21-1.77-3.75-1.2-5.74M213.58,239.69c-.12-2.43-2.3-3.97-3.29-6.04,1.8-4.49.06-9.54-1.7-13.61-.72-1.79-2.7-3.22-4.3-3.95-1.59-5.45-6.45-16.32-5.89-21.21l-3.52,2.84c2.5,1.02,4.04,6.85,4.5,9.13l2.33,8.92-7.5.52c.04-2.15.36-4.95-2.1-6.08l-.64-.28-.77-8.59c-.23-1.81.43-3.07,1.46-3.52l.46-5.79c-2.28,1.81-3.19,5.38-3.52,6.82-.55,2.35-.23,7.27,0,11.36-4.32,1.36-14.54-1.36-14.54-1.36v1.36c1.36.46,5.75,1.33,8.25,1.78,2.63.48,6.11-.43,8.23,1.44.41,1.3.27,2.97-.5,4.09-3.74,1.45-7.97,2.77-10.3,6.72-8.48,1.09-17.69.66-26.01-.72.42,3.88,4.8,2.78,7.48,3.63l.37.22c.31,7.12,1.79,15.23-1.19,21.75-4.12,7.69-13.58,6.34-21.29,6.58l-.03,1.94c6.4.55,13.14.77,19.05-1.22,3.25-1.13,6.06-4.53,6.6-7.87.98-7.09-.19-13.96-.56-20.86,2.7-.49,5.61-.44,8.52-.33l.26.37-1.47,25.84-2.2,36.56c-6.43.64-14.08.94-19.47-2.28-8.37-5.21-8.51-15.35-8.25-24.34l-2.85-.16-.9,8.39-2.03,26.59-.61,13.19c-.07,1.02.28,2.11,1.47,2.08.47-11.52,1.96-22.6,2.8-33.95l.38-.37c1.3,2.82,2.33,5.7,4.38,8.21,6.13,6.95,16.17,5.62,24.64,5.22l.37.38-1.49,26.65,6.7.09,1.44.05-.38,43.8c6.3.28,13.63.02,20.32-.29,1.08-.41.19-1.77.32-2.69l-2.39-33.02-.4-7.81,4.91-.18-2.18-30.12.49-.53c2.44-.55,4.72-1.47,7.05-2.3,6.13-2.21,5.5-9.5,5.81-15.04-2.99-4.47,2.34-7.93,2.69-12.24,1.51-3.43-.21-6.85-1.66-9.73,2.79-2.54,2.33-6.64,2.65-10.03"/>
  <path class="cls-1" d="M236.79,235.02c-.24-2.95-1.91-7.88-.56-11.97l-1.02-3.52c-1.14,2.04-1.95,5.7-1.72,8.43.24,9.96,1.54,15.01,1.31,24.38l-.68,1.66c-6.93,5.27-17.16,7.62-20.44,16.73-1.59,10.49,1.15,20.5,3.62,30.03l2.05-.34c-1.86-7.68-3.33-15.85-2.7-24.25.42-11.85,13.74-15.38,21.59-20.96.28-6.78-.94-13.55-1.47-20.19"/>
</svg>