<?xml version="1.0" encoding="UTF-8"?>
<svg id="Layer_1" data-name="Layer 1" xmlns="http://www.w3.org/2000/svg" viewBox="0 0 520.03 519.12">
  <defs>
    <style>
      .cls-1 {
        fill: #0a198c;
        stroke-width: 0px;
      }
    </style>
  </defs>
  <path class="cls-1" d="M222.54,1.7c-13,1.9-34.5,7.2-46.5,11.3l-7,2.4,8.5.7c20,1.6,44.6,7.2,65.3,14.7,15.9,5.8,46.7,21.1,63.2,31.5,15.7,9.8,32.9,22.1,48.5,34.7l10.4,8.4,6.6-1.9c24.2-7.1,53-11.9,73.1-12.1l13.7-.2-1.8-2.5c-1-1.4-7.6-8.1-14.6-15-13.8-13.4-30.9-26.9-46.4-36.5-20.2-12.5-49.9-24.9-73.4-30.5-21.6-5.3-30-6.2-59.6-6.6-23.2-.3-29.5,0-40,1.6Z"/>
  <path class="cls-1" d="M156.04,44.3c-31.1,3.5-51,15.4-61.4,36.5-7,14.4-8.4,21.4-8.5,43.4,0,17,.3,20.4,2.7,31.8,6.1,28.7,21.7,65.3,37.9,89.5l2.9,4.2,11.2-10.2c39.1-35.6,88.2-70.5,134.2-95.5,14-7.6,39.9-19.9,53.8-25.6l10.8-4.4-18.3-12c-19.7-13-29.4-18.6-48.5-28.2-40.9-20.4-89-32.6-116.8-29.5Z"/>
  <path class="cls-1" d="M47.44,108.9C24.84,140,8.34,180.8,1.84,221.7c-2.2,14.4-2.5,56.3-.5,71,5.1,36.2,16.9,70,34.8,100.1l7.9,13.2.7-9.9c2.2-32.6,21.8-73.2,55.1-113.8l6.5-7.9-5.3-8.1c-33.6-51.8-52.8-112.4-48.6-153.8.5-5.6.9-10.4.7-10.6-.2-.1-2.8,3-5.7,7Z"/>
  <path class="cls-1" d="M441.54,110.8c-14.9,1.7-50.9,9.9-55.3,12.6-.4.3,6.1,7.5,14.5,16.2,21.2,21.7,37.7,43.3,49.6,65.2,4.8,8.7,5.1,10.7,1.8,13.8-4.2,3.9-7.4,2.6-13.1-5.3-11.4-15.6-25.7-32.9-37.5-45-12.1-12.5-29.9-29.1-36.5-34.1l-3.2-2.5-12.4,5.2c-6.8,2.9-21.2,9.6-31.9,14.9-58.7,29.3-116.2,69.2-158.1,109.7l-13.1,12.7,10,12.6c27,34.1,59.9,66.9,92.7,92.6,11.3,8.8,27.9,20.3,29.4,20.3,1.6,0,27.4-14,40.8-22.1,14.4-8.8,23-14.5,39.4-26.1l12.7-8.9-1.9-5c-2.8-7.2-2.6-18,.5-24.4,2.9-6.2,9.2-12.6,15.4-15.6,6.7-3.2,18.7-3.3,25.7-.1,6.3,2.9,11.9,8.3,15.3,14.7,2.3,4.3,2.7,6.2,2.7,14s-.3,9.5-2.9,14.3c-6.9,12.4-20.4,18.8-34.1,16.2l-6.3-1.2-9.9,7.4c-18.3,13.8-46.5,32.8-66.5,44.7-4.9,2.9-8.8,5.5-8.8,5.7s4.8,2.8,10.8,5.8c40.5,20.3,74.3,29.1,110.7,29l17.9-.1,8-8.4c38.5-40.5,61.4-87.8,70.2-144.9,2.7-17.3,2.5-53.6-.5-72.9-5.8-37.9-17.8-70-38.3-102.7-4.6-7.3-5.5-8.3-8.7-8.8-4.9-.8-19.9-.5-29.1.5Z"/>
  <path class="cls-1" d="M118.74,305.9c-23.8,30.2-40.3,62.8-43.1,85-1.9,15.6,1.4,26.4,10.4,34.6,9.9,8.9,23.6,13.1,45.6,13.9,17.4.7,32.2-.7,51.2-4.7,20.1-4.3,29.8-7.3,62-19.2,1.5-.5,2.7-1.3,2.7-1.6,0-.4-3.5-3-7.7-5.7-33.7-21.8-83.3-68-110.3-102.8-2.5-3.1-4.8-5.7-5.2-5.7-.3,0-2.9,2.8-5.6,6.2Z"/>
  <path class="cls-1" d="M262.04,433c-36.7,18.4-81.2,31.6-116.6,34.7-11.7,1-32.1,0-40.4-1.9-2.2-.6-4.1-.8-4.3-.7-.5.6,15.4,11.7,24.3,17.1,28.2,17.1,59.4,28.6,94,34.7,11.5,2,16.1,2.3,41,2.2,24.6,0,29.5-.3,40.5-2.2,40.6-7.3,72.1-19.7,104.5-41.1l10-6.6-15-1.2c-8.2-.7-17.9-1.7-21.5-2.3-30.7-5.2-62.9-15.9-94.1-31.4l-12.5-6.3-9.9,5Z"/>
</svg>