<?xml version="1.0" encoding="utf-8"?>
<!-- Generator: Adobe Illustrator 19.0.0, SVG Export Plug-In . SVG Version: 6.00 Build 0)  -->
<svg version="1.1" id="layer" xmlns="http://www.w3.org/2000/svg" xmlns:xlink="http://www.w3.org/1999/xlink" x="0px" y="0px"
	 viewBox="-153 -46 652 652" style="enable-background:new -153 -46 652 652;" xml:space="preserve">
<style type="text/css">
	.st0{fill:#104B87;}
	.st1{fill:#6F6F74;}
	.st2{fill:#6595B9;}
	.st3{clip-path:url(#SVGID_2_);fill:url(#SVGID_3_);}
	.st4{clip-path:url(#SVGID_5_);fill:url(#SVGID_6_);}
</style>
<g>
	<path class="st0" d="M-116.9,409.2l-2.1-5.5c-0.4-1.2-0.6-2-0.9-2.9h-0.1c-0.3,1-0.5,1.8-0.9,2.9l-2.1,5.6H-116.9z M-123.2,410.1
		l-2.1,5.8h-1.2l6.1-16.5h1.2l6.1,16.5h-1.2l-2.1-5.8H-123.2z"/>
	<path class="st0" d="M-85.4,415.9v-16.6h1.1l6.6,9.8c1.4,2.1,2.3,3.6,3.2,5.2l0.1,0c-0.2-2.2-0.2-4.1-0.2-6.7v-8.2h1.2v16.6h-1.1
		l-6.4-9.6c-1.2-1.9-2.4-3.7-3.3-5.4l-0.1,0c0.1,2,0.2,3.8,0.2,6.6v8.4H-85.4z"/>
	<path class="st0" d="M-51.3,409.2l-2.1-5.5c-0.4-1.2-0.6-2-0.9-2.9h-0.1c-0.3,1-0.5,1.8-0.9,2.9l-2.1,5.6H-51.3z M-57.6,410.1
		l-2.1,5.8h-1.2l6.1-16.5h1.2l6.1,16.5h-1.2l-2.1-5.8H-57.6z"/>
</g>
<polygon class="st0" points="-33.8,400.4 -39.4,400.4 -39.4,399.4 -27.1,399.4 -27.1,400.4 -32.6,400.4 -32.6,415.9 -33.8,415.9 "/>
<rect x="-15.6" y="399.4" class="st0" width="1.2" height="16.5"/>
<g>
	<path class="st0" d="M-0.4,407.8c0,3.7,2.2,7.4,6.2,7.4c4,0,6.2-3.6,6.2-7.7c0-3.5-2-7.5-6.2-7.5C1.6,400.1-0.4,403.9-0.4,407.8
		 M13.3,407.5c0,5.8-3.6,8.7-7.5,8.7c-4.2,0-7.4-3.2-7.4-8.4c0-5.4,3.3-8.7,7.6-8.7C10.2,399.1,13.3,402.3,13.3,407.5"/>
	<path class="st0" d="M26.1,415.9v-16.6h1.1l6.6,9.8c1.4,2.1,2.3,3.6,3.2,5.2l0.1,0c-0.2-2.2-0.2-4.1-0.2-6.7v-8.2H38v16.6h-1.1
		l-6.4-9.6c-1.2-1.9-2.4-3.7-3.3-5.4l-0.1,0c0.1,2,0.2,3.8,0.2,6.6v8.4H26.1z"/>
	<path class="st0" d="M60.2,409.2l-2.1-5.5c-0.4-1.2-0.6-2-0.9-2.9h-0.1c-0.3,1-0.5,1.8-0.9,2.9l-2.1,5.6H60.2z M53.9,410.1
		l-2.1,5.8h-1.2l6.1-16.5h1.1l6.1,16.5h-1.2l-2.1-5.8H53.9z"/>
</g>
<polygon class="st0" points="76.3,399.4 77.5,399.4 77.5,414.9 85,414.9 85,415.9 76.3,415.9 "/>
<polygon class="st0" points="112.6,399.4 121,399.4 121,400.4 113.8,400.4 113.8,406.9 120.4,406.9 120.4,407.9 113.8,407.9 
	113.8,415.9 112.6,415.9 "/>
<g>
	<path class="st0" d="M135.2,399.4v10c0,4.2,2,5.8,4.5,5.8c2.8,0,4.7-1.8,4.7-5.8v-10h1.2v9.9c0,5.1-2.8,6.9-6,6.9
		c-2.9,0-5.6-1.7-5.6-6.8v-10.1H135.2z"/>
</g>
<polygon class="st0" points="167.4,407.7 160.7,407.7 160.7,414.9 168.2,414.9 168.2,415.9 159.5,415.9 159.5,399.4 167.8,399.4 
	167.8,400.4 160.7,400.4 160.7,406.7 167.4,406.7 "/>
<polygon class="st0" points="181,399.4 182.1,399.4 182.1,414.9 189.7,414.9 189.7,415.9 181,415.9 "/>
<g>
	<path class="st0" d="M229.4,415.2c-0.9,0.3-2.6,0.9-4.9,0.9c-2.2,0-4.3-0.6-6-2.2c-1.4-1.3-2.3-3.5-2.3-6.2c0-4.6,3-8.5,8.8-8.5
		c1.8,0,3.3,0.4,3.9,0.7l-0.4,1c-0.9-0.4-2-0.7-3.6-0.7c-4.6,0-7.5,3-7.5,7.4c0,4.7,2.8,7.4,7.3,7.4c1.8,0,2.9-0.2,3.5-0.6v-5.9
		h-3.9v-0.9h5.1V415.2z"/>
	<path class="st0" d="M251,409.2l-2.1-5.5c-0.4-1.2-0.6-2-0.9-2.9H248c-0.3,1-0.5,1.8-0.9,2.9l-2.1,5.6H251z M244.7,410.1l-2.1,5.8
		h-1.2l6.1-16.5h1.1l6.1,16.5h-1.2l-2.1-5.8H244.7z"/>
	<path class="st0" d="M266.6,414.1c1,0.6,2.3,1.1,3.7,1.1c2.5,0,4.1-1.4,4.1-3.4c0-1.9-1-3-3.4-3.9c-2.7-0.9-4.4-2.3-4.4-4.6
		c0-2.4,2.1-4.2,4.9-4.2c1.6,0,2.8,0.4,3.4,0.8l-0.5,1c-0.5-0.3-1.5-0.8-3-0.8c-2.7,0-3.7,1.7-3.7,3c0,1.8,1.1,2.8,3.5,3.7
		c2.8,1.1,4.2,2.3,4.2,4.8c0,2.4-1.7,4.6-5.3,4.6c-1.5,0-3.2-0.5-4-1.1L266.6,414.1z"/>
	<path class="st0" d="M315.3,415.3c-0.9,0.4-2.5,0.9-4.5,0.9c-4.1,0-8-2.6-8-8.4c0-4.9,3.2-8.7,8.5-8.7c2.2,0,3.4,0.5,3.9,0.7
		l-0.4,1c-0.8-0.4-2.1-0.7-3.5-0.7c-4.5,0-7.3,2.9-7.3,7.7c0,4.5,2.6,7.4,7.1,7.4c1.4,0,2.8-0.3,3.8-0.8L315.3,415.3z"/>
	<path class="st0" d="M327.7,407.8c0,3.7,2.2,7.4,6.2,7.4c4,0,6.2-3.6,6.2-7.7c0-3.5-1.9-7.5-6.2-7.5
		C329.6,400.1,327.7,403.9,327.7,407.8 M341.3,407.5c0,5.8-3.6,8.7-7.5,8.7c-4.2,0-7.4-3.2-7.4-8.4c0-5.4,3.3-8.7,7.6-8.7
		C338.2,399.1,341.3,402.3,341.3,407.5"/>
	<path class="st0" d="M368.3,408.1c-0.2-2.5-0.4-5.5-0.4-7.3h-0.1c-0.6,1.8-1.3,3.7-2.3,6.2l-3.5,9h-0.8l-3.3-8.8
		c-0.9-2.6-1.7-4.6-2.2-6.4h-0.1c0,1.9-0.2,4.8-0.4,7.6l-0.5,7.6h-1.2l1.2-16.6h1.4l3.6,9.5c0.8,2.1,1.4,3.8,1.8,5.4h0.1
		c0.4-1.5,1-3.1,1.9-5.3l3.8-9.6h1.4l1.2,16.6h-1.2L368.3,408.1z"/>
	<path class="st0" d="M384.6,407.8c0.6,0.2,1.3,0.2,2.2,0.2c3,0,4.8-1.5,4.8-4.1c0-2.6-1.9-3.8-4.6-3.8c-1.1,0-1.9,0.1-2.4,0.2
		V407.8z M383.4,399.6c1-0.2,2.2-0.3,3.6-0.3c2,0,3.5,0.5,4.5,1.4c0.8,0.8,1.3,1.8,1.3,3.2c0,1.4-0.4,2.5-1.2,3.3
		c-1.1,1.2-2.9,1.9-5,1.9c-0.8,0-1.5,0-2.1-0.2v7.1h-1.2V399.6z"/>
	<path class="st0" d="M411.6,409.2l-2.1-5.5c-0.4-1.2-0.6-2-0.9-2.9h-0.1c-0.3,1-0.5,1.8-0.9,2.9l-2.1,5.6H411.6z M405.3,410.1
		l-2.1,5.8H402l6.1-16.5h1.1l6.1,16.5h-1.2l-2.1-5.8H405.3z"/>
	<path class="st0" d="M427.8,415.9v-16.6h1.1l6.6,9.8c1.3,2.1,2.3,3.6,3.1,5.2l0.1,0c-0.2-2.2-0.2-4.1-0.2-6.7v-8.2h1.2v16.6h-1.1
		l-6.4-9.6c-1.2-1.9-2.4-3.7-3.3-5.4l0,0c0.1,2,0.1,3.8,0.1,6.6v8.4H427.8z"/>
	<path class="st0" d="M457.2,415.9v-7.2l-5.4-9.4h1.4l2.8,4.9c0.7,1.3,1.3,2.4,1.9,3.6h0.1c0.5-1.1,1.2-2.3,2-3.6l2.9-4.9h1.3
		l-5.7,9.4v7.1H457.2z"/>
	<path class="st0" d="M1.5,290c-1.6-0.8-1.7-1.2-1.7-4.2c0-5.5,0.4-10,0.6-11.7c0.1-1.2,0.3-1.8,0.9-1.8c0.7,0,0.8,0.3,0.8,1.2
		c0,1,0,2.5,0.3,4.1c1.7,8.2,9.1,11.3,16.7,11.3c10.8,0,16.1-7.6,16.1-14.7c0-7.6-3.3-12-12.9-19.9l-5.1-4.1
		c-11.9-9.6-14.6-16.5-14.6-24c0-11.8,9-19.9,23.3-19.9c4.4,0,7.7,0.4,10.5,1.1c2.1,0.4,3,0.6,3.9,0.6c0.9,0,1.1,0.2,1.1,0.8
		c0,0.6-0.5,4.2-0.5,11.7c0,1.8-0.2,2.5-0.8,2.5c-0.7,0-0.8-0.6-0.9-1.4c-0.1-1.3-0.8-4.3-1.5-5.5c-0.7-1.2-3.7-5.9-14.1-5.9
		c-7.8,0-13.9,4.8-13.9,12.8c0,6.3,2.9,10.3,13.7,18.6l3.2,2.4c13.3,10.3,16.4,17.1,16.4,26c0,4.5-1.8,12.9-9.6,18.3
		c-4.8,3.3-10.9,4.7-17,4.7C11.3,293,6.1,292.2,1.5,290"/>
	<path class="st0" d="M57.3,239.9c0-17.3,0-20.3-0.2-23.9c-0.2-3.8-1.1-5.5-4.8-6.3c-0.9-0.2-2.8-0.3-3.8-0.3
		c-0.4,0-0.9-0.2-0.9-0.7c0-0.7,0.6-0.9,1.8-0.9c2.6,0,5.6,0,8.1,0.1l4.6,0.2c0.8,0,23.2,0,25.8-0.1c2.1-0.1,3.9-0.3,4.8-0.6
		c0.6-0.1,1-0.5,1.6-0.5c0.3,0,0.4,0.4,0.4,1c0,0.8-0.6,2.1-0.9,5.2c-0.1,1.1-0.3,6-0.6,7.3c-0.1,0.6-0.3,1.2-0.8,1.2
		c-0.7,0-0.9-0.5-0.9-1.4c0-0.8-0.1-2.7-0.7-4c-0.8-1.8-1.9-3.1-8-3.8c-1.9-0.2-14.2-0.3-15.4-0.3c-0.5,0-0.7,0.3-0.7,1.1v30.5
		c0,0.8,0.1,1.1,0.7,1.1c1.5,0,15.3,0,17.9-0.2c2.7-0.2,4.3-0.5,5.3-1.5c0.8-0.9,1.2-1.4,1.7-1.4c0.3,0,0.6,0.2,0.6,0.9
		c0,0.7-0.6,2.5-0.9,6.2c-0.2,2.2-0.5,6.3-0.5,7.1c0,0.9,0,2.1-0.8,2.1c-0.6,0-0.8-0.4-0.8-1c0-1.1,0-2.2-0.4-3.6
		c-0.5-1.6-1.5-3.4-5.9-3.9c-3-0.3-14.2-0.5-16.1-0.5c-0.6,0-0.8,0.3-0.8,0.8v9.7c0,3.8-0.1,16.6,0,18.9c0.3,7.6,2,9.1,13.1,9.1
		c2.9,0,7.9,0,10.8-1.2c2.9-1.2,4.3-3.4,5.1-8c0.2-1.2,0.5-1.7,1-1.7c0.7,0,0.7,0.9,0.7,1.7c0,0.9-0.9,8.4-1.5,10.7
		c-0.8,2.9-1.7,2.9-6.1,2.9c-8.4,0-14.6-0.2-19-0.3c-4.4-0.2-7.1-0.3-8.8-0.3c-0.2,0-2.1,0-4.5,0.1c-2.2,0-4.8,0.2-6.5,0.2
		c-1.2,0-1.8-0.2-1.8-0.9c0-0.3,0.2-0.7,0.9-0.7c1,0,2.4-0.2,3.4-0.4c2.2-0.4,2.8-2.9,3.3-6.1c0.6-4.6,0.6-13.4,0.6-24V239.9z"/>
	<path class="st0" d="M119.1,276.4c0.2,9.1,1.3,11.9,4.4,12.8c2.1,0.6,4.6,0.7,5.6,0.7c0.6,0,0.9,0.2,0.9,0.7c0,0.7-0.7,0.9-2,0.9
		c-6.4,0-10.9-0.3-11.9-0.3c-1,0-5.7,0.3-10.8,0.3c-1.1,0-1.8-0.1-1.8-0.9c0-0.4,0.3-0.7,0.9-0.7c0.9,0,2.9-0.1,4.6-0.7
		c2.8-0.8,3.4-4,3.4-14l0.1-63.4c0-4.3,0.3-5.5,1.2-5.5c0.9,0,2.8,2.4,3.9,3.5c1.7,1.9,18.5,19.7,35.8,37.9
		c11.2,11.7,23.4,25.2,27,28.9l-1.2-56.2c-0.1-7.2-0.9-9.6-4.4-10.5c-2-0.4-4.6-0.5-5.5-0.5c-0.8,0-0.9-0.3-0.9-0.8
		c0-0.7,0.9-0.8,2.3-0.8c5.1,0,10.5,0.3,11.7,0.3c1.2,0,5-0.3,9.6-0.3c1.2,0,2,0.1,2,0.8c0,0.4-0.5,0.8-1.2,0.8
		c-0.6,0-1.4,0-2.7,0.3c-3.7,0.8-4.2,3.2-4.2,9.8l-0.2,64.8c0,7.3-0.2,7.9-1,7.9c-0.9,0-2.3-1.2-8.2-7.1c-1.2-1.1-17.5-17.4-29.4-30
		c-13.1-13.8-25.8-27.7-29.4-31.7L119.1,276.4z"/>
	<path class="st0" d="M212.6,239.9c0-17.3,0-20.3-0.2-23.9c-0.2-3.8-1.1-5.5-4.8-6.3c-0.9-0.2-2.8-0.3-3.8-0.3
		c-0.5,0-0.9-0.2-0.9-0.7c0-0.7,0.6-0.9,1.8-0.9c2.6,0,5.6,0,8.1,0.1l4.6,0.2c0.8,0,23.2,0,25.8-0.1c2.1-0.1,3.9-0.3,4.8-0.6
		c0.6-0.1,1-0.5,1.6-0.5c0.3,0,0.4,0.4,0.4,1c0,0.8-0.6,2.1-0.9,5.2c-0.1,1.1-0.3,6-0.6,7.3c-0.1,0.6-0.3,1.2-0.8,1.2
		c-0.7,0-0.9-0.5-0.9-1.4c0-0.8-0.1-2.7-0.7-4c-0.8-1.8-1.9-3.1-8-3.8c-1.9-0.2-14.2-0.3-15.4-0.3c-0.5,0-0.7,0.3-0.7,1.1v30.5
		c0,0.8,0.1,1.1,0.7,1.1c1.5,0,15.3,0,17.9-0.2c2.7-0.2,4.3-0.5,5.3-1.5c0.8-0.9,1.2-1.4,1.7-1.4c0.3,0,0.6,0.2,0.6,0.9
		c0,0.7-0.6,2.5-0.9,6.2c-0.2,2.2-0.5,6.3-0.5,7.1c0,0.9,0,2.1-0.8,2.1c-0.6,0-0.8-0.4-0.8-1c0-1.1,0-2.2-0.4-3.6
		c-0.5-1.6-1.5-3.4-5.9-3.9c-3-0.3-14.2-0.5-16.1-0.5c-0.6,0-0.8,0.3-0.8,0.8v9.7c0,3.8-0.1,16.6,0,18.9c0.3,7.6,2,9.1,13.1,9.1
		c2.9,0,7.9,0,10.8-1.2c2.9-1.2,4.3-3.4,5.1-8c0.2-1.2,0.5-1.7,1-1.7c0.7,0,0.7,0.9,0.7,1.7c0,0.9-0.9,8.4-1.5,10.7
		c-0.8,2.9-1.7,2.9-6.1,2.9c-8.4,0-14.6-0.2-19-0.3c-4.4-0.2-7.1-0.3-8.8-0.3c-0.2,0-2.1,0-4.5,0.1c-2.2,0-4.8,0.2-6.5,0.2
		c-1.2,0-1.8-0.2-1.8-0.9c0-0.3,0.2-0.7,0.9-0.7c1,0,2.4-0.2,3.4-0.4c2.3-0.4,2.8-2.9,3.3-6.1c0.6-4.6,0.6-13.4,0.6-24V239.9z"/>
	<path class="st0" d="M271.6,281c-10.9-9.6-13.6-22.2-13.6-32.7c0-7.4,2.6-20.3,12.6-30.2c6.8-6.6,17-11.8,34.4-11.8
		c4.5,0,10.8,0.3,16.3,1.3c4.3,0.8,7.9,1.4,11.5,1.7c1.2,0.1,1.5,0.6,1.5,1.2c0,0.9-0.3,2.2-0.6,6.2c-0.2,3.6-0.2,9.7-0.3,11.4
		c-0.1,1.7-0.3,2.3-1,2.3c-0.8,0-0.9-0.8-0.9-2.3c0-4.3-1.8-8.8-4.7-11.3c-3.9-3.3-12.6-6.3-22.5-6.3c-15,0-22,4.3-25.9,8.1
		c-8.2,7.7-10.1,17.6-10.1,28.9c0,21.1,16.6,40.5,40.7,40.5c8.4,0,15.1-1,19.6-5.5c2.4-2.4,3.8-7.3,4.2-9.3c0.2-1.2,0.5-1.7,1.1-1.7
		c0.6,0,0.8,0.8,0.8,1.7c0,0.8-1.3,10.4-2.5,14.1c-0.7,2.1-0.9,2.3-2.9,3.2c-4.5,1.8-13.1,2.5-20.3,2.5
		C291.9,293,280.5,288.9,271.6,281"/>
	<path class="st0" d="M388.6,254.8c0.6,0,0.6-0.3,0.5-0.8l-10.7-29.9c-0.6-1.7-1.1-1.7-1.7,0l-9.9,29.9c-0.2,0.6,0,0.8,0.3,0.8
		H388.6z M376.9,210.6c1.3-3.7,1.8-4.3,2.5-4.3c0.7,0,1.1,0.6,2.5,4c1.7,4.2,19.4,49.9,26.2,66.7c4,9.8,7.3,11.6,9.7,12.3
		c1.7,0.5,3.4,0.7,4.5,0.7c0.7,0,1.1,0.1,1.1,0.7c0,0.7-1,0.9-2.3,0.9c-1.7,0-9.9,0-17.7-0.2c-2.1-0.1-3.4-0.1-3.4-0.8
		c0-0.4,0.3-0.7,0.8-0.8c0.7-0.2,1.3-1.2,0.7-3l-10.5-27.2c-0.2-0.4-0.5-0.7-1-0.7h-24.2c-0.6,0-0.9,0.3-1.1,0.9l-6.8,19.6
		c-1,2.8-1.6,5.4-1.6,7.4c0,2.2,2.4,3.2,4.3,3.2h1.1c0.8,0,1.1,0.2,1.1,0.7c0,0.7-0.7,0.9-1.7,0.9c-2.7,0-7.5-0.3-8.8-0.3
		s-7.4,0.3-12.7,0.3c-1.5,0-2.1-0.2-2.1-0.9c0-0.4,0.5-0.7,1-0.7c0.8,0,2.4-0.1,3.3-0.2c5.2-0.7,7.4-4.9,9.5-10.4L376.9,210.6z"/>
	<path class="st1" d="M-42.9,335.5c0-15.3,0-18.1-0.2-21.2c-0.2-3.3-1-4.9-4.3-5.6c-0.8-0.2-2.5-0.3-3.4-0.3c-0.4,0-0.8-0.2-0.8-0.6
		c0-0.6,0.5-0.8,1.6-0.8c2.3,0,5,0,7.2,0.1l4.1,0.2c0.7,0,20.6,0,22.9-0.1c1.9-0.1,3.5-0.3,4.3-0.5c0.5-0.1,0.9-0.5,1.4-0.5
		c0.3,0,0.4,0.4,0.4,0.9c0,0.7-0.5,1.9-0.8,4.6c-0.1,1-0.3,5.3-0.5,6.5c-0.1,0.5-0.3,1.1-0.7,1.1c-0.6,0-0.8-0.5-0.8-1.3
		c0-0.7-0.1-2.4-0.6-3.5c-0.7-1.6-1.7-2.8-7.1-3.3c-1.7-0.2-12.6-0.3-13.7-0.3c-0.4,0-0.6,0.3-0.6,1V339c0,0.7,0.1,1,0.6,1
		c1.3,0,13.6,0,15.9-0.2c2.4-0.2,3.8-0.4,4.7-1.4c0.7-0.8,1.1-1.3,1.5-1.3c0.3,0,0.5,0.2,0.5,0.8s-0.5,2.3-0.8,5.5
		c-0.2,2-0.4,5.6-0.4,6.3c0,0.8,0,1.9-0.7,1.9c-0.5,0-0.7-0.4-0.7-0.9c0-1,0-2-0.4-3.2c-0.4-1.4-1.3-3-5.2-3.4
		c-2.7-0.3-12.6-0.5-14.3-0.5c-0.5,0-0.7,0.3-0.7,0.7v8.7c0,3.3-0.1,14.7,0,16.8c0.3,6.8,1.8,8.1,11.6,8.1c2.6,0,7,0,9.6-1.1
		c2.6-1.1,3.8-3,4.5-7.1c0.2-1.1,0.4-1.5,0.9-1.5c0.6,0,0.6,0.8,0.6,1.5c0,0.8-0.8,7.5-1.3,9.5c-0.7,2.6-1.5,2.6-5.4,2.6
		c-7.5,0-13-0.2-16.9-0.3c-3.9-0.2-6.3-0.3-7.8-0.3c-0.2,0-1.9,0-4,0.1c-2,0-4.3,0.2-5.8,0.2c-1.1,0-1.6-0.2-1.6-0.8
		c0-0.3,0.2-0.6,0.8-0.6c0.9,0,2.1-0.2,3-0.4c2-0.4,2.5-2.6,2.9-5.4c0.5-4.1,0.5-11.9,0.5-21.3V335.5z"/>
	<path class="st1" d="M4.7,380c-1.4-0.7-1.5-1.1-1.5-3.7c0-4.9,0.4-8.8,0.5-10.4c0.1-1.1,0.3-1.6,0.8-1.6c0.6,0,0.7,0.3,0.7,1.1
		c0,0.9,0,2.3,0.3,3.6c1.5,7.3,8.1,10,14.8,10c9.6,0,14.3-6.8,14.3-13.1c0-6.8-2.9-10.7-11.5-17.7l-4.5-3.6
		c-10.6-8.6-13-14.6-13-21.3c0-10.5,8-17.7,20.7-17.7c3.9,0,6.8,0.4,9.3,1c1.9,0.4,2.7,0.5,3.5,0.5c0.8,0,1,0.2,1,0.7
		c0,0.5-0.4,3.7-0.4,10.4c0,1.6-0.2,2.3-0.7,2.3c-0.6,0-0.7-0.5-0.8-1.3c-0.1-1.2-0.7-3.8-1.3-4.9c-0.6-1.1-3.3-5.2-12.5-5.2
		c-6.9,0-12.3,4.2-12.3,11.4c0,5.6,2.6,9.1,12.2,16.5l2.8,2.2c11.8,9.1,14.6,15.2,14.6,23.1c0,4-1.6,11.5-8.5,16.3
		c-4.3,2.9-9.7,4.1-15.1,4.1C13.4,382.7,8.8,382,4.7,380"/>
	<path class="st1" d="M97.1,379c9,0,27.6-5.1,27.6-33.7c0-23.6-14.6-36.3-30.4-36.3C77.5,309,65,319.8,65,341.3
		C65,364.2,79,379,97.1,379 M95,305.6c22.5,0,39.3,14,39.3,36.9c0,22-15.8,40.2-39.9,40.2c-27.4,0-38.8-20.9-38.8-38.6
		C55.5,328.1,67.3,305.6,95,305.6"/>
	<path class="st1" d="M147.9,335.5c0-15.3,0-18.1-0.2-21.2c-0.2-3.3-1-4.9-4.3-5.6c-0.8-0.2-2.5-0.3-3.4-0.3c-0.4,0-0.8-0.2-0.8-0.6
		c0-0.6,0.5-0.8,1.6-0.8c4.5,0,10.6,0.3,11.5,0.3c0.9,0,6.9-0.3,9.9-0.3c1.1,0,1.6,0.2,1.6,0.8c0,0.4-0.4,0.6-0.8,0.6
		c-0.7,0-1.3,0.1-2.5,0.3c-2.7,0.4-3.5,2.2-3.7,5.6c-0.2,3.1-0.2,5.9-0.2,21.2v13.8c0,14.2,3.2,20.3,7.5,24.3
		c4.9,4.5,9.4,5.4,15.1,5.4c6.1,0,12.1-2.8,15.7-7.1c4.6-5.6,5.8-14,5.8-24.1v-12.3c0-15.3,0-18.1-0.2-21.2c-0.2-3.3-1-4.9-4.3-5.6
		c-0.8-0.2-2.5-0.3-3.4-0.3c-0.4,0-0.8-0.2-0.8-0.6c0-0.6,0.5-0.8,1.6-0.8c4.5,0,10,0.3,10.6,0.3c0.7,0,5.4-0.3,8.4-0.3
		c1.1,0,1.6,0.2,1.6,0.8c0,0.4-0.4,0.6-0.8,0.6c-0.7,0-1.3,0.1-2.5,0.3c-2.7,0.6-3.5,2.2-3.7,5.6c-0.2,3.1-0.2,5.9-0.2,21.2V346
		c0,10.6-1.2,22.4-9.2,29.4c-7.2,6.3-14.7,7.3-20.6,7.3c-3.4,0-13.5-0.4-20.6-7c-4.9-4.6-8.7-11.5-8.7-25.9V335.5z"/>
	<path class="st1" d="M239.5,344.1c0,0.5,0.2,0.9,0.7,1.2c1.5,0.9,6.1,1.6,10.5,1.6c2.4,0,5.2-0.3,7.5-1.9c3.5-2.4,6.1-7.7,6.1-15.1
		c0-12.3-6.6-19.7-17.3-19.7c-3,0-5.7,0.3-6.7,0.6c-0.5,0.2-0.8,0.6-0.8,1.2V344.1z M231.5,335.5c0-15.3,0-18.1-0.2-21.2
		c-0.2-3.3-1-4.9-4.3-5.6c-0.8-0.2-2.5-0.3-3.4-0.3c-0.4,0-0.8-0.2-0.8-0.6c0-0.6,0.5-0.8,1.6-0.8c4.5,0,10.8,0.3,11.3,0.3
		c1.1,0,8.7-0.3,11.8-0.3c6.3,0,13,0.6,18.3,4.3c2.5,1.8,6.9,6.6,6.9,13.4c0,7.3-3.1,14.6-12.1,22.7c8.2,10.3,15,19.1,20.8,25.2
		c5.4,5.6,9.7,6.7,12.2,7.1c1.9,0.3,3.3,0.3,3.9,0.3c0.5,0,0.9,0.3,0.9,0.6c0,0.6-0.6,0.8-2.4,0.8H289c-5.6,0-8.1-0.5-10.7-1.9
		c-4.3-2.3-7.8-7.1-13.5-14.4c-4.2-5.4-8.9-12-10.9-14.5c-0.4-0.4-0.7-0.6-1.3-0.6l-12.3-0.2c-0.5,0-0.7,0.3-0.7,0.8v2.4
		c0,9.4,0,17.2,0.5,21.3c0.3,2.9,0.9,5,3.9,5.4c1.4,0.2,3.6,0.4,4.5,0.4c0.6,0,0.8,0.3,0.8,0.6c0,0.5-0.5,0.8-1.6,0.8
		c-5.5,0-11.8-0.3-12.3-0.3c-0.1,0-6.4,0.3-9.4,0.3c-1.1,0-1.6-0.2-1.6-0.8c0-0.3,0.2-0.6,0.8-0.6c0.9,0,2.1-0.2,3-0.4
		c2-0.4,2.5-2.6,2.9-5.4c0.5-4.1,0.5-11.9,0.5-21.3V335.5z"/>
	<path class="st1" d="M300.1,372.1c-9.7-8.6-12.1-19.8-12.1-29.1c0-6.6,2.3-18.1,11.2-26.8c6-5.9,15.1-10.5,30.5-10.5
		c4,0,9.6,0.3,14.5,1.2c3.8,0.7,7,1.3,10.2,1.5c1.1,0.1,1.3,0.5,1.3,1.1c0,0.8-0.3,2-0.5,5.5c-0.2,3.2-0.2,8.7-0.3,10.1
		c-0.1,1.5-0.3,2.1-0.9,2.1c-0.7,0-0.8-0.7-0.8-2.1c0-3.8-1.6-7.9-4.2-10c-3.5-3-11.2-5.6-20-5.6c-13.3,0-19.5,3.8-23,7.2
		c-7.3,6.9-9,15.6-9,25.7c0,18.8,14.7,36,36.1,36c7.5,0,13.4-0.9,17.4-4.9c2.1-2.2,3.4-6.5,3.7-8.3c0.2-1.1,0.4-1.5,1-1.5
		c0.5,0,0.7,0.7,0.7,1.5c0,0.7-1.2,9.2-2.2,12.6c-0.6,1.9-0.8,2.1-2.6,2.9c-4,1.6-11.6,2.3-18,2.3
		C318.1,382.7,308,379.1,300.1,372.1"/>
	<path class="st1" d="M374.6,335.5c0-15.3,0-18.1-0.2-21.2c-0.2-3.3-1-4.9-4.3-5.6c-0.8-0.2-2.5-0.3-3.4-0.3c-0.4,0-0.8-0.2-0.8-0.6
		c0-0.6,0.5-0.8,1.6-0.8c2.3,0,5,0,7.2,0.1l4.1,0.2c0.7,0,20.6,0,22.9-0.1c1.9-0.1,3.5-0.3,4.3-0.5c0.5-0.1,0.9-0.5,1.4-0.5
		c0.3,0,0.4,0.4,0.4,0.9c0,0.7-0.5,1.9-0.8,4.6c-0.1,1-0.3,5.3-0.5,6.5c-0.1,0.5-0.3,1.1-0.7,1.1c-0.6,0-0.8-0.5-0.8-1.3
		c0-0.7-0.1-2.4-0.6-3.5c-0.7-1.6-1.7-2.8-7.1-3.3c-1.7-0.2-12.6-0.3-13.7-0.3c-0.4,0-0.6,0.3-0.6,1V339c0,0.7,0.1,1,0.6,1
		c1.3,0,13.6,0,15.9-0.2c2.4-0.2,3.8-0.4,4.7-1.4c0.7-0.8,1.1-1.3,1.5-1.3c0.3,0,0.5,0.2,0.5,0.8s-0.5,2.3-0.8,5.5
		c-0.2,2-0.4,5.6-0.4,6.3c0,0.8,0,1.9-0.7,1.9c-0.5,0-0.7-0.4-0.7-0.9c0-1,0-2-0.4-3.2c-0.4-1.4-1.3-3-5.2-3.4
		c-2.7-0.3-12.6-0.5-14.3-0.5c-0.5,0-0.7,0.3-0.7,0.7v8.7c0,3.3-0.1,14.7,0,16.8c0.3,6.8,1.8,8.1,11.6,8.1c2.6,0,7,0,9.6-1.1
		c2.6-1.1,3.8-3,4.5-7.1c0.2-1.1,0.4-1.5,0.9-1.5c0.6,0,0.6,0.8,0.6,1.5c0,0.8-0.8,7.5-1.3,9.5c-0.7,2.6-1.5,2.6-5.4,2.6
		c-7.5,0-13-0.2-16.9-0.3c-3.9-0.2-6.3-0.3-7.8-0.3c-0.2,0-1.9,0-4,0.1c-2,0-4.3,0.2-5.8,0.2c-1.1,0-1.6-0.2-1.6-0.8
		c0-0.3,0.2-0.6,0.8-0.6c0.9,0,2.1-0.2,3-0.4c2-0.4,2.5-2.6,2.9-5.4c0.5-4.1,0.5-11.9,0.5-21.3V335.5z"/>
	<path class="st1" d="M424.9,380.4c-1.6-0.8-1.8-1.3-1.8-4.4c0-5.9,0.5-10.5,0.6-12.4c0.1-1.3,0.4-1.9,0.9-1.9
		c0.7,0,0.8,0.4,0.8,1.3c0,1.1,0,2.7,0.4,4.3c1.8,8.7,9.5,11.9,17.3,11.9c11.2,0,16.7-8.1,16.7-15.6c0-8.1-3.4-12.7-13.4-21
		l-5.3-4.3c-12.4-10.2-15.2-17.4-15.2-25.4c0-12.5,9.3-21,24.2-21c4.6,0,7.9,0.5,10.9,1.2c2.2,0.5,3.2,0.6,4.1,0.6
		c0.9,0,1.2,0.2,1.2,0.8c0,0.6-0.5,4.5-0.5,12.4c0,1.9-0.2,2.7-0.8,2.7c-0.7,0-0.8-0.6-0.9-1.5c-0.1-1.4-0.8-4.6-1.5-5.9
		c-0.7-1.3-3.9-6.2-14.6-6.2c-8.1,0-14.4,5-14.4,13.6c0,6.7,3,10.9,14.3,19.6l3.3,2.6c13.8,10.9,17.1,18.1,17.1,27.5
		c0,4.8-1.9,13.7-9.9,19.4c-5,3.5-11.3,4.9-17.6,4.9C435,383.5,429.7,382.7,424.9,380.4"/>
	<path class="st1" d="M-112.4,337.9c0,0.6,0.2,1,0.8,1.4c1.8,1,7.1,1.8,12.3,1.8c2.8,0,6.1-0.3,8.8-2.2c4.1-2.8,7.1-8.9,7.1-17.7
		c0-14.3-7.7-22.9-20.2-22.9c-3.5,0-6.7,0.3-7.8,0.7c-0.6,0.2-0.9,0.7-0.9,1.4V337.9z M-121.8,327.9c0-17.9,0-21.1-0.2-24.8
		c-0.2-3.9-1.2-5.7-5-6.5c-0.9-0.2-2.9-0.3-4-0.3c-0.5,0-0.9-0.2-0.9-0.7c0-0.7,0.6-0.9,1.9-0.9c5.3,0,12.6,0.3,13.2,0.3
		c1.3,0,10.2-0.3,13.8-0.3c7.4,0,15.2,0.7,21.4,5c2.9,2.1,8.1,7.7,8.1,15.6c0,8.5-3.6,17-14.1,26.5c9.6,12,17.5,22.2,24.3,29.4
		c6.3,6.5,11.3,7.8,14.3,8.3c2.2,0.3,3.9,0.3,4.6,0.3c0.6,0,1.1,0.3,1.1,0.7c0,0.7-0.7,0.9-2.8,0.9h-8.3c-6.5,0-9.5-0.6-12.5-2.2
		c-5-2.6-9.1-8.3-15.8-16.9c-4.9-6.3-10.4-14-12.7-17c-0.5-0.5-0.8-0.7-1.5-0.7l-14.4-0.2c-0.6,0-0.8,0.3-0.8,0.9v2.8
		c0,11,0,20.1,0.6,24.9c0.3,3.3,1,5.9,4.6,6.3c1.6,0.2,4.2,0.5,5.3,0.5c0.7,0,0.9,0.3,0.9,0.7c0,0.6-0.6,0.9-1.9,0.9
		c-6.4,0-13.8-0.3-14.4-0.3c-0.1,0-7.5,0.3-11,0.3c-1.3,0-1.9-0.2-1.9-0.9c0-0.3,0.2-0.7,0.9-0.7c1,0,2.5-0.2,3.5-0.5
		c2.3-0.5,2.9-3,3.4-6.3c0.6-4.8,0.6-13.9,0.6-24.9V327.9z"/>
	<path class="st0" d="M-63.1,289.6c0,0-2.2-2.4-2.1-7.3l1.5,0.9c-0.8-1.2-1.5-2.8-1.5-2.8s0-0.3,0.9-2.6c0.8-2.2,7.3-14.3,9.4-19.6
		c2.1-5.3,3.6-12.6,1.2-17.7l1.5,0.7c0,0-2.5-6.8-7.1-8.8c0,0,10.2,2.5,14.5,11.4c4.3,8.9,4.6,16.3,1.1,22.8c0,0,0.7,6.1-2.1,11.2
		c-1.2,2.3-5.3,7.9-5.8,8.1c-0.5,0.2,1.4-0.1,1.4-0.1c-4.1,6.1-10.3,4.8-10.3,4.8c14.7-22.7,12.6-45,12.5-43.8
		C-49.6,272.2-63.1,289.6-63.1,289.6"/>
	<path class="st2" d="M-48,134.6c0,0,8.3,15.7-1,26.6c-9,10.5-9.5,8.3-12.3,18.7c0,0-3.6-11.3,4.8-22.2
		C-49.1,147.8-47.1,144.9-48,134.6"/>
</g>
<g>
	<defs>
		<path id="SVGID_1_" d="M-81.4,219c-11.7,22.1,5.7,45.2,9.5,49.8h0.3c-9.1-17.4-5.1-26.9,5.1-48.5c10.9-23-2.5-40.8-2.5-40.8
			C-65.4,193.1-71.1,199.5-81.4,219"/>
	</defs>
	<clipPath id="SVGID_2_">
		<use xlink:href="#SVGID_1_"  style="overflow:visible;"/>
	</clipPath>
	
		<linearGradient id="SVGID_3_" gradientUnits="userSpaceOnUse" x1="-150.4341" y1="805.3228" x2="-144.8566" y2="805.3228" gradientTransform="matrix(1.9718 0 0 -1.9718 210.8309 1812.053)">
		<stop  offset="0" style="stop-color:#294988"/>
		<stop  offset="0.1548" style="stop-color:#365890"/>
		<stop  offset="0.4539" style="stop-color:#5880A7"/>
		<stop  offset="0.8638" style="stop-color:#8FC0CA"/>
		<stop  offset="1" style="stop-color:#A3D7D7"/>
	</linearGradient>
	<rect x="-93" y="179.5" class="st3" width="37.5" height="89.3"/>
</g>
<g>
	<defs>
		<path id="SVGID_4_" d="M-48.7,216.2c12.5,30.6,19,43.8,6.9,67h0.3c4.9-5.9,30.1-38.6,12.9-69.5C-42.6,188.3-49,178-44.4,160.1
			C-44.4,160.1-61.4,185.2-48.7,216.2"/>
	</defs>
	<clipPath id="SVGID_5_">
		<use xlink:href="#SVGID_4_"  style="overflow:visible;"/>
	</clipPath>
	
		<linearGradient id="SVGID_6_" gradientUnits="userSpaceOnUse" x1="-133.4828" y1="753.3818" x2="-127.9053" y2="753.3818" gradientTransform="matrix(3.2829 0 0 -3.2829 390.7838 2694.9502)">
		<stop  offset="0" style="stop-color:#A3D7D7"/>
		<stop  offset="9.845835e-002" style="stop-color:#95C7CE"/>
		<stop  offset="0.5288" style="stop-color:#5B83A8"/>
		<stop  offset="0.8407" style="stop-color:#375991"/>
		<stop  offset="1" style="stop-color:#294988"/>
	</linearGradient>
	<rect x="-61.4" y="160.1" class="st4" width="50" height="123.1"/>
</g>
</svg>
