<?xml version="1.0" encoding="utf-8"?>
<!-- Generator: Adobe Illustrator 19.2.1, SVG Export Plug-In . SVG Version: 6.00 Build 0)  -->
<svg version="1.1" id="layer" xmlns="http://www.w3.org/2000/svg" xmlns:xlink="http://www.w3.org/1999/xlink" x="0px" y="0px"
	 viewBox="0 0 652 652" style="enable-background:new 0 0 652 652;" xml:space="preserve">
<style type="text/css">
	.st0{fill:#FFFFFF;}
</style>
<g>
	<path d="M554.2,399.7c-0.7,2-1.8,3.4-3.5,4.1c-1.6,0.8-3.5,0.8-5.5,0.1l-11-3.7c-2-0.7-3.4-1.8-4.3-3.4c-0.8-1.6-0.9-3.4-0.2-5.4
		c0.7-2,1.8-3.3,3.4-4.1c1.6-0.8,3.5-0.8,5.5-0.1l11,3.7c2,0.7,3.5,1.8,4.3,3.5C554.8,396,554.8,397.7,554.2,399.7z M557,388.9
		c-1.4-1.6-3.2-2.8-5.5-3.6l-10.8-3.7c-2.3-0.8-4.5-1-6.6-0.6c-2.1,0.4-4,1.4-5.5,2.8c-1.6,1.5-2.8,3.4-3.6,5.8
		c-0.8,2.4-1,4.7-0.7,6.8c0.3,2.1,1.2,4,2.7,5.6c1.4,1.6,3.3,2.8,5.6,3.6l10.8,3.6c2.3,0.8,4.4,0.9,6.5,0.5c2.1-0.4,3.9-1.4,5.5-2.8
		s2.8-3.4,3.6-5.8c0.8-2.4,1-4.6,0.7-6.7C559.3,392.5,558.4,390.5,557,388.9L557,388.9z M549.2,423.6l-29.6-15.3
		c-0.5-0.2-0.8-0.1-1.1,0.3l-1.9,3.7c-0.2,0.5-0.1,0.8,0.3,1.1l20.1,10.3c0.1,0.1,0.2,0.1,0.2,0.2c0,0.1-0.1,0.1-0.2,0.1l-26.8,1.9
		c-0.4,0-0.7,0.2-0.9,0.6l-1.9,3.6c-0.2,0.5-0.1,0.8,0.3,1.1l29.6,15.3c0.5,0.2,0.8,0.1,1.1-0.3l1.9-3.7c0.2-0.5,0.1-0.8-0.3-1.1
		l-20-10.3c-0.1-0.1-0.2-0.1-0.2-0.2c0-0.1,0.1-0.1,0.2-0.1l26.7-1.9c0.4,0,0.7-0.2,0.9-0.6l1.8-3.5
		C549.8,424.2,549.7,423.8,549.2,423.6L549.2,423.6z M286,544.6l-2.2,11.4c-0.4,2.1-1.4,3.7-2.8,4.7c-1.5,1-3.2,1.4-5.3,1
		c-2.1-0.4-3.6-1.3-4.6-2.9c-1-1.5-1.3-3.3-0.9-5.4l2.2-11.4c0.4-2.1,1.3-3.7,2.8-4.7c1.5-1,3.3-1.4,5.3-1c2,0.4,3.5,1.3,4.5,2.8
		C286.1,540.7,286.4,542.5,286,544.6z M287.8,534.2c-1.7-1.4-3.8-2.3-6.2-2.7c-2.5-0.5-4.8-0.4-6.8,0.2c-2,0.6-3.8,1.8-5.2,3.4
		c-1.4,1.6-2.3,3.6-2.8,6l-2.1,11.2c-0.4,2.4-0.3,4.5,0.4,6.5c0.7,2,1.9,3.7,3.6,5c1.7,1.4,3.8,2.3,6.3,2.7c2.5,0.5,4.7,0.4,6.8-0.3
		c2-0.6,3.8-1.8,5.2-3.4c1.4-1.6,2.3-3.6,2.8-5.9l2.1-11.2c0.5-2.4,0.3-4.6-0.3-6.6C290.7,537.3,289.4,535.5,287.8,534.2z
		 M455.9,527.1c-0.3-0.5-0.6-0.6-1.1-0.3l-7.4,4.3c-0.2,0.1-0.3,0.1-0.4-0.1l-14.4-24.9c-0.3-0.5-0.6-0.6-1.1-0.3l-3.6,2.1
		c-0.5,0.3-0.6,0.6-0.3,1.1l14.4,24.9c0.1,0.2,0.1,0.3-0.1,0.4l-7.7,4.5c-0.5,0.3-0.6,0.6-0.3,1.1l1.7,3c0.3,0.5,0.6,0.6,1.1,0.3
		l20.7-12c0.5-0.3,0.6-0.6,0.3-1.1C457.7,530.1,455.9,527.1,455.9,527.1z M227.6,514.1l-3.7-1.9c-0.5-0.2-0.8-0.1-1.1,0.4l-5.9,11.7
		c-0.1,0.1-0.2,0.2-0.3,0.3l-17.9,13c-0.1,0.1-0.3,0.2-0.3,0.3c-0.2,0.3,0,0.6,0.4,0.8l4.1,2.1c0.4,0.2,0.8,0.2,1.1-0.1l12.3-9.2
		c0.1-0.1,0.2-0.1,0.2-0.1c0.1,0,0.1,0.1,0.1,0.2l0,15.3c0,0.4,0.2,0.8,0.6,1l4.1,2c0.4,0.2,0.7,0.2,0.8-0.1
		c0.1-0.1,0.1-0.3,0.1-0.5l-0.2-22.1c0-0.2,0-0.3,0.1-0.4l5.9-11.7C228.2,514.7,228.1,514.3,227.6,514.1L227.6,514.1z M475.2,509.9
		c-0.2,1.8-1.1,3.3-2.7,4.6c-1.7,1.3-3.4,1.8-5.2,1.6c-1.8-0.3-3.4-1.2-4.7-2.9l-7.1-9.2c-1.3-1.7-1.9-3.4-1.7-5.2
		c0.2-1.8,1.1-3.3,2.8-4.6c1.6-1.3,3.3-1.8,5.1-1.5c1.8,0.3,3.3,1.2,4.7,2.9l7.1,9.2C474.8,506.4,475.4,508.1,475.2,509.9
		L475.2,509.9z M478,501.1l-7-9c-1.5-1.9-3.2-3.3-5.2-4.1c-1.9-0.8-4.1-1.1-6.2-0.7c-2.1,0.4-4.2,1.3-6.2,2.9
		c-2,1.6-3.4,3.3-4.3,5.3c-0.9,1.9-1.2,4.1-0.9,6.1c0.3,2.1,1.2,4.1,2.7,6.1l7,9c1.5,1.9,3.2,3.2,5.2,4c2,0.8,4,1,6.2,0.6
		c2.1-0.4,4.2-1.3,6.2-2.9c2-1.5,3.4-3.3,4.3-5.3c0.9-2,1.2-4,0.9-6.1C480.4,504.9,479.5,502.9,478,501.1L478,501.1z M524.7,451.3
		c-1.6-1.1-3.2-1.7-4.8-1.7c-1.6,0-3.2,0.4-4.7,1.2c-1.5,0.7-3.3,1.8-5.3,3.2c-1.9,1.2-3.3,2.1-4.4,2.7c-1,0.5-2,0.9-2.8,0.9
		c-0.9,0.1-1.7-0.2-2.4-0.7c-1.1-0.7-1.7-1.9-1.8-3.2c-0.1-1.3,0.4-2.8,1.6-4.5c1.3-1.8,2.7-3,4.4-3.5c1.6-0.5,3-0.3,4.3,0.6
		l0.6,0.5c0.4,0.3,0.8,0.2,1.1-0.2l2.4-3.3c0.3-0.4,0.3-0.8-0.2-1.1l-0.9-0.6c-1.5-1.1-3.3-1.8-5.2-1.8c-1.8,0-3.6,0.5-5.4,1.5
		c-1.8,1.1-3.4,2.6-4.9,4.7c-1.5,2.1-2.4,4.1-2.8,6.1c-0.4,2-0.3,3.8,0.3,5.5c0.6,1.7,1.7,3.1,3.3,4.2c1.6,1.1,3.2,1.7,4.9,1.6
		c1.6,0,3.2-0.4,4.6-1.2c1.8-1,3.6-2,5.3-3.2c1.9-1.3,3.4-2.3,4.5-2.9c1-0.6,2-0.9,2.8-0.9c0.8-0.1,1.6,0.2,2.5,0.8
		c1.1,0.8,1.7,1.9,1.7,3.1c0,1.3-0.5,2.6-1.6,4.1c-1.3,1.8-2.8,3-4.4,3.4c-1.6,0.4-3.1,0.2-4.3-0.8l-0.4-0.3
		c-0.1-0.1-0.3-0.1-0.5-0.1c-0.2,0.1-0.4,0.2-0.5,0.4l-2.4,3.3c-0.3,0.4-0.3,0.8,0.2,1.1l0.5,0.4c1.7,1.2,3.4,1.8,5.3,1.8
		c1.9,0,3.7-0.5,5.5-1.5c1.8-1.1,3.5-2.6,4.9-4.6c2.1-2.9,3-5.7,2.9-8.4S527.1,453,524.7,451.3L524.7,451.3z M250.7,544.7l-3.2,9.3
		c-0.1,0.2-0.2,0.3-0.4,0.2l-7-2.4c-1.5-0.5-2.6-1.4-3.2-2.7c-0.6-1.2-0.7-2.6-0.1-4.1c0.5-1.4,1.4-2.5,2.6-3
		c1.2-0.6,2.6-0.6,4.1-0.1l7,2.4C250.7,544.4,250.8,544.5,250.7,544.7L250.7,544.7z M261.9,527.6l-4-1.4c-0.5-0.2-0.8,0-1,0.5
		l-4.6,13.2c-0.1,0.2-0.2,0.3-0.4,0.2l-5.5-1.9c-0.2-0.1-0.3-0.2-0.3-0.3l-1.5-15.6c0-0.4-0.3-0.7-0.7-0.9l-4.1-1.4
		c-0.4-0.2-0.7-0.1-0.8,0.3l0,0.4l1.8,15.7c0,0.1,0,0.2,0,0.2c-0.1,0.1-0.2,0.1-0.2,0.1c-2-0.1-4,0.4-5.7,1.5
		c-1.6,1.1-2.8,2.8-3.6,5c-0.6,1.7-0.8,3.6-0.5,5.4c0.3,1.7,1.1,3.3,2.3,4.6c1.2,1.3,2.8,2.3,4.7,3l12.8,4.4c0.5,0.2,0.8,0,1-0.5
		l10.9-31.5C262.6,528.1,262.4,527.7,261.9,527.6z M351,545.6c-0.2-2.3-0.8-4.3-2-6c-1.2-1.7-2.8-3-4.7-3.8c-2-0.8-4.2-1.2-6.7-1
		c-2.5,0.2-4.6,0.8-6.4,1.9c-1.8,1-3.2,2.5-4.1,4.3c-0.9,1.8-1.3,3.8-1.1,6.1l0,0.3c0,0.1,0.3,0.2,0.8,0.2l4.2-0.1
		c0.2,0,0.4,0,0.6-0.2c0.1-0.1,0.2-0.3,0.2-0.4c-0.1-2,0.3-3.6,1.5-4.8c1.1-1.3,2.7-2,4.7-2.1c2-0.1,3.7,0.3,5,1.4
		c1.3,1.1,2,2.6,2.2,4.5l0.9,12.7c0.1,2-0.4,3.6-1.5,4.9c-1.1,1.3-2.7,2-4.7,2.1c-2,0.2-3.7-0.3-5-1.4c-1.3-1.1-2-2.6-2.2-4.6l0-0.3
		c0-0.2-0.2-0.2-0.6-0.2l-0.2,0l-4.2,0.6c-0.5,0.1-0.7,0.3-0.7,0.7c0.2,2.2,0.8,4.1,2,5.8c1.2,1.6,2.7,2.8,4.7,3.6
		c2,0.8,4.2,1.1,6.6,0.9c2.5-0.2,4.6-0.8,6.5-1.9c1.8-1.1,3.2-2.6,4.1-4.4c0.9-1.8,1.3-3.9,1.1-6.2L351,545.6L351,545.6z
		 M571.2,314.1l-33.3-0.9c-0.5,0-0.8,0.2-0.8,0.8l-0.1,4.2c0,0.5,0.2,0.8,0.8,0.8l23.6,0.7c0.1,0,0.2,0,0.3,0.1c0,0.1,0,0.2-0.2,0.2
		l-9.9,5.7c-0.4,0.2-0.6,0.5-0.6,1l-0.1,1.9c0,0.5,0.2,0.8,0.5,1l9.6,6.2c0.1,0.1,0.2,0.1,0.1,0.2c0,0.1-0.1,0.1-0.3,0.1l-23.6-0.7
		c-0.5,0-0.8,0.2-0.8,0.8l-0.1,4.2c0,0.5,0.2,0.8,0.8,0.8l33.3,0.9c0.5,0,0.8-0.2,0.8-0.8l0.1-4.2c0-0.5-0.2-0.8-0.5-1l-12.3-8.2
		c-0.1,0-0.1-0.1-0.1-0.2c0-0.1,0.1-0.2,0.2-0.2l12.8-7.4c0.4-0.2,0.6-0.5,0.6-1l0.1-4.2C572,314.4,571.7,314.1,571.2,314.1z
		 M516.1,228.9c0.2,0.5,0.6,0.6,1.1,0.4l25.9-12.6c0.2-0.1,0.3,0,0.4,0.1l3.9,8c0.2,0.5,0.6,0.6,1.1,0.4l3.1-1.5
		c0.5-0.2,0.6-0.6,0.4-1.1l-10.4-21.5c-0.2-0.5-0.6-0.6-1.1-0.4l-3.1,1.5c-0.5,0.2-0.6,0.6-0.4,1.1l3.8,7.7c0.1,0.2,0,0.3-0.1,0.4
		L514.6,224c-0.5,0.2-0.6,0.6-0.4,1.1C514.3,225.1,516.1,228.9,516.1,228.9z M531.9,273.9l3.8,21.7c0.1,0.5,0.4,0.7,0.9,0.6l3.3-0.6
		c0.5-0.1,0.7-0.4,0.7-0.9l-2.9-16.5c0-0.2,0.1-0.3,0.2-0.3l9.4-1.6c0.2,0,0.3,0.1,0.4,0.2l1.9,11c0.1,0.5,0.4,0.7,0.9,0.7l3.3-0.6
		c0.5-0.1,0.7-0.4,0.7-0.9l-1.9-11c0-0.2,0-0.3,0.2-0.3l9.1-1.6c0.2,0,0.3,0,0.3,0.2l2.9,16.5c0.1,0.5,0.4,0.7,0.9,0.7l3.3-0.6
		c0.5-0.1,0.7-0.4,0.7-0.9l-3.8-21.7c-0.1-0.5-0.4-0.7-0.9-0.6l-32.8,5.7C532,273.1,531.8,273.4,531.9,273.9z M522.7,243.5l1.3,4
		c0.2,0.5,0.5,0.7,1,0.5l13.3-4.3c0.2-0.1,0.3,0,0.4,0.2l3.9,12c0.1,0.2,0,0.3-0.2,0.4l-13.3,4.3c-0.5,0.2-0.7,0.5-0.5,1l1.3,4
		c0.2,0.5,0.5,0.7,1,0.5l31.7-10.3c0.5-0.2,0.7-0.5,0.5-1l-1.3-4c-0.2-0.5-0.5-0.7-1-0.5l-13,4.2c-0.2,0.1-0.3,0-0.4-0.2l-3.9-12
		c-0.1-0.2,0-0.3,0.2-0.4l13-4.3c0.5-0.2,0.7-0.5,0.5-1l-1.3-4c-0.2-0.5-0.5-0.7-1-0.5l-31.7,10.3
		C522.7,242.7,522.6,243,522.7,243.5z M374,558.1c0,0.1-0.1,0.2-0.2,0.2c-0.1,0-0.2,0-0.2-0.2l-8.6-15.5c-0.1-0.2,0-0.4,0.2-0.4
		l9.9-2.2c0.2,0,0.3,0.1,0.3,0.3C375.5,540.4,374,558.1,374,558.1z M381.5,527.9l-4.4,1c-0.5,0.1-0.7,0.4-0.7,0.8l-0.4,5.3
		c0,0.2-0.1,0.3-0.3,0.3l-12.8,2.8c-0.2,0-0.3,0-0.4-0.2l-2.6-4.7c-0.2-0.4-0.6-0.5-1-0.4l-4.4,1c-0.5,0.1-0.6,0.3-0.6,0.7
		c0,0.1,0.1,0.2,0.1,0.3l17.6,30.3c0.2,0.4,0.6,0.5,1,0.4l5.7-1.2c0.5-0.1,0.7-0.4,0.7-0.8l3.3-34.9c0-0.3-0.1-0.5-0.2-0.6
		C381.9,527.9,381.7,527.9,381.5,527.9L381.5,527.9z M319.7,565.9l-8.6-0.5c-0.2,0-0.3-0.1-0.3-0.3l1.6-28.7c0-0.5-0.2-0.8-0.8-0.8
		l-4.2-0.2c-0.5,0-0.8,0.2-0.8,0.8l-1.6,28.7c0,0.2-0.1,0.3-0.3,0.3l-8.9-0.5c-0.5,0-0.8,0.2-0.8,0.8l-0.2,3.4
		c0,0.5,0.2,0.8,0.8,0.8l23.8,1.4c0.5,0,0.8-0.2,0.8-0.8l0.2-3.4C320.5,566.2,320.2,566,319.7,565.9z M403.9,520.7
		c-0.2-0.5-0.5-0.7-1-0.5l-3.9,1.4c-0.5,0.2-0.7,0.5-0.5,1l4.7,13.2c0.1,0.2,0,0.3-0.2,0.4l-10.5,3.7c-0.5,0.2-0.7,0.5-0.5,1
		l1.1,3.2c0.2,0.5,0.5,0.7,1,0.5l10.5-3.7c0.2-0.1,0.3,0,0.4,0.2l3.1,8.7c0.1,0.2,0,0.3-0.2,0.4l-15.7,5.6c-0.5,0.2-0.7,0.5-0.5,1
		l1.1,3.2c0.2,0.5,0.5,0.7,1,0.5l20.7-7.4c0.5-0.2,0.7-0.5,0.5-1L403.9,520.7L403.9,520.7z M486.1,461.3c-0.4-0.4-0.8-0.4-1.1,0
		l-2.9,3c-0.4,0.4-0.4,0.8,0,1.1l10.1,9.7c0.1,0.1,0.1,0.3,0,0.4l-8.7,9.1c-0.1,0.1-0.3,0.1-0.4,0L473,475c-0.4-0.4-0.8-0.4-1.1,0
		l-2.9,3c-0.4,0.4-0.4,0.8,0,1.1l24,23.1c0.4,0.4,0.8,0.4,1.1,0l2.9-3c0.4-0.4,0.4-0.8,0-1.1l-9.9-9.5c-0.1-0.1-0.1-0.3,0-0.4
		l8.7-9.1c0.1-0.1,0.3-0.1,0.4,0l9.9,9.5c0.4,0.4,0.8,0.4,1.1,0l2.9-3c0.4-0.4,0.4-0.8,0-1.1C510.2,484.4,486.1,461.3,486.1,461.3z
		 M563.1,365.5c-0.4,2.1-1.3,3.6-2.8,4.6c-1.5,1-3.3,1.3-5.4,0.9l-11.4-2.1c-2.1-0.4-3.7-1.3-4.7-2.8c-1-1.5-1.4-3.2-1-5.3
		c0.4-2,1.3-3.5,2.8-4.6c1.5-1,3.3-1.3,5.4-0.9l11.4,2.1c2.1,0.4,3.7,1.3,4.8,2.8C563.1,361.7,563.4,363.5,563.1,365.5z
		 M564.3,354.4c-1.6-1.4-3.6-2.3-6-2.7l-11.2-2.1c-2.4-0.4-4.6-0.3-6.6,0.4c-2,0.7-3.8,1.9-5,3.6c-1.4,1.7-2.2,3.8-2.7,6.2
		c-0.5,2.5-0.4,4.8,0.3,6.8c0.7,2.1,1.8,3.8,3.4,5.2c1.6,1.4,3.7,2.3,6,2.7l11.2,2.1c2.4,0.4,4.5,0.3,6.5-0.4c2-0.7,3.7-1.9,5-3.6
		c1.3-1.7,2.2-3.8,2.7-6.3c0.5-2.5,0.4-4.7-0.3-6.8C567.1,357.6,565.9,355.8,564.3,354.4z M190.1,143.2c-0.2,1.8-1.1,3.3-2.8,4.6
		c-1.6,1.3-3.3,1.8-5.1,1.5c-1.8-0.3-3.3-1.2-4.7-2.9l-7.1-9.2c-1.3-1.7-1.9-3.5-1.7-5.3c0.2-1.8,1.1-3.3,2.7-4.6
		c1.7-1.3,3.4-1.8,5.2-1.6c1.8,0.3,3.4,1.2,4.7,2.9l7.1,9.2C189.8,139.6,190.3,141.4,190.1,143.2z M192.9,134.3l-7-9
		c-1.5-1.9-3.2-3.2-5.2-4c-1.9-0.8-4.1-1-6.2-0.6c-2.1,0.4-4.2,1.3-6.2,2.9c-2,1.5-3.4,3.3-4.3,5.3c-0.9,1.9-1.2,4-0.9,6.1
		c0.3,2.1,1.2,4.1,2.6,6l7,9c1.5,1.9,3.2,3.3,5.2,4.1c2,0.8,4,1.1,6.2,0.7c2.1-0.4,4.2-1.3,6.2-2.9c2-1.6,3.4-3.3,4.3-5.3
		c0.9-2,1.2-4,0.9-6.1C195.3,138.2,194.4,136.2,192.9,134.3z M445.5,104.1c0.2-0.3,0-0.6-0.4-0.8l-4.1-2.1c-0.4-0.2-0.8-0.2-1.1,0.1
		l-12.3,9.2c-0.1,0.1-0.2,0.1-0.2,0.1c-0.1,0-0.1-0.1-0.1-0.2l0.1-15.3c0-0.4-0.2-0.8-0.6-1l-4.1-2c-0.4-0.2-0.7-0.2-0.8,0.1
		c-0.1,0.1-0.1,0.3-0.1,0.5l0.2,22.1c0,0.1,0,0.2-0.1,0.4l-5.9,11.7c-0.2,0.5-0.1,0.8,0.4,1.1l3.7,1.9c0.5,0.2,0.8,0.1,1.1-0.4
		l5.9-11.7c0.1-0.1,0.2-0.2,0.2-0.3l17.9-13C445.3,104.3,445.4,104.2,445.5,104.1z M240,121.2c0.2,0.5,0.5,0.7,1,0.5l3.9-1.4
		c0.5-0.2,0.7-0.5,0.5-1l-4.7-13.2c-0.1-0.2,0-0.3,0.2-0.4l10.5-3.7c0.5-0.2,0.7-0.5,0.5-1l-1.1-3.2c-0.2-0.5-0.5-0.7-1-0.5
		l-10.5,3.7c-0.2,0.1-0.3,0-0.4-0.2l-3.1-8.7c-0.1-0.2,0-0.3,0.2-0.4l15.7-5.6c0.5-0.2,0.7-0.5,0.5-1l-1.1-3.2
		c-0.2-0.5-0.5-0.7-1-0.5l-20.7,7.4c-0.5,0.2-0.7,0.5-0.5,1L240,121.2L240,121.2z M212.4,136.1l3.6-2.1c0.5-0.3,0.6-0.6,0.3-1.1
		L201.9,108c-0.1-0.2-0.1-0.3,0.1-0.4l7.7-4.5c0.5-0.3,0.6-0.6,0.3-1.1l-1.7-3c-0.3-0.5-0.6-0.6-1.1-0.3l-20.7,12
		c-0.5,0.3-0.6,0.6-0.3,1.1l1.7,3c0.3,0.5,0.6,0.6,1.1,0.3l7.4-4.3c0.2-0.1,0.3-0.1,0.4,0.1l14.4,24.9
		C211.6,136.3,212,136.4,212.4,136.1L212.4,136.1z M293,96.3c0.2,2.3,0.8,4.3,2,6c1.2,1.7,2.7,2.9,4.7,3.8c2,0.8,4.2,1.2,6.7,1
		c2.5-0.2,4.6-0.8,6.4-1.9c1.8-1,3.2-2.5,4.1-4.3c0.9-1.8,1.3-3.8,1.1-6.1l0-0.3c0-0.1-0.3-0.2-0.8-0.2l-4.2,0.1
		c-0.2,0-0.4,0-0.6,0.2c-0.1,0.1-0.2,0.3-0.2,0.4c0.1,2-0.4,3.6-1.5,4.8c-1.1,1.3-2.7,2-4.7,2.1c-2,0.2-3.7-0.3-5-1.4
		c-1.3-1.1-2-2.6-2.2-4.5l-0.9-12.7c-0.1-2,0.4-3.6,1.5-4.9c1.1-1.3,2.7-2,4.7-2.1c2-0.2,3.7,0.3,5,1.4c1.3,1.1,2,2.6,2.2,4.6l0,0.3
		c0,0.2,0.2,0.2,0.6,0.2l0.2,0l4.2-0.6c0.5-0.1,0.7-0.3,0.7-0.7c-0.2-2.2-0.8-4.1-2-5.8c-1.2-1.6-2.8-2.9-4.7-3.6
		c-2-0.8-4.2-1.1-6.6-0.9c-2.5,0.2-4.6,0.8-6.5,1.9c-1.8,1-3.2,2.6-4.1,4.4c-0.9,1.8-1.3,3.9-1.1,6.2C292.1,84,293,96.3,293,96.3z
		 M269.9,83.9c0-0.1,0.1-0.2,0.2-0.2c0.1,0,0.2,0,0.2,0.2l8.6,15.5c0.1,0.2,0,0.4-0.2,0.4l-9.9,2.2c-0.2,0-0.3-0.1-0.3-0.3
		C268.5,101.5,269.9,83.9,269.9,83.9z M262.5,114l4.4-1c0.5-0.1,0.7-0.4,0.7-0.8l0.4-5.3c0-0.2,0.1-0.3,0.3-0.3l12.8-2.8
		c0.2,0,0.3,0,0.4,0.2l2.6,4.7c0.2,0.4,0.6,0.5,1,0.4l4.4-1c0.5-0.1,0.6-0.3,0.6-0.7c0-0.1-0.1-0.2-0.1-0.3l-17.6-30.3
		c-0.2-0.4-0.6-0.5-1-0.4l-5.7,1.2c-0.5,0.1-0.7,0.4-0.7,0.8l-3.3,34.9c0,0.3,0.1,0.5,0.2,0.6C262,114,262.2,114.1,262.5,114z
		 M357.9,97.3l2.2-11.4c0.4-2.1,1.4-3.7,2.8-4.7c1.5-1,3.2-1.4,5.3-1c2.1,0.4,3.6,1.3,4.6,2.9c1,1.5,1.3,3.3,0.9,5.4l-2.2,11.4
		c-0.4,2.1-1.3,3.7-2.8,4.7c-1.5,1-3.3,1.4-5.3,1c-2-0.4-3.5-1.3-4.5-2.8C357.8,101.2,357.5,99.4,357.9,97.3z M356.2,107.7
		c1.7,1.4,3.8,2.3,6.2,2.7c2.5,0.5,4.8,0.4,6.8-0.2c2-0.6,3.8-1.8,5.2-3.4c1.4-1.6,2.3-3.6,2.8-6l2.1-11.2c0.5-2.4,0.3-4.5-0.4-6.5
		c-0.7-2-1.9-3.7-3.6-5c-1.7-1.4-3.8-2.3-6.3-2.7c-2.4-0.5-4.7-0.4-6.8,0.3c-2,0.6-3.8,1.8-5.2,3.4c-1.4,1.6-2.3,3.6-2.8,5.9
		L352.3,96c-0.5,2.4-0.3,4.6,0.3,6.6C353.3,104.7,354.5,106.4,356.2,107.7z M150.9,139.7c-0.4-0.4-0.8-0.4-1.1,0l-2.9,3
		c-0.4,0.4-0.4,0.8,0,1.1l9.9,9.5c0.1,0.1,0.2,0.3,0,0.4l-8.7,9.1c-0.1,0.1-0.3,0.2-0.4,0l-9.9-9.5c-0.4-0.4-0.8-0.4-1.1,0l-2.9,3
		c-0.4,0.4-0.4,0.8,0,1.1l24.1,23.1c0.4,0.4,0.8,0.4,1.1,0l2.9-3c0.4-0.4,0.4-0.8,0-1.1l-10.1-9.7c-0.1-0.1-0.1-0.3,0-0.4l8.7-9.1
		c0.1-0.1,0.3-0.1,0.4,0l10.1,9.7c0.4,0.4,0.8,0.4,1.1,0l2.9-3c0.4-0.4,0.4-0.8,0-1.1L150.9,139.7L150.9,139.7z M393.2,97.2l3.2-9.3
		c0.1-0.2,0.2-0.3,0.4-0.2l7,2.4c1.5,0.5,2.6,1.4,3.2,2.7c0.6,1.2,0.7,2.6,0.1,4.1c-0.5,1.4-1.4,2.5-2.6,3c-1.2,0.6-2.6,0.6-4.1,0.1
		l-7-2.4C393.2,97.5,393.1,97.4,393.2,97.2L393.2,97.2z M382,114.4l4,1.4c0.5,0.2,0.8,0,1-0.5l4.6-13.2c0.1-0.2,0.2-0.3,0.4-0.2
		l5.5,1.9c0.2,0.1,0.3,0.2,0.3,0.3l1.5,15.6c0,0.4,0.3,0.7,0.7,0.9l4.1,1.4c0.4,0.2,0.7,0.1,0.8-0.3l0-0.4l-1.8-15.7
		c0-0.1,0-0.2,0-0.2c0.1-0.1,0.2-0.1,0.2-0.1c2.1,0.1,4-0.4,5.7-1.5c1.6-1.1,2.8-2.8,3.6-5c0.7-1.9,0.8-3.7,0.5-5.4
		c-0.3-1.7-1.1-3.3-2.3-4.6c-1.3-1.4-2.9-2.4-4.7-3l-12.8-4.4c-0.5-0.2-0.8,0-1,0.5l-10.9,31.5C381.3,113.8,381.5,114.2,382,114.4z
		 M89.7,242.2c0.7-2,1.8-3.4,3.5-4.1c1.6-0.8,3.5-0.8,5.5-0.1l11,3.7c2,0.7,3.4,1.8,4.3,3.4c0.8,1.6,0.9,3.4,0.2,5.4
		c-0.7,2-1.8,3.3-3.4,4.1c-1.6,0.8-3.5,0.8-5.5,0.1l-11-3.7c-2-0.7-3.5-1.8-4.3-3.5S89.1,244.2,89.7,242.2z M87,253
		c1.4,1.6,3.2,2.8,5.5,3.6l10.8,3.6c2.3,0.8,4.5,1,6.6,0.6c2.1-0.4,4-1.4,5.5-2.8c1.6-1.5,2.8-3.4,3.6-5.8c0.8-2.4,1-4.7,0.7-6.8
		c-0.3-2.1-1.2-4-2.7-5.6c-1.4-1.6-3.3-2.8-5.6-3.6l-10.8-3.7c-2.3-0.8-4.4-0.9-6.5-0.5c-2.1,0.4-3.9,1.4-5.5,2.9
		c-1.6,1.5-2.8,3.4-3.6,5.8c-0.8,2.4-1,4.6-0.7,6.7C84.7,249.5,85.6,251.4,87,253z M324.2,76l8.6,0.5c0.2,0,0.3,0.1,0.3,0.3
		l-1.6,28.7c0,0.5,0.2,0.8,0.8,0.8l4.2,0.2c0.5,0,0.8-0.2,0.8-0.8l1.6-28.7c0-0.2,0.1-0.3,0.3-0.3l8.9,0.5c0.5,0,0.8-0.2,0.8-0.8
		l0.2-3.4c0-0.5-0.2-0.8-0.8-0.8L324.5,71c-0.5,0-0.8,0.2-0.8,0.8l-0.2,3.4C323.5,75.7,323.7,76,324.2,76z M136.2,210.6l-29.6-15.3
		c-0.5-0.2-0.8-0.1-1.1,0.3l-1.9,3.7c-0.3,0.5-0.1,0.8,0.3,1.1l20,10.3c0.1,0.1,0.2,0.1,0.2,0.2c0,0.1-0.1,0.1-0.2,0.1l-26.7,1.9
		c-0.4,0-0.7,0.2-0.9,0.6l-1.8,3.5c-0.2,0.5-0.1,0.8,0.3,1.1l29.6,15.3c0.5,0.2,0.8,0.1,1.1-0.3l1.9-3.7c0.2-0.5,0.1-0.8-0.3-1.1
		l-20.1-10.3c-0.1-0.1-0.2-0.1-0.2-0.2c0-0.1,0.1-0.1,0.2-0.1l26.8-1.9c0.4,0,0.7-0.2,0.9-0.6l1.9-3.6
		C136.8,211.2,136.7,210.9,136.2,210.6z M80.9,276.5c0.4-2.1,1.3-3.6,2.8-4.6c1.5-1,3.3-1.3,5.4-0.9l11.4,2.1
		c2.1,0.4,3.7,1.3,4.7,2.8c1,1.5,1.4,3.2,1,5.3c-0.4,2-1.3,3.5-2.8,4.6c-1.5,1-3.3,1.3-5.4,0.9l-11.4-2.1c-2.1-0.4-3.7-1.3-4.8-2.8
		C80.8,280.2,80.5,278.5,80.9,276.5L80.9,276.5z M79.7,287.5c1.6,1.4,3.6,2.3,6,2.7l11.2,2.1c2.4,0.4,4.6,0.3,6.6-0.4
		c2-0.7,3.8-1.9,5-3.6c1.3-1.7,2.2-3.8,2.7-6.2c0.5-2.5,0.4-4.8-0.3-6.8c-0.6-2-1.8-3.8-3.4-5.2c-1.6-1.4-3.7-2.3-6-2.7l-11.2-2.1
		c-2.4-0.4-4.5-0.3-6.5,0.4c-2,0.7-3.7,1.9-5,3.6c-1.3,1.7-2.2,3.8-2.7,6.3c-0.5,2.5-0.4,4.7,0.3,6.8
		C76.9,284.4,78.1,286.1,79.7,287.5L79.7,287.5z M127.8,413.1c-0.2-0.5-0.6-0.6-1.1-0.4l-25.9,12.6c-0.2,0.1-0.3,0-0.4-0.1l-3.9-8
		c-0.2-0.5-0.6-0.6-1.1-0.4l-3.1,1.5c-0.5,0.2-0.6,0.6-0.4,1.1l10.4,21.5c0.2,0.5,0.6,0.6,1.1,0.4l3.1-1.5c0.5-0.2,0.6-0.6,0.4-1.1
		l-3.8-7.7c-0.1-0.2,0-0.3,0.1-0.4l25.9-12.6c0.5-0.2,0.6-0.6,0.4-1.1L127.8,413.1L127.8,413.1z M147,180.3
		c-1.6-1.1-3.2-1.7-4.9-1.6c-1.6,0-3.2,0.4-4.6,1.2c-1.4,0.7-3.2,1.8-5.3,3.2c-1.9,1.3-3.4,2.3-4.5,2.9c-1,0.6-2,0.9-2.8,0.9
		c-0.8,0.1-1.6-0.2-2.5-0.8c-1.1-0.8-1.7-1.9-1.8-3.1c0-1.3,0.5-2.6,1.6-4.1c1.3-1.8,2.8-3,4.4-3.4c1.6-0.4,3.1-0.2,4.3,0.8l0.4,0.3
		c0.1,0.1,0.3,0.1,0.5,0.1c0.2-0.1,0.4-0.2,0.5-0.4l2.4-3.3c0.3-0.4,0.3-0.8-0.2-1.1l-0.5-0.4c-1.5-1.1-3.4-1.8-5.3-1.8
		c-2,0-3.9,0.5-5.5,1.5c-1.8,1.1-3.4,2.6-4.9,4.6c-2.1,2.9-3,5.7-2.9,8.4c0.1,2.7,1.4,4.9,3.8,6.6c1.6,1.1,3.2,1.7,4.8,1.7
		c1.6,0,3.2-0.4,4.7-1.2c1.5-0.7,3.2-1.8,5.3-3.2c1.9-1.2,3.3-2.1,4.4-2.7c0.9-0.5,1.8-0.8,2.8-0.9c0.9-0.1,1.7,0.2,2.4,0.7
		c1.1,0.8,1.7,1.9,1.8,3.2c0.1,1.3-0.4,2.8-1.6,4.5c-1.3,1.8-2.8,3-4.4,3.5c-1.6,0.5-3,0.3-4.3-0.6l-0.7-0.5
		c-0.4-0.3-0.8-0.2-1.1,0.2l-2.4,3.3c-0.3,0.4-0.3,0.8,0.2,1.1l0.9,0.6c1.6,1.2,3.3,1.8,5.2,1.8c1.8,0,3.6-0.5,5.4-1.5
		c1.8-1.1,3.4-2.6,4.9-4.7c1.5-2.1,2.4-4.1,2.8-6.1c0.4-2,0.3-3.8-0.3-5.5C149.6,182.7,148.5,181.3,147,180.3z M121.2,398.4l-1.3-4
		c-0.2-0.5-0.5-0.7-1-0.5l-13.3,4.3c-0.2,0.1-0.3,0-0.4-0.2l-3.9-12c-0.1-0.2,0-0.3,0.2-0.4l13.3-4.3c0.5-0.2,0.7-0.5,0.5-1l-1.3-4
		c-0.2-0.5-0.5-0.7-1-0.5l-31.7,10.3c-0.5,0.2-0.7,0.5-0.5,1l1.3,4c0.2,0.5,0.5,0.7,1,0.5l13-4.3c0.2-0.1,0.3,0,0.4,0.2l3.9,12
		c0.1,0.2,0,0.3-0.2,0.4l-13,4.3c-0.5,0.2-0.7,0.5-0.5,1l1.3,4c0.2,0.5,0.5,0.7,1,0.5l31.7-10.3
		C121.2,399.3,121.4,398.9,121.2,398.4z M106.9,328l0.1-4.2c0-0.5-0.2-0.8-0.8-0.8l-23.6-0.7c-0.1,0-0.2,0-0.3-0.1
		c0-0.1,0-0.2,0.2-0.2l9.9-5.7c0.4-0.2,0.6-0.5,0.6-1l0.1-1.9c0-0.5-0.2-0.8-0.5-1l-9.5-6.2c-0.1-0.1-0.2-0.1-0.1-0.2
		c0-0.1,0.1-0.1,0.3-0.1l23.6,0.7c0.5,0,0.8-0.2,0.8-0.8l0.1-4.2c0-0.5-0.2-0.8-0.8-0.8l-33.3-0.9c-0.5,0-0.8,0.2-0.8,0.8l-0.1,4.2
		c0,0.5,0.2,0.8,0.5,1l12.3,8.2c0.1,0,0.1,0.1,0.1,0.2c0,0.1-0.1,0.2-0.2,0.2l-12.8,7.4c-0.4,0.2-0.6,0.5-0.6,1L72,327
		c0,0.5,0.2,0.8,0.8,0.8l33.3,0.9C106.6,328.8,106.8,328.6,106.9,328L106.9,328z M112,368l-3.8-21.7c-0.1-0.5-0.4-0.7-0.9-0.7
		l-3.3,0.6c-0.5,0.1-0.7,0.4-0.7,0.9l2.9,16.5c0,0.2-0.1,0.3-0.2,0.4l-9.4,1.6c-0.2,0-0.3,0-0.3-0.2l-1.9-11
		c-0.1-0.5-0.4-0.7-0.9-0.7l-3.3,0.6c-0.5,0.1-0.7,0.4-0.7,0.9l1.9,11c0,0.2,0,0.3-0.2,0.3l-9.1,1.6c-0.2,0-0.3,0-0.3-0.2l-2.9-16.5
		c-0.1-0.5-0.4-0.7-0.9-0.7l-3.3,0.6c-0.5,0.1-0.7,0.4-0.7,0.9l3.8,21.7c0.1,0.5,0.4,0.7,0.9,0.7l32.8-5.7
		C111.9,368.8,112.1,368.5,112,368z M324.8,370.2l-52-52l-36-36v-46.4h44.1v49.7l120.8,120.8h-40.8L324.8,370.2L324.8,370.2z
		 M283.2,406.2h-46.4v-46.4l33.2-33.2l46.4,46.4L283.2,406.2L283.2,406.2z M288.8,241.3l33.4,33.4l33-33.4v46.4h46.4L368.4,321
		l38.8,38.8v40.8L288.8,282.2V241.3L288.8,241.3z M415.1,414.1v-57.6L379.6,321l35.5-35.5v-57.6h-57.6l-35.3,35.7l-35.7-35.7h-57.6
		v57.6l35.5,35.5l-35.5,35.5v57.6h57.6l35.5-35.5l35.5,35.5L415.1,414.1L415.1,414.1z"/>
	<rect x="363.1" y="235.7" class="st0" width="44.1" height="44.1"/>
</g>
</svg>
